<svg width="20" height="20" viewBox="0 0 20 20" fill="none" xmlns="http://www.w3.org/2000/svg">
<path d="M20 10C20 4.48603 15.514 -1.96091e-07 10 -4.37114e-07C4.48604 -6.78137e-07 -1.96091e-07 4.48603 -4.37114e-07 10C-6.78137e-07 15.514 4.48604 20 10 20C15.514 20 20 15.514 20 10ZM18.5 10C18.5 14.7033 14.7033 18.5 10 18.5C5.29669 18.5 1.5 14.7033 1.5 10C1.5 5.29669 5.2967 1.5 10 1.5C14.7033 1.5 18.5 5.29669 18.5 10ZM14.999 9.97168C14.9952 9.8684 14.97 9.76704 14.9252 9.67394C14.8803 9.58084 14.8167 9.49801 14.7383 9.43066L11.2383 6.43066C11.1294 6.3373 10.996 6.27712 10.8539 6.25726C10.7119 6.2374 10.5671 6.25869 10.4367 6.31862C10.3064 6.37854 10.196 6.47458 10.1186 6.59535C10.0412 6.71612 10 6.85655 10 7L10 9.25L5.75 9.25C5.65062 9.24859 5.55194 9.26696 5.45972 9.30402C5.36749 9.34108 5.28355 9.3961 5.21277 9.46588C5.142 9.53566 5.08579 9.61882 5.04743 9.71051C5.00907 9.8022 4.98932 9.90061 4.98932 10C4.98932 10.0994 5.00907 10.1978 5.04743 10.2895C5.08579 10.3812 5.142 10.4643 5.21277 10.5341C5.28355 10.6039 5.36749 10.6589 5.45972 10.696C5.55194 10.733 5.65062 10.7514 5.75 10.75L10 10.75L10 13C10 13.1434 10.0412 13.2839 10.1186 13.4047C10.196 13.5254 10.3064 13.6215 10.4367 13.6814C10.5671 13.7413 10.7119 13.7626 10.8539 13.7427C10.996 13.7229 11.1294 13.6627 11.2383 13.5693L14.7383 10.5693C14.8239 10.4958 14.8918 10.4038 14.937 10.3003C14.9821 10.1968 15.0033 10.0845 14.999 9.97168V9.97168ZM13.0977 10L11.5 11.3691L11.5 10.123C11.5132 10.0425 11.5132 9.9604 11.5 9.87988L11.5 8.63086L13.0977 10Z" fill="#A6A6A6"/>
<rect x="11" y="8" width="1" height="4" fill="#A6A6A6"/>
<rect x="12" y="9" width="1" height="2" fill="#A6A6A6"/>
<rect x="13" y="10" width="1" height="1" fill="#A6A6A6"/>
<rect x="13" y="9" width="1" height="1" fill="#A6A6A6"/>
</svg>
