<svg width="27" height="27" viewBox="0 0 27 27" fill="none" xmlns="http://www.w3.org/2000/svg">
<path d="M27 13.5C27 6.05615 20.9439 -2.64723e-07 13.5 -5.90104e-07C6.05615 -9.15485e-07 1.64263e-06 6.05614 1.31724e-06 13.5C9.91864e-07 20.9439 6.05615 27 13.5 27C20.9438 27 27 20.9439 27 13.5ZM24.975 13.5C24.975 19.8495 19.8495 24.975 13.5 24.975C7.15054 24.975 2.025 19.8495 2.025 13.5C2.025 7.15053 7.15054 2.025 13.5 2.025C19.8495 2.025 24.975 7.15054 24.975 13.5ZM20.2487 13.4618C20.2435 13.3223 20.2095 13.1855 20.149 13.0598C20.0884 12.9341 20.0025 12.8223 19.8967 12.7314L15.1717 8.6814C15.0247 8.55535 14.8446 8.47411 14.6528 8.4473C14.461 8.42049 14.2655 8.44923 14.0896 8.53013C13.9137 8.61103 13.7646 8.74068 13.6601 8.90372C13.5556 9.06676 13.5 9.25635 13.5 9.45L13.5 12.4875L7.7625 12.4875C7.62833 12.4856 7.49512 12.5104 7.37062 12.5604C7.24611 12.6105 7.1328 12.6847 7.03725 12.7789C6.9417 12.8731 6.86582 12.9854 6.81404 13.1092C6.76225 13.233 6.73558 13.3658 6.73558 13.5C6.73558 13.6342 6.76225 13.767 6.81404 13.8908C6.86582 14.0146 6.9417 14.1269 7.03725 14.2211C7.1328 14.3153 7.24611 14.3895 7.37062 14.4396C7.49512 14.4896 7.62833 14.5144 7.7625 14.5125L13.5 14.5125L13.5 17.55C13.5 17.7437 13.5556 17.9332 13.6601 18.0963C13.7646 18.2593 13.9136 18.389 14.0896 18.4699C14.2655 18.5508 14.461 18.5795 14.6528 18.5527C14.8446 18.5259 15.0247 18.4447 15.1717 18.3186L19.8967 14.2686C20.0123 14.1693 20.104 14.0451 20.1649 13.9054C20.2259 13.7657 20.2545 13.6141 20.2487 13.4618V13.4618ZM17.6818 13.5L15.525 15.3483L15.525 13.6661C15.5429 13.5574 15.5429 13.4465 15.525 13.3378L15.525 11.6517L17.6818 13.5Z" fill="#444444"/>
</svg>
