<svg width="38" height="43" viewBox="0 0 38 43" fill="none" xmlns="http://www.w3.org/2000/svg">
<path d="M12.5 0C10.2034 0 8.3057 1.76662 8.05078 4H4.5C2.019 4 0 6.019 0 8.5V35.5C0 37.981 2.019 40 4.5 40H16.7676C16.0536 39.088 15.452 38.084 15 37H4.5C3.673 37 3 36.327 3 35.5V8.5C3 7.673 3.673 7 4.5 7H8.76953C9.58124 8.2019 10.9547 9 12.5 9H19.5C21.0453 9 22.4188 8.2019 23.2305 7H27.5C28.327 7 29 7.673 29 8.5V19.1699C30.045 19.3319 31.053 19.603 32 19.998V8.5C32 6.019 29.981 4 27.5 4H23.9492C23.6943 1.76662 21.7966 0 19.5 0H12.5ZM12.5 3H19.5C20.3465 3 21 3.6535 21 4.5C21 5.3465 20.3465 6 19.5 6H12.5C11.6535 6 11 5.3465 11 4.5C11 3.6535 11.6535 3 12.5 3ZM27 21C20.925 21 16 25.925 16 32C16 38.075 20.925 43 27 43C33.075 43 38 38.075 38 32C38 25.925 33.075 21 27 21ZM27 24C27.552 24 28 24.448 28 25V31H34C34.552 31 35 31.448 35 32C35 32.552 34.552 33 34 33H28V39C28 39.552 27.552 40 27 40C26.448 40 26 39.552 26 39V33H20C19.448 33 19 32.552 19 32C19 31.448 19.448 31 20 31H26V25C26 24.448 26.448 24 27 24Z" fill="#444444"/>
</svg>
