<svg width="17" height="23" viewBox="0 0 17 23" fill="none" xmlns="http://www.w3.org/2000/svg">
<path d="M2.8315 0C1.27006 0 0 1.28957 0 2.875V17.5114V18.0341C0 19.6126 1.27687 20.9091 2.8315 20.9091H4.11855V22.2159C4.11855 22.495 4.26431 22.7532 4.50164 22.8938C4.73949 23.0344 5.03298 23.0349 5.27186 22.8979L6.43523 22.2271L7.5986 22.8979C7.71649 22.9659 7.84789 23 7.97968 23C8.11405 23 8.24835 22.9649 8.36881 22.8938C8.60614 22.7532 8.75191 22.495 8.75191 22.2159V20.9091H16.2168C16.3191 20.9106 16.4207 20.8914 16.5157 20.8526C16.6106 20.8139 16.697 20.7564 16.7699 20.6834C16.8428 20.6104 16.9007 20.5235 16.9402 20.4276C16.9797 20.3318 17 20.2289 17 20.125C17 20.0211 16.9797 19.9182 16.9402 19.8224C16.9007 19.7265 16.8428 19.6396 16.7699 19.5666C16.697 19.4936 16.6106 19.4361 16.5157 19.3974C16.4207 19.3586 16.3191 19.3394 16.2168 19.3409H8.75191V18.2955H16.2168C16.6436 18.2955 16.989 17.9447 16.989 17.5114V2.875C16.989 1.29009 15.7184 0 14.1575 0H2.8315ZM2.8315 1.56818H11.326V16.7273H1.54445V2.875C1.54445 2.15468 2.12208 1.56818 2.8315 1.56818ZM12.8705 1.56818H14.1575C14.8674 1.56818 15.4445 2.15416 15.4445 2.875V16.7273H12.8705V1.56818ZM1.5706 18.2955H4.11855V19.3409H2.8315C2.19994 19.3409 1.68718 18.8978 1.5706 18.2955Z" fill="#2E3235"/>
<rect x="12" y="1" width="4" height="16" fill="#2E3235"/>
</svg>
