<svg width="21" height="21" viewBox="0 0 21 21" fill="none" xmlns="http://www.w3.org/2000/svg">
<circle cx="10.5" cy="10.5" r="10" fill="#2E3235" stroke="#79CFFF"/>
<mask id="path-2-inside-1" fill="white">
<path d="M15.5601 6.72016C15.4589 6.72302 15.3628 6.76395 15.2922 6.83429L8.55367 13.368L5.71183 10.6125C5.67593 10.5763 5.63292 10.5473 5.58533 10.5274C5.53774 10.5074 5.48653 10.4969 5.43468 10.4964C5.38284 10.4959 5.33142 10.5054 5.28342 10.5244C5.23542 10.5434 5.19182 10.5715 5.15516 10.607C5.1185 10.6426 5.08952 10.6849 5.06993 10.7314C5.05033 10.7779 5.04051 10.8278 5.04104 10.8781C5.04156 10.9283 5.05243 10.978 5.073 11.0241C5.09356 11.0703 5.12342 11.112 5.16082 11.1468L8.27816 14.1694C8.35124 14.2402 8.45034 14.28 8.55367 14.28C8.657 14.28 8.7561 14.2402 8.82918 14.1694L15.8432 7.36856C15.8994 7.31547 15.9378 7.24717 15.9533 7.17258C15.9688 7.098 15.9608 7.02061 15.9302 6.95055C15.8996 6.88048 15.8479 6.821 15.7819 6.7799C15.7158 6.73879 15.6385 6.71797 15.5601 6.72016V6.72016Z"/>
</mask>
<path d="M15.5601 6.72016C15.4589 6.72302 15.3628 6.76395 15.2922 6.83429L8.55367 13.368L5.71183 10.6125C5.67593 10.5763 5.63292 10.5473 5.58533 10.5274C5.53774 10.5074 5.48653 10.4969 5.43468 10.4964C5.38284 10.4959 5.33142 10.5054 5.28342 10.5244C5.23542 10.5434 5.19182 10.5715 5.15516 10.607C5.1185 10.6426 5.08952 10.6849 5.06993 10.7314C5.05033 10.7779 5.04051 10.8278 5.04104 10.8781C5.04156 10.9283 5.05243 10.978 5.073 11.0241C5.09356 11.0703 5.12342 11.112 5.16082 11.1468L8.27816 14.1694C8.35124 14.2402 8.45034 14.28 8.55367 14.28C8.657 14.28 8.7561 14.2402 8.82918 14.1694L15.8432 7.36856C15.8994 7.31547 15.9378 7.24717 15.9533 7.17258C15.9688 7.098 15.9608 7.02061 15.9302 6.95055C15.8996 6.88048 15.8479 6.821 15.7819 6.7799C15.7158 6.73879 15.6385 6.71797 15.5601 6.72016V6.72016Z" fill="white"/>
<path d="M15.2922 6.83429L15.9884 7.55229L15.9979 7.54279L15.2922 6.83429ZM8.55367 13.368L7.85756 14.0859L8.55367 14.7609L9.24978 14.0859L8.55367 13.368ZM5.71183 10.6125L5.00127 11.3162L5.00842 11.3234L5.01572 11.3305L5.71183 10.6125ZM5.16082 11.1468L5.85693 10.4289L5.84964 10.4218L5.8422 10.4149L5.16082 11.1468ZM8.27816 14.1694L7.58205 14.8873L7.5822 14.8875L8.27816 14.1694ZM8.55367 14.28L8.55367 13.28L8.55367 14.28ZM8.82918 14.1694L9.52514 14.8875L9.52529 14.8873L8.82918 14.1694ZM15.8432 7.36856L15.1566 6.64143L15.1471 6.65062L15.8432 7.36856ZM15.5318 5.72056C15.1804 5.73049 14.8407 5.87255 14.5865 6.12579L15.9979 7.54279C15.8849 7.65535 15.7373 7.71555 15.5883 7.71976L15.5318 5.72056ZM14.5961 6.11636L7.85756 12.6501L9.24978 14.0859L15.9883 7.55223L14.5961 6.11636ZM9.24978 12.6501L6.40794 9.89459L5.01572 11.3305L7.85756 14.0859L9.24978 12.6501ZM6.4224 9.9089C6.29285 9.77807 6.13938 9.6753 5.97182 9.60508L5.19884 11.4497C5.12646 11.4193 5.059 11.3745 5.00127 11.3162L6.4224 9.9089ZM5.97182 9.60508C5.80432 9.53489 5.62515 9.49822 5.44454 9.49644L5.42483 11.4963C5.34791 11.4956 5.27116 11.48 5.19884 11.4497L5.97182 9.60508ZM5.44454 9.49644C5.26395 9.49466 5.08413 9.52779 4.91535 9.5946L5.65149 11.4542C5.5787 11.483 5.50174 11.4971 5.42483 11.4963L5.44454 9.49644ZM4.91535 9.5946C4.74652 9.66144 4.59112 9.76105 4.45905 9.88911L5.85127 11.325C5.79251 11.3819 5.72433 11.4254 5.65149 11.4542L4.91535 9.5946ZM4.45905 9.88911C4.3269 10.0172 4.22071 10.1714 4.1483 10.3433L5.99156 11.1195C5.95834 11.1984 5.9101 11.2679 5.85127 11.325L4.45905 9.88911ZM4.1483 10.3433C4.07585 10.5154 4.03912 10.7008 4.04109 10.8886L6.04098 10.8676C6.0419 10.9548 6.02481 11.0405 5.99156 11.1195L4.1483 10.3433ZM4.04109 10.8886C4.04306 11.0763 4.08367 11.2609 4.15963 11.4313L5.98637 10.617C6.02119 10.6951 6.04007 10.7804 6.04098 10.8676L4.04109 10.8886ZM4.15963 11.4313C4.23555 11.6016 4.34482 11.7534 4.47943 11.8787L5.8422 10.4149C5.90202 10.4706 5.95158 10.539 5.98637 10.617L4.15963 11.4313ZM4.46471 11.8647L7.58205 14.8873L8.97428 13.4515L5.85693 10.4289L4.46471 11.8647ZM7.5822 14.8875C7.84501 15.1422 8.19499 15.28 8.55367 15.28L8.55367 13.28C8.7057 13.28 8.85748 13.3383 8.97413 13.4513L7.5822 14.8875ZM8.55367 15.28C8.91236 15.28 9.26234 15.1422 9.52514 14.8875L8.13322 13.4513C8.24986 13.3383 8.40164 13.28 8.55367 13.28V15.28ZM9.52529 14.8873L16.5393 8.08649L15.1471 6.65062L8.13307 13.4515L9.52529 14.8873ZM16.5298 8.09562C16.7323 7.90434 16.8745 7.6543 16.9324 7.37628L14.9743 6.96889C15.0011 6.84003 15.0665 6.7266 15.1566 6.6415L16.5298 8.09562ZM16.9324 7.37628C16.9903 7.09801 16.9598 6.80966 16.8466 6.55039L15.0137 7.3507C14.9617 7.23156 14.9474 7.09799 14.9743 6.96889L16.9324 7.37628ZM16.8466 6.55039C16.7336 6.29152 16.5449 6.07698 16.3103 5.93095L15.2534 7.62884C15.1509 7.56502 15.0656 7.46945 15.0137 7.3507L16.8466 6.55039ZM16.3103 5.93095C16.0761 5.78513 15.805 5.71293 15.5322 5.72055L15.588 7.71977C15.4721 7.72301 15.3556 7.69245 15.2534 7.62884L16.3103 5.93095Z" fill="#79CFFF" mask="url(#path-2-inside-1)"/>
</svg>
