<svg width="32" height="42" viewBox="0 0 32 42" fill="none" xmlns="http://www.w3.org/2000/svg">
<path d="M15.9473 0.00194567C15.5785 0.0146039 15.2274 0.162713 14.9609 0.417961C14.9609 0.417961 11.2575 3.97082 7.55273 8.8789C3.84795 13.787 0 20.0243 0 26C0 34.8187 7.18131 42 16 42C24.8187 42 32 34.8187 32 26C32 20.0243 28.1521 13.787 24.4473 8.8789C20.7425 3.97082 17.0391 0.417961 17.0391 0.417961C16.8942 0.279114 16.7229 0.170753 16.5353 0.0992948C16.3478 0.0278365 16.1478 -0.00526665 15.9473 0.00194567V0.00194567ZM16 3.65624C17.1236 4.79001 19.3385 7.08978 22.0527 10.6855C25.5979 15.3822 29 21.3947 29 26C29 33.1973 23.1973 39 16 39V3.65624Z" fill="#444444"/>
</svg>
