<svg width="38" height="40" viewBox="0 0 38 40" fill="none" xmlns="http://www.w3.org/2000/svg">
<path d="M18.9999 0C15.704 0 12.9999 2.70413 12.9999 6H6.74597C6.65696 5.98474 6.56675 5.97755 6.47644 5.97852C6.40375 5.98041 6.33129 5.98759 6.25964 6H2.49988C2.30111 5.99719 2.10377 6.03391 1.91931 6.10803C1.73486 6.18215 1.56698 6.29219 1.42543 6.43176C1.28387 6.57133 1.17147 6.73764 1.09475 6.92102C1.01802 7.10441 0.978516 7.30121 0.978516 7.5C0.978516 7.69879 1.01802 7.89559 1.09475 8.07898C1.17147 8.26236 1.28387 8.42867 1.42543 8.56824C1.56698 8.70781 1.73486 8.81785 1.91931 8.89197C2.10377 8.96609 2.30111 9.00281 2.49988 9H4.99988V34.5C4.99988 37.5198 7.48011 40 10.4999 40H27.4999C30.5197 40 32.9999 37.5198 32.9999 34.5V9H35.4999C35.6986 9.00281 35.896 8.96609 36.0804 8.89197C36.2649 8.81785 36.4328 8.70781 36.5743 8.56824C36.7159 8.42867 36.8283 8.26236 36.905 8.07898C36.9817 7.89559 37.0212 7.69879 37.0212 7.5C37.0212 7.30121 36.9817 7.10441 36.905 6.92102C36.8283 6.73764 36.7159 6.57133 36.5743 6.43176C36.4328 6.29219 36.2649 6.18215 36.0804 6.10803C35.896 6.03391 35.6986 5.99719 35.4999 6H31.746C31.5849 5.97355 31.4207 5.97355 31.2596 6H24.9999C24.9999 2.70413 22.2957 0 18.9999 0ZM18.9999 3C20.674 3 21.9999 4.32587 21.9999 6H15.9999C15.9999 4.32587 17.3257 3 18.9999 3ZM7.99988 9H29.9999V34.5C29.9999 35.8982 28.8981 37 27.4999 37H10.4999C9.10165 37 7.99988 35.8982 7.99988 34.5V9ZM15.4764 13.9785C15.079 13.9847 14.7002 14.1485 14.4233 14.4337C14.1465 14.719 13.9942 15.1025 13.9999 15.5V30.5C13.9971 30.6988 14.0338 30.8961 14.1079 31.0806C14.182 31.265 14.2921 31.4329 14.4316 31.5745C14.5712 31.716 14.7375 31.8284 14.9209 31.9051C15.1043 31.9819 15.3011 32.0214 15.4999 32.0214C15.6987 32.0214 15.8955 31.9819 16.0789 31.9051C16.2622 31.8284 16.4286 31.716 16.5681 31.5745C16.7077 31.4329 16.8177 31.265 16.8918 31.0806C16.966 30.8961 17.0027 30.6988 16.9999 30.5V15.5C17.0028 15.2992 16.9653 15.0999 16.8897 14.9139C16.8142 14.7279 16.702 14.5589 16.56 14.417C16.4179 14.2751 16.2488 14.1632 16.0627 14.0879C15.8766 14.0126 15.6772 13.9754 15.4764 13.9785V13.9785ZM22.4764 13.9785C22.079 13.9847 21.7002 14.1485 21.4233 14.4337C21.1465 14.719 20.9942 15.1025 20.9999 15.5V30.5C20.9971 30.6988 21.0338 30.8961 21.1079 31.0806C21.182 31.265 21.2921 31.4329 21.4316 31.5745C21.5712 31.716 21.7375 31.8284 21.9209 31.9051C22.1043 31.9819 22.3011 32.0214 22.4999 32.0214C22.6987 32.0214 22.8955 31.9819 23.0789 31.9051C23.2622 31.8284 23.4286 31.716 23.5681 31.5745C23.7077 31.4329 23.8177 31.265 23.8918 31.0806C23.966 30.8961 24.0027 30.6988 23.9999 30.5V15.5C24.0028 15.2992 23.9653 15.0999 23.8897 14.9139C23.8142 14.7279 23.702 14.5589 23.56 14.417C23.4179 14.2751 23.2488 14.1632 23.0627 14.0879C22.8766 14.0126 22.6772 13.9754 22.4764 13.9785V13.9785Z" fill="#444444"/>
</svg>
