<svg width="19" height="20" viewBox="0 0 19 20" fill="none" xmlns="http://www.w3.org/2000/svg">
<path d="M2.11111 0C0.957323 0 0 1.00771 0 2.22222V17.7778C0 18.9923 0.957323 20 2.11111 20H16.8889C18.0427 20 19 18.9923 19 17.7778V2.22222C19 1.00771 18.0427 0 16.8889 0H2.11111ZM2.11111 2.22222H11.6111V8.88889H8.44444V7.3329C8.44444 6.9729 8.23952 6.64925 7.92285 6.51259C7.60619 6.37481 7.24509 6.45129 7.00336 6.70573L4.46962 9.37283C4.14028 9.7195 4.14028 10.2827 4.46962 10.6293L7.00336 13.2964C7.16592 13.4664 7.37962 13.5547 7.59918 13.5547C7.7079 13.5547 7.81835 13.533 7.92285 13.4874C8.23846 13.3496 8.44444 13.026 8.44444 12.6671V11.1111H11.6111V17.7778H2.11111V2.22222Z" fill="#2E3235"/>
</svg>
