<svg width="20" height="18" viewBox="0 0 20 18" fill="none" xmlns="http://www.w3.org/2000/svg">
<path d="M12.1191 0L7.87695 0.00390583C7.31795 0.00390583 6.7833 0.238365 6.4043 0.65032L5.16406 2.00174H2C0.9 2.00174 0 2.90164 0 4.00152V16.0002C0 17.1001 0.9 18 2 18H18C19.1 18 20 17.1001 20 16.0002V4.00152C20 2.90164 19.1 2.00174 18 2.00174H14.8418L13.5938 0.646414C13.2147 0.234459 12.6791 0 12.1191 0ZM10 5.00141C12.8 5.00141 15 7.20117 15 10.0009C15 12.8006 12.8 15.0003 10 15.0003C7.2 15.0003 5 12.8006 5 10.0009C5 7.20117 7.2 5.00141 10 5.00141ZM10 7.00119C9.20435 7.00119 8.44129 7.31723 7.87868 7.87978C7.31607 8.44233 7 9.2053 7 10.0009C7 10.7964 7.31607 11.5594 7.87868 12.122C8.44129 12.6845 9.20435 13.0005 10 13.0005C10.7956 13.0005 11.5587 12.6845 12.1213 12.122C12.6839 11.5594 13 10.7964 13 10.0009C13 9.2053 12.6839 8.44233 12.1213 7.87978C11.5587 7.31723 10.7956 7.00119 10 7.00119Z" fill="#2E3235"/>
</svg>
