<svg width="12" height="12" viewBox="0 0 12 12" fill="none" xmlns="http://www.w3.org/2000/svg">
<path d="M6.85671 0C6.39838 0 5.96801 0.178518 5.64455 0.502232L0.501257 5.64509C-0.167086 6.31338 -0.167086 7.40091 0.501257 8.0692L3.35864 10.9263C3.6821 11.2503 4.11247 11.4286 4.5708 11.4286C5.02627 11.4286 5.45449 11.2522 5.77737 10.9319C5.60965 10.6839 5.47483 10.4121 5.37053 10.1267L5.17688 10.3203C4.85313 10.644 4.28846 10.644 3.96472 10.3203L1.10734 7.46317C0.773307 7.12888 0.773307 6.5854 1.10734 6.25112L6.25063 1.10826C6.41236 0.946259 6.62754 0.857143 6.85671 0.857143H9.99983C10.315 0.857143 10.5713 1.11343 10.5713 1.42857V4.57087C10.5713 4.80001 10.4819 5.01546 10.3202 5.17746L10.1265 5.37109C10.4123 5.47538 10.6835 5.61019 10.9318 5.7779C11.2519 5.45476 11.4285 5.0263 11.4285 4.57087V1.42857C11.4285 0.640857 10.7876 0 9.99983 0H6.85671ZM8.57114 2C8.09767 2 7.71392 2.38371 7.71392 2.85714C7.71392 3.33057 8.09767 3.71429 8.57114 3.71429C9.04461 3.71429 9.42835 3.33057 9.42835 2.85714C9.42835 2.38371 9.04461 2 8.57114 2ZM8.85688 5.71429C7.1213 5.71429 5.71375 7.12171 5.71375 8.85714C5.71375 10.5926 7.1213 12 8.85688 12C10.5925 12 12 10.5926 12 8.85714C12 7.12171 10.5925 5.71429 8.85688 5.71429ZM8.85688 6.57143C9.01432 6.57143 9.14261 6.69971 9.14261 6.85714V8.57143H10.857C11.0145 8.57143 11.1428 8.69971 11.1428 8.85714C11.1428 9.01457 11.0145 9.14286 10.857 9.14286H9.14261V10.8571C9.14261 11.0146 9.01432 11.1429 8.85688 11.1429C8.69943 11.1429 8.57114 11.0146 8.57114 10.8571V9.14286H6.85671C6.69926 9.14286 6.57097 9.01457 6.57097 8.85714C6.57097 8.69971 6.69926 8.57143 6.85671 8.57143H8.57114V6.85714C8.57114 6.69971 8.69943 6.57143 8.85688 6.57143Z" fill="#2E3235"/>
</svg>
