<svg width="19" height="16" viewBox="0 0 19 16" fill="none" xmlns="http://www.w3.org/2000/svg">
<path d="M4.53409 6.48698e-05C2.03753 6.48698e-05 0 2.04049 0 4.54059C0 7.04069 2.03753 9.08111 4.53409 9.08111H6.26136C6.3472 9.08233 6.43241 9.06645 6.51206 9.03439C6.59171 9.00234 6.66421 8.95476 6.72533 8.8944C6.78646 8.83405 6.835 8.76213 6.86813 8.68283C6.90126 8.60353 6.91832 8.51843 6.91832 8.43246C6.91832 8.3465 6.90126 8.2614 6.86813 8.18209C6.835 8.10279 6.78646 8.03088 6.72533 7.97052C6.66421 7.91017 6.59171 7.86259 6.51206 7.83053C6.43241 7.79848 6.3472 7.7826 6.26136 7.78382H4.53409C2.73751 7.78382 1.29545 6.33971 1.29545 4.54059C1.29545 2.74146 2.73751 1.29736 4.53409 1.29736H6.69318C6.77901 1.29857 6.86423 1.28269 6.94388 1.25064C7.02353 1.21859 7.09602 1.171 7.15715 1.11065C7.21828 1.0503 7.26681 0.978381 7.29994 0.899079C7.33307 0.819777 7.35013 0.734673 7.35013 0.648711C7.35013 0.562749 7.33307 0.477644 7.29994 0.398343C7.26681 0.319041 7.21828 0.247124 7.15715 0.186771C7.09602 0.126418 7.02353 0.0788329 6.94388 0.0467809C6.86423 0.0147289 6.77901 -0.00115072 6.69318 6.48698e-05H4.53409ZM11.0114 6.48698e-05C10.653 6.48698e-05 10.3636 0.289793 10.3636 0.648711C10.3636 1.00763 10.653 1.29736 11.0114 1.29736H12.7386C14.5264 1.29736 15.9773 2.75032 15.9773 4.54059C15.9773 4.99464 15.8869 5.42241 15.7141 5.81592C16.1373 5.92835 16.5385 6.09325 16.9185 6.29649C17.1474 5.76028 17.2727 5.16329 17.2727 4.54059C17.2727 2.03681 15.2389 6.48698e-05 12.7386 6.48698e-05H11.0114ZM4.10227 3.89194C4.01644 3.89073 3.93122 3.90661 3.85157 3.93866C3.77192 3.97071 3.69943 4.01829 3.6383 4.07865C3.57718 4.139 3.52864 4.21092 3.49551 4.29022C3.46238 4.36952 3.44532 4.45463 3.44532 4.54059C3.44532 4.62655 3.46238 4.71165 3.49551 4.79096C3.52864 4.87026 3.57718 4.94217 3.6383 5.00253C3.69943 5.06288 3.77192 5.11046 3.85157 5.14252C3.93122 5.17457 4.01644 5.19045 4.10227 5.18923H13.1705C13.2563 5.19045 13.3415 5.17457 13.4212 5.14252C13.5008 5.11046 13.5733 5.06288 13.6344 5.00253C13.6955 4.94217 13.7441 4.87026 13.7772 4.79096C13.8103 4.71165 13.8274 4.62655 13.8274 4.54059C13.8274 4.45463 13.8103 4.36952 13.7772 4.29022C13.7441 4.21092 13.6955 4.139 13.6344 4.07865C13.5733 4.01829 13.5008 3.97071 13.4212 3.93866C13.3415 3.90661 13.2563 3.89073 13.1705 3.89194H4.10227ZM14.25 6.48653C11.6267 6.48653 9.5 8.61625 9.5 11.2433C9.5 13.8703 11.6267 16 14.25 16C16.8733 16 19 13.8703 19 11.2433C19 8.61625 16.8733 6.48653 14.25 6.48653ZM14.25 7.78382C14.4884 7.78382 14.6818 7.97755 14.6818 8.21625V10.8108H17.2727C17.5111 10.8108 17.7045 11.0046 17.7045 11.2433C17.7045 11.482 17.5111 11.6757 17.2727 11.6757H14.6818V14.2703C14.6818 14.509 14.4884 14.7027 14.25 14.7027C14.0116 14.7027 13.8182 14.509 13.8182 14.2703V11.6757H11.2273C10.9889 11.6757 10.7955 11.482 10.7955 11.2433C10.7955 11.0046 10.9889 10.8108 11.2273 10.8108H13.8182V8.21625C13.8182 7.97755 14.0116 7.78382 14.25 7.78382Z" fill="black"/>
</svg>
