<svg width="30" height="26" viewBox="0 0 30 26" fill="none" xmlns="http://www.w3.org/2000/svg">
<path d="M20.6669 0.25C16.8196 0.25 13.6973 3.35868 13.614 7.18669C10.2124 6.77871 7.99735 5.5069 6.63857 4.25374C5.13171 2.86402 4.65469 1.62931 4.65469 1.62931C4.58504 1.45384 4.46991 1.30009 4.32113 1.18388C4.17235 1.06767 3.9953 0.993191 3.80819 0.968111C3.62107 0.943031 3.43066 0.968253 3.25653 1.04118C3.0824 1.11411 2.93084 1.23212 2.81745 1.38306C2.81745 1.38306 1.54189 3.08333 1.54189 5.5625C1.54189 6.97986 1.98942 8.0286 2.52277 8.9174C2.50312 8.9082 2.37059 8.86206 2.37059 8.86206C2.20125 8.77751 2.0124 8.73973 1.82356 8.75262C1.63473 8.7655 1.45276 8.8286 1.29648 8.93537C1.14019 9.04214 1.01527 9.18872 0.934614 9.35995C0.85396 9.53118 0.820506 9.72085 0.837711 9.90934C0.837711 9.90934 1.24666 12.8986 4.05703 15.0835L3.76374 15.1568C3.60453 15.1966 3.45669 15.2726 3.33181 15.3791C3.20692 15.4855 3.10839 15.6195 3.04393 15.7704C2.97947 15.9213 2.95083 16.085 2.96026 16.2489C2.96969 16.4127 3.01694 16.5721 3.09829 16.7146C3.09829 16.7146 3.57485 17.5207 4.57306 18.3692C5.16491 18.8723 6.03433 19.3914 7.05915 19.8717C5.80059 20.3316 3.92389 20.7917 1.18773 20.7917C0.983552 20.7916 0.783693 20.8504 0.61206 20.961C0.440428 21.0716 0.30429 21.2293 0.219934 21.4152C0.135578 21.6012 0.106575 21.8075 0.136395 22.0095C0.166216 22.2115 0.253597 22.4006 0.388085 22.5542C0.388085 22.5542 1.2 23.4486 2.805 24.2268C4.40999 25.005 6.88235 25.75 10.3961 25.75C16.5725 25.75 21.0102 22.7871 23.7797 19.0319C26.5492 15.2767 27.7502 10.7766 27.7502 7.33333C27.7502 7.11485 27.7366 6.89943 27.717 6.68587C29.2125 5.24488 29.7737 4.16158 29.8005 4.10848C29.9351 3.8386 29.885 3.51449 29.676 3.29915C29.4678 3.08311 29.145 3.02227 28.8708 3.14836L28.756 3.20093C28.6575 3.24626 28.5591 3.29188 28.4599 3.33651C28.7482 2.8768 28.9757 2.38554 29.1337 1.87695C29.2215 1.59645 29.1267 1.28908 28.8944 1.10775C28.662 0.926414 28.342 0.907001 28.0906 1.06071C27.2248 1.58688 26.3949 1.95523 25.5312 2.20207C24.26 0.99621 22.5488 0.25 20.6669 0.25ZM20.6669 2.375C23.4175 2.375 25.6252 4.58275 25.6252 7.33333C25.6252 10.265 24.5242 14.4421 22.0697 17.7702C19.6153 21.0983 15.9071 23.625 10.3961 23.625C7.72904 23.625 5.95494 23.1426 4.62563 22.6206C6.01809 22.4044 7.21702 22.1158 8.07876 21.7822C9.57311 21.2038 10.3795 20.5357 10.3795 20.5357C10.5274 20.4088 10.6375 20.2436 10.6978 20.0583C10.7582 19.8729 10.7663 19.6746 10.7215 19.4849C10.6766 19.2952 10.5805 19.1215 10.4435 18.9828C10.3066 18.8441 10.1341 18.7457 9.94505 18.6985C8.01645 18.2163 6.77954 17.4365 6.00356 16.7865L7.11172 16.5098C7.33087 16.4552 7.52689 16.3321 7.67133 16.1584C7.81578 15.9848 7.90114 15.7696 7.91501 15.5442C7.92889 15.3187 7.87057 15.0947 7.74851 14.9047C7.62646 14.7146 7.44702 14.5684 7.23623 14.4872C4.9376 13.6031 3.97235 12.3528 3.47874 11.3053C4.07939 11.4296 4.63865 11.5833 5.43773 11.5833C5.67701 11.5831 5.90922 11.5022 6.09677 11.3536C6.28431 11.205 6.41622 10.9974 6.47112 10.7645C6.52602 10.5316 6.50071 10.287 6.39929 10.0703C6.29786 9.85359 6.12625 9.67744 5.91225 9.57039C5.91225 9.57039 3.66689 8.5375 3.66689 5.5625C3.66689 5.02838 3.81482 4.69008 3.92283 4.28556C4.29342 4.78358 4.59883 5.264 5.197 5.81567C7.02073 7.49763 10.0351 9.21265 14.5893 9.45695C14.7334 9.46464 14.8776 9.44289 15.013 9.39304C15.1485 9.34319 15.2723 9.26627 15.377 9.16698C15.4818 9.06769 15.5652 8.94811 15.6222 8.81553C15.6792 8.68295 15.7086 8.54015 15.7086 8.39583V7.33333C15.7086 4.58275 17.9163 2.375 20.6669 2.375Z" fill="#1E97EB"/>
<path d="M3 7L3.5 3L5 4L6.5 5.5L9 7L12 8L15 8.5V7V5L16.5 3L18 2L20.5 1L23 2L25 3.5L27 4.5V7.5L25.5 12.5L22 19.5L16 24L8.5 25L3.5 23.5L3 21.5H6L9 19.5L7.5 19L5.5 17.5L4.5 16L6 15.5V15L3 13L2.5 10.5L3.5 9.5L3 7Z" fill="#1E97EB"/>
</svg>
