<svg width="9" height="9" viewBox="0 0 9 9" fill="none" xmlns="http://www.w3.org/2000/svg">
<path d="M1.37503 3.75027e-05C0.62009 3.75027e-05 3.86297e-05 0.620089 3.86297e-05 1.37503V2.12502C-0.000664132 2.17471 0.00851622 2.22405 0.0270462 2.27016C0.0455762 2.31627 0.0730863 2.35824 0.107978 2.39363C0.142869 2.42902 0.184446 2.45712 0.230292 2.4763C0.276138 2.49548 0.325339 2.50536 0.375035 2.50536C0.424732 2.50536 0.473933 2.49548 0.519779 2.4763C0.565625 2.45712 0.607202 2.42902 0.642093 2.39363C0.676985 2.35824 0.704495 2.31627 0.723025 2.27016C0.741555 2.22405 0.750735 2.17471 0.750032 2.12502V1.37503C0.750032 1.02547 1.02547 0.750031 1.37503 0.750031H2.12502C2.17471 0.750734 2.22405 0.741554 2.27016 0.723024C2.31627 0.704494 2.35824 0.676984 2.39363 0.642092C2.42902 0.607201 2.45712 0.565624 2.4763 0.519778C2.49548 0.473932 2.50536 0.424731 2.50536 0.375034C2.50536 0.325338 2.49548 0.276137 2.4763 0.230291C2.45712 0.184445 2.42902 0.142868 2.39363 0.107977C2.35824 0.0730852 2.31627 0.0455751 2.27016 0.0270451C2.22405 0.00851509 2.17471 -0.000665259 2.12502 3.75027e-05H1.37503ZM6.87498 3.75027e-05C6.82529 -0.000665259 6.77595 0.00851509 6.72984 0.0270451C6.68373 0.0455751 6.64176 0.0730852 6.60637 0.107977C6.57098 0.142868 6.54288 0.184445 6.5237 0.230291C6.50452 0.276137 6.49464 0.325338 6.49464 0.375034C6.49464 0.424731 6.50452 0.473932 6.5237 0.519778C6.54288 0.565624 6.57098 0.607201 6.60637 0.642092C6.64176 0.676984 6.68373 0.704494 6.72984 0.723024C6.77595 0.741554 6.82529 0.750734 6.87498 0.750031H7.62497C7.97453 0.750031 8.24997 1.02547 8.24997 1.37503V2.12502C8.24927 2.17471 8.25845 2.22405 8.27698 2.27016C8.29551 2.31627 8.32302 2.35824 8.35791 2.39363C8.3928 2.42902 8.43438 2.45712 8.48022 2.4763C8.52607 2.49548 8.57527 2.50536 8.62496 2.50536C8.67466 2.50536 8.72386 2.49548 8.76971 2.4763C8.81555 2.45712 8.85713 2.42902 8.89202 2.39363C8.92691 2.35824 8.95442 2.31627 8.97295 2.27016C8.99148 2.22405 9.00066 2.17471 8.99996 2.12502V1.37503C8.99996 0.620089 8.37991 3.75027e-05 7.62497 3.75027e-05H6.87498ZM3.13234 1.75002C2.37324 1.75002 1.75002 2.37324 1.75002 3.13234V5.86766C1.75002 6.62676 2.37324 7.24998 3.13234 7.24998H5.86766C6.62676 7.24998 7.24998 6.62676 7.24998 5.86766V3.13234C7.24998 2.37324 6.62676 1.75002 5.86766 1.75002H3.13234ZM3.13234 2.50002H5.86766C6.22156 2.50002 6.49998 2.77844 6.49998 3.13234V5.86766C6.49998 6.22156 6.22156 6.49998 5.86766 6.49998H3.13234C2.77844 6.49998 2.50002 6.22156 2.50002 5.86766V3.13234C2.50002 2.77844 2.77844 2.50002 3.13234 2.50002ZM4.5 3.25001C3.80976 3.25001 3.25001 3.80976 3.25001 4.5C3.25001 5.19024 3.80976 5.74999 4.5 5.74999C5.19024 5.74999 5.74999 5.19024 5.74999 4.5C5.74999 3.80976 5.19024 3.25001 4.5 3.25001ZM0.369176 6.49461C0.269806 6.49616 0.175115 6.5371 0.105902 6.60841C0.0366886 6.67973 -0.00138684 6.77561 3.86297e-05 6.87498V7.62497C3.86297e-05 8.37991 0.62009 8.99996 1.37503 8.99996H2.12502C2.17471 9.00066 2.22405 8.99148 2.27016 8.97295C2.31627 8.95442 2.35824 8.92691 2.39363 8.89202C2.42902 8.85713 2.45712 8.81555 2.4763 8.76971C2.49548 8.72386 2.50536 8.67466 2.50536 8.62497C2.50536 8.57527 2.49548 8.52607 2.4763 8.48022C2.45712 8.43438 2.42902 8.3928 2.39363 8.35791C2.35824 8.32302 2.31627 8.29551 2.27016 8.27698C2.22405 8.25845 2.17471 8.24927 2.12502 8.24997H1.37503C1.02547 8.24997 0.750032 7.97453 0.750032 7.62497V6.87498C0.750752 6.82479 0.741389 6.77496 0.722498 6.72846C0.703607 6.68195 0.675572 6.63971 0.640056 6.60424C0.604539 6.56877 0.562263 6.54079 0.515733 6.52196C0.469203 6.50313 0.419366 6.49383 0.369176 6.49461ZM8.61911 6.49461C8.51974 6.49616 8.42504 6.5371 8.35583 6.60841C8.28662 6.67973 8.24854 6.77561 8.24997 6.87498V7.62497C8.24997 7.97453 7.97453 8.24997 7.62497 8.24997H6.87498C6.82529 8.24927 6.77595 8.25845 6.72984 8.27698C6.68373 8.29551 6.64176 8.32302 6.60637 8.35791C6.57098 8.3928 6.54288 8.43438 6.5237 8.48022C6.50452 8.52607 6.49464 8.57527 6.49464 8.62497C6.49464 8.67466 6.50452 8.72386 6.5237 8.76971C6.54288 8.81555 6.57098 8.85713 6.60637 8.89202C6.64176 8.92691 6.68373 8.95442 6.72984 8.97295C6.77595 8.99148 6.82529 9.00066 6.87498 8.99996H7.62497C8.37991 8.99996 8.99996 8.37991 8.99996 7.62497V6.87498C9.00068 6.82479 8.99132 6.77496 8.97243 6.72846C8.95354 6.68195 8.9255 6.63971 8.88999 6.60424C8.85447 6.56877 8.81219 6.54079 8.76566 6.52196C8.71913 6.50313 8.6693 6.49383 8.61911 6.49461Z" fill="black"/>
</svg>
