<svg width="40" height="40" viewBox="0 0 40 40" fill="none" xmlns="http://www.w3.org/2000/svg">
<path d="M38.1957 0.000491922C37.7303 0.0114838 37.2881 0.206182 36.9657 0.542076L19.9999 17.5079L3.03407 0.542076C2.86978 0.372898 2.67323 0.238404 2.45603 0.146559C2.23884 0.0547145 2.00542 0.00738588 1.7696 0.00737647C1.41885 0.00746205 1.0761 0.112193 0.785205 0.308168C0.494309 0.504144 0.268496 0.782452 0.13666 1.10748C0.00482339 1.43252 -0.0270414 1.78949 0.0451415 2.13274C0.117324 2.47598 0.290273 2.78988 0.541859 3.03428L17.5077 20.0001L0.541859 36.9659C0.372715 37.1283 0.237674 37.3229 0.144647 37.5381C0.0516196 37.7533 0.00247509 37.985 9.11056e-05 38.2195C-0.00229287 38.4539 0.0421319 38.6865 0.130764 38.9036C0.219395 39.1207 0.350453 39.3179 0.51626 39.4837C0.682067 39.6495 0.879291 39.7806 1.09638 39.8692C1.31347 39.9579 1.54607 40.0023 1.78054 39.9999C2.01502 39.9975 2.24666 39.9484 2.4619 39.8554C2.67715 39.7623 2.87166 39.6273 3.03407 39.4581L19.9999 22.4923L36.9657 39.4581C37.1281 39.6273 37.3226 39.7623 37.5379 39.8554C37.7531 39.9484 37.9848 39.9975 38.2192 39.9999C38.4537 40.0023 38.6863 39.9579 38.9034 39.8692C39.1205 39.7806 39.3177 39.6495 39.4835 39.4837C39.6493 39.3179 39.7804 39.1207 39.869 38.9036C39.9576 38.6865 40.0021 38.4539 39.9997 38.2195C39.9973 37.985 39.9482 37.7533 39.8551 37.5381C39.7621 37.3229 39.6271 37.1283 39.4579 36.9659L22.4921 20.0001L39.4579 3.03428C39.7142 2.78829 39.8902 2.4706 39.9628 2.12286C40.0354 1.77512 40.0012 1.41355 39.8648 1.08556C39.7283 0.757576 39.4959 0.478473 39.1981 0.284845C38.9003 0.0912171 38.5509 -0.00789866 38.1957 0.000491922V0.000491922Z" fill="white"/>
</svg>
