<svg width="14" height="16" viewBox="0 0 14 16" fill="none" xmlns="http://www.w3.org/2000/svg">
<path d="M4.59375 0C3.2726 0 2.1875 1.04431 2.1875 2.31579V11.5789C2.1875 12.8504 3.2726 13.8947 4.59375 13.8947H11.5938C12.9149 13.8947 14 12.8504 14 11.5789V2.31579C14 1.04431 12.9149 0 11.5938 0H4.59375ZM4.59375 1.26316H11.5938C12.2055 1.26316 12.6875 1.72706 12.6875 2.31579V11.5789C12.6875 12.1677 12.2055 12.6316 11.5938 12.6316H4.59375C3.98203 12.6316 3.5 12.1677 3.5 11.5789V2.31579C3.5 1.72706 3.98203 1.26316 4.59375 1.26316ZM1.3125 2.10526L0.779297 2.44737C0.292359 2.75979 0 3.28574 0 3.84868V12C0 14.2093 1.86069 16 4.15625 16H10.001C10.5864 16 11.1328 15.7186 11.457 15.25L11.8125 14.7368H4.15625C2.58563 14.7368 1.3125 13.5116 1.3125 12V2.10526Z" fill="black"/>
</svg>
