<svg width="15" height="15" viewBox="0 0 15 15" fill="none" xmlns="http://www.w3.org/2000/svg">
<rect x="4" y="4" width="7" height="7" rx="1" fill="black"/>
<path d="M0.625 6.66667C0.97 6.66667 1.25 6.38667 1.25 6.04167V5.625C1.25 5.28 0.97 5 0.625 5C0.28 5 0 5.28 0 5.625V6.04167C0 6.38667 0.28 6.66667 0.625 6.66667ZM5.625 1.25H6.04167C6.38667 1.25 6.66667 0.97 6.66667 0.625C6.66667 0.28 6.38667 0 6.04167 0H5.625C5.28 0 5 0.28 5 0.625C5 0.97 5.28 1.25 5.625 1.25ZM1.25 9.375V8.95833C1.25 8.61333 0.97 8.33333 0.625 8.33333C0.28 8.33333 0 8.61333 0 8.95833V9.375C0 9.72 0.28 10 0.625 10C0.97 10 1.25 9.72 1.25 9.375ZM8.33333 0.625C8.33333 0.97 8.61333 1.25 8.95833 1.25H9.375C9.72 1.25 10 0.97 10 0.625C10 0.28 9.72 0 9.375 0H8.95833C8.61333 0 8.33333 0.28 8.33333 0.625ZM12.2917 1.25H12.7083C13.2837 1.25 13.75 1.71625 13.75 2.29167V2.70833C13.75 3.05333 14.03 3.33333 14.375 3.33333C14.72 3.33333 15 3.05333 15 2.70833V2.29167C15 1.02583 13.9742 0 12.7083 0H12.2917C11.9467 0 11.6667 0.28 11.6667 0.625C11.6667 0.97 11.9467 1.25 12.2917 1.25ZM6.66667 14.375C6.66667 14.03 6.38667 13.75 6.04167 13.75H5.625C5.28 13.75 5 14.03 5 14.375C5 14.72 5.28 15 5.625 15H6.04167C6.38667 15 6.66667 14.72 6.66667 14.375ZM1.25 2.70833V2.29167C1.25 1.71625 1.71625 1.25 2.29167 1.25H2.70833C3.05333 1.25 3.33333 0.97 3.33333 0.625C3.33333 0.28 3.05333 0 2.70833 0H2.29167C1.02583 0 0 1.02583 0 2.29167V2.70833C0 3.05333 0.28 3.33333 0.625 3.33333C0.97 3.33333 1.25 3.05333 1.25 2.70833ZM13.75 12.2917V12.7083C13.75 13.2837 13.2837 13.75 12.7083 13.75H12.2917C11.9467 13.75 11.6667 14.03 11.6667 14.375C11.6667 14.72 11.9467 15 12.2917 15H12.7083C13.9742 15 15 13.9742 15 12.7083V12.2917C15 11.9467 14.72 11.6667 14.375 11.6667C14.03 11.6667 13.75 11.9467 13.75 12.2917ZM2.70833 13.75H2.29167C1.71625 13.75 1.25 13.2837 1.25 12.7083V12.2917C1.25 11.9467 0.97 11.6667 0.625 11.6667C0.28 11.6667 0 11.9467 0 12.2917V12.7083C0 13.9742 1.02583 15 2.29167 15H2.70833C3.05333 15 3.33333 14.72 3.33333 14.375C3.33333 14.03 3.05333 13.75 2.70833 13.75ZM14.375 8.33333C14.03 8.33333 13.75 8.61333 13.75 8.95833V9.375C13.75 9.72 14.03 10 14.375 10C14.72 10 15 9.72 15 9.375V8.95833C15 8.61333 14.72 8.33333 14.375 8.33333ZM13.75 5.625V6.04167C13.75 6.38667 14.03 6.66667 14.375 6.66667C14.72 6.66667 15 6.38667 15 6.04167V5.625C15 5.28 14.72 5 14.375 5C14.03 5 13.75 5.28 13.75 5.625ZM9.375 13.75H8.95833C8.61333 13.75 8.33333 14.03 8.33333 14.375C8.33333 14.72 8.61333 15 8.95833 15H9.375C9.72 15 10 14.72 10 14.375C10 14.03 9.72 13.75 9.375 13.75Z" fill="black"/>
</svg>
