<svg width="19" height="7" viewBox="0 0 19 7" fill="none" xmlns="http://www.w3.org/2000/svg">
<path d="M2.9375 0.875C2.11719 0.875 1.41886 1.20625 0.970459 1.71069C0.522061 2.21514 0.3125 2.86198 0.3125 3.5C0.3125 4.13802 0.522061 4.78486 0.970459 5.28931C1.41886 5.79375 2.11719 6.125 2.9375 6.125C3.75781 6.125 4.45614 5.79375 4.90454 5.28931C5.35294 4.78486 5.5625 4.13802 5.5625 3.5C5.5625 2.86198 5.35294 2.21514 4.90454 1.71069C4.45614 1.20625 3.75781 0.875 2.9375 0.875ZM9.5 0.875C8.67969 0.875 7.98136 1.20625 7.53296 1.71069C7.08456 2.21514 6.875 2.86198 6.875 3.5C6.875 4.13802 7.08456 4.78486 7.53296 5.28931C7.98136 5.79375 8.67969 6.125 9.5 6.125C10.3203 6.125 11.0186 5.79375 11.467 5.28931C11.9154 4.78486 12.125 4.13802 12.125 3.5C12.125 2.86198 11.9154 2.21514 11.467 1.71069C11.0186 1.20625 10.3203 0.875 9.5 0.875ZM16.0625 0.875C15.2422 0.875 14.5439 1.20625 14.0955 1.71069C13.6471 2.21514 13.4375 2.86198 13.4375 3.5C13.4375 4.13802 13.6471 4.78486 14.0955 5.28931C14.5439 5.79375 15.2422 6.125 16.0625 6.125C16.8828 6.125 17.5811 5.79375 18.0295 5.28931C18.4779 4.78486 18.6875 4.13802 18.6875 3.5C18.6875 2.86198 18.4779 2.21514 18.0295 1.71069C17.5811 1.20625 16.8828 0.875 16.0625 0.875ZM2.9375 2.1875C3.42969 2.1875 3.71573 2.34844 3.92358 2.58228C4.13144 2.81611 4.25 3.15365 4.25 3.5C4.25 3.84635 4.13144 4.18389 3.92358 4.41772C3.71573 4.65156 3.42969 4.8125 2.9375 4.8125C2.44531 4.8125 2.15927 4.65156 1.95142 4.41772C1.74356 4.18389 1.625 3.84635 1.625 3.5C1.625 3.15365 1.74356 2.81611 1.95142 2.58228C2.15927 2.34844 2.44531 2.1875 2.9375 2.1875ZM9.5 2.1875C9.99219 2.1875 10.2782 2.34844 10.4861 2.58228C10.6939 2.81611 10.8125 3.15365 10.8125 3.5C10.8125 3.84635 10.6939 4.18389 10.4861 4.41772C10.2782 4.65156 9.99219 4.8125 9.5 4.8125C9.00781 4.8125 8.72177 4.65156 8.51392 4.41772C8.30606 4.18389 8.1875 3.84635 8.1875 3.5C8.1875 3.15365 8.30606 2.81611 8.51392 2.58228C8.72177 2.34844 9.00781 2.1875 9.5 2.1875ZM16.0625 2.1875C16.5547 2.1875 16.8407 2.34844 17.0486 2.58228C17.2564 2.81611 17.375 3.15365 17.375 3.5C17.375 3.84635 17.2564 4.18389 17.0486 4.41772C16.8407 4.65156 16.5547 4.8125 16.0625 4.8125C15.5703 4.8125 15.2843 4.65156 15.0764 4.41772C14.8686 4.18389 14.75 3.84635 14.75 3.5C14.75 3.15365 14.8686 2.81611 15.0764 2.58228C15.2843 2.34844 15.5703 2.1875 16.0625 2.1875Z" fill="#353535"/>
</svg>
