<svg width="4" height="14" viewBox="0 0 4 14" fill="none" xmlns="http://www.w3.org/2000/svg">
<path d="M4 2C4 1.375 3.74762 0.842938 3.36328 0.501302C2.97894 0.159666 2.48611 -6.61742e-08 2 -8.74228e-08C1.51389 -1.08671e-07 1.02106 0.159666 0.636719 0.501302C0.252378 0.842938 8.93571e-07 1.375 8.66252e-07 2C8.38932e-07 2.625 0.252378 3.15706 0.636719 3.4987C1.02106 3.84033 1.51389 4 2 4C2.48611 4 2.97894 3.84033 3.36328 3.4987C3.74762 3.15706 4 2.625 4 2ZM4 7C4 6.375 3.74762 5.84294 3.36328 5.5013C2.97894 5.15967 2.48611 5 2 5C1.51389 5 1.02106 5.15967 0.636719 5.5013C0.252378 5.84294 6.75014e-07 6.375 6.47695e-07 7C6.20375e-07 7.625 0.252378 8.15706 0.636719 8.4987C1.02106 8.84033 1.51389 9 2 9C2.48611 9 2.97894 8.84033 3.36328 8.4987C3.74762 8.15706 4 7.625 4 7ZM4 12C4 11.375 3.74762 10.8429 3.36328 10.5013C2.97894 10.1597 2.48611 10 2 10C1.51389 10 1.02106 10.1597 0.636719 10.5013C0.252378 10.8429 4.56457e-07 11.375 4.29138e-07 12C4.01818e-07 12.625 0.252378 13.1571 0.636719 13.4987C1.02106 13.8403 1.51389 14 2 14C2.48611 14 2.97894 13.8403 3.36328 13.4987C3.74762 13.1571 4 12.625 4 12ZM3 2C3 2.375 2.87738 2.59294 2.69922 2.7513C2.52106 2.90967 2.26389 3 2 3C1.73611 3 1.47894 2.90967 1.30078 2.7513C1.12262 2.59294 1 2.375 1 2C1 1.625 1.12262 1.40706 1.30078 1.2487C1.47894 1.09033 1.73611 1 2 1C2.26389 1 2.52106 1.09033 2.69922 1.2487C2.87738 1.40706 3 1.625 3 2ZM3 7C3 7.375 2.87738 7.59294 2.69922 7.7513C2.52106 7.90967 2.26389 8 2 8C1.73611 8 1.47894 7.90967 1.30078 7.7513C1.12262 7.59294 1 7.375 1 7C1 6.625 1.12262 6.40706 1.30078 6.2487C1.47894 6.09033 1.73611 6 2 6C2.26389 6 2.52106 6.09033 2.69922 6.2487C2.87738 6.40706 3 6.625 3 7ZM3 12C3 12.375 2.87738 12.5929 2.69922 12.7513C2.52106 12.9097 2.26389 13 2 13C1.73611 13 1.47894 12.9097 1.30078 12.7513C1.12262 12.5929 1 12.375 1 12C1 11.625 1.12262 11.4071 1.30078 11.2487C1.47894 11.0903 1.73611 11 2 11C2.26389 11 2.52106 11.0903 2.69922 11.2487C2.87738 11.4071 3 11.625 3 12Z" fill="black"/>
</svg>
