<svg width="15" height="12" viewBox="0 0 15 12" fill="none" xmlns="http://www.w3.org/2000/svg">
<path d="M1.6875 0C0.762187 0 0 0.762187 0 1.6875V10.3125C0 11.2378 0.762187 12 1.6875 12H13.3125C14.2378 12 15 11.2378 15 10.3125V3.5625C15 2.63719 14.2378 1.875 13.3125 1.875H7.51611L5.8396 0.478271C5.46902 0.169541 5.00219 0 4.51978 0H1.6875ZM1.6875 1.125H4.51978C4.73937 1.125 4.95096 1.20201 5.11963 1.34253L6.43359 2.4375L5.11963 3.53247C4.95096 3.67299 4.73937 3.75 4.51978 3.75H1.125V1.6875C1.125 1.37006 1.37006 1.125 1.6875 1.125ZM7.51611 3H13.3125C13.6299 3 13.875 3.24506 13.875 3.5625V10.3125C13.875 10.6299 13.6299 10.875 13.3125 10.875H1.6875C1.37006 10.875 1.125 10.6299 1.125 10.3125V4.875H4.51978C5.00219 4.875 5.46902 4.70546 5.8396 4.39673L7.51611 3Z" fill="#FAFF00"/>
</svg>
