<svg width="15" height="12" viewBox="0 0 15 12" fill="none" xmlns="http://www.w3.org/2000/svg">
<path d="M1.60752 0C0.726061 0 0 0.762187 0 1.6875V10.6523H0.00558165C-0.00481737 11.3538 0.538835 12 1.25099 12H11.6266C12.2946 12 12.8968 11.5624 13.1315 10.9058L14.9205 5.90625V5.90478C15.2262 5.06312 14.6108 4.125 13.7525 4.125H13.5746V3.5625C13.5746 2.63719 12.8485 1.875 11.9671 1.875H7.15986L5.56351 0.478271C5.56328 0.478271 5.56305 0.478271 5.56281 0.478271C5.20982 0.169541 4.76509 0 4.30555 0H1.60752ZM1.60752 1.125H4.30555C4.51473 1.125 4.71629 1.20201 4.87697 1.34253L6.62263 2.86963C6.71899 2.95392 6.84047 3.00005 6.9659 3H11.9671C12.2695 3 12.5029 3.24506 12.5029 3.5625V4.125H3.3769C2.70889 4.125 2.10664 4.56263 1.87195 5.21924L1.07168 7.45605V1.6875C1.07168 1.37006 1.30512 1.125 1.60752 1.125ZM3.3769 5.25H13.7525C13.8953 5.25 13.9702 5.36443 13.9192 5.50415C13.9188 5.50537 13.9183 5.50659 13.9178 5.50781L12.1282 10.5103C12.0493 10.7311 11.8516 10.875 11.6266 10.875H1.25099C1.10891 10.875 1.03366 10.7614 1.08354 10.6223C1.08377 10.6221 1.084 10.6218 1.08424 10.6216L2.87525 5.61475C2.9542 5.39386 3.15185 5.25 3.3769 5.25Z" fill="#FAFF00"/>
</svg>
