<svg width="39" height="38" viewBox="0 0 39 38" fill="none" xmlns="http://www.w3.org/2000/svg">
<path d="M0.676136 30.9091V36H1.11364V31.891H1.15341L2.87109 36H3.29368L5.01136 31.891H5.05114V36H5.48864V30.9091H4.9517L3.10476 35.3438H3.06001L1.21307 30.9091H0.676136ZM8.2342 36.0795C9.22354 36.0795 9.9146 35.2717 9.9146 34.1083C9.9146 32.9375 9.22354 32.1296 8.2342 32.1296C7.24485 32.1296 6.5538 32.9375 6.5538 34.1083C6.5538 35.2717 7.24485 36.0795 8.2342 36.0795ZM8.2342 35.6744C7.44123 35.6744 6.99876 34.9634 6.99876 34.1083C6.99876 33.2532 7.44123 32.5323 8.2342 32.5323C9.02717 32.5323 9.46964 33.2532 9.46964 34.1083C9.46964 34.9634 9.02717 35.6744 8.2342 35.6744ZM11.3284 33.6136C11.3284 32.9474 11.7659 32.5373 12.3675 32.5373C12.9541 32.5373 13.3319 32.93 13.3319 33.554V36H13.7744V33.5266C13.7744 32.6218 13.2499 32.1321 12.4793 32.1321C11.92 32.1321 11.5347 32.3906 11.3557 32.7809H11.316V32.1818H10.8859V36H11.3284V33.6136ZM16.4237 36.0795C17.413 36.0795 18.104 35.2717 18.104 34.1083C18.104 32.9375 17.413 32.1296 16.4237 32.1296C15.4343 32.1296 14.7433 32.9375 14.7433 34.1083C14.7433 35.2717 15.4343 36.0795 16.4237 36.0795ZM16.4237 35.6744C15.6307 35.6744 15.1882 34.9634 15.1882 34.1083C15.1882 33.2532 15.6307 32.5323 16.4237 32.5323C17.2166 32.5323 17.6591 33.2532 17.6591 34.1083C17.6591 34.9634 17.2166 35.6744 16.4237 35.6744ZM21.6407 33.0195C21.4543 32.4677 21.0466 32.1296 20.3481 32.1296C19.5775 32.1296 19.0182 32.5696 19.0182 33.1985C19.0182 33.7106 19.3289 34.0586 19.9926 34.2177L20.6166 34.3668C21.0367 34.4663 21.238 34.6825 21.238 34.9883C21.238 35.386 20.8577 35.6818 20.271 35.6818C19.749 35.6818 19.4234 35.4457 19.3165 34.9933L18.8914 35.0977C19.0257 35.734 19.5303 36.0795 20.2785 36.0795C21.1187 36.0795 21.6954 35.6172 21.6954 34.9684C21.6954 34.4588 21.3747 34.1183 20.7359 33.9616L20.1592 33.82C19.6844 33.7006 19.4632 33.5092 19.4632 33.1786C19.4632 32.7908 19.8335 32.5199 20.3481 32.5199C20.8627 32.5199 21.1162 32.7908 21.2355 33.1339L21.6407 33.0195ZM22.6568 37.4318H23.1017V35.2915H23.1415C23.2931 35.642 23.6213 36.0795 24.3148 36.0795C25.2495 36.0795 25.8858 35.2841 25.8858 34.1009C25.8858 32.9226 25.252 32.1296 24.3074 32.1296C23.6064 32.1296 23.2956 32.5671 23.1415 32.9102H23.0868V32.1818H22.6568V37.4318ZM23.0943 34.0934C23.0943 33.1786 23.5144 32.5323 24.2601 32.5323C25.0282 32.5323 25.4409 33.2134 25.4409 34.0934C25.4409 34.9833 25.0208 35.6744 24.2601 35.6744C23.5218 35.6744 23.0943 35.0156 23.0943 34.0934ZM27.9211 36.087C28.5574 36.087 28.9452 35.734 29.1043 35.396H29.1317V36H29.5741V33.4073C29.5741 32.3832 28.8035 32.1296 28.2194 32.1296C27.6352 32.1296 27.0336 32.3608 26.7751 32.9847L27.1952 33.1364C27.3344 32.8082 27.68 32.5273 28.2318 32.5273C28.811 32.5273 29.1317 32.8455 29.1317 33.3675V33.457C29.1317 33.7454 28.7737 33.7504 28.1324 33.8299C27.2698 33.9368 26.6657 34.1779 26.6657 34.9336C26.6657 35.6694 27.2275 36.087 27.9211 36.087ZM27.9807 35.6818C27.4811 35.6818 27.1082 35.4158 27.1082 34.9535C27.1082 34.4911 27.4861 34.2972 28.1324 34.2177C28.4456 34.1804 29.0024 34.1108 29.1317 33.984V34.5359C29.1317 35.1623 28.6867 35.6818 27.9807 35.6818ZM32.2426 36.0795C33.0381 36.0795 33.5974 35.5774 33.6993 34.8864H33.2519C33.1499 35.3736 32.7497 35.6744 32.2426 35.6744C31.4944 35.6744 30.9997 35.0231 30.9997 34.0934C30.9997 33.1687 31.5093 32.5323 32.2426 32.5323C32.787 32.5323 33.1549 32.8828 33.2494 33.3153H33.6968C33.5924 32.6069 33.0008 32.1296 32.2352 32.1296C31.2359 32.1296 30.5548 32.9599 30.5548 34.1083C30.5548 35.2468 31.216 36.0795 32.2426 36.0795ZM36.1913 36.0795C36.9569 36.0795 37.4715 35.6644 37.6455 35.1847L37.2254 35.0479C37.0787 35.391 36.7332 35.6744 36.1913 35.6744C35.4108 35.6744 34.9161 35.1051 34.8962 34.2227H37.74V34.0039C37.74 32.7287 36.952 32.1296 36.1242 32.1296C35.1349 32.1296 34.4513 32.9574 34.4513 34.1133C34.4513 35.2717 35.1224 36.0795 36.1913 36.0795ZM34.8987 33.8324C34.9459 33.1214 35.4257 32.5323 36.1242 32.5323C36.8078 32.5323 37.2876 33.0966 37.2876 33.8324H34.8987Z" fill="#979797"/>
<path d="M16.6377 15.6865L17.6484 19H19.2656L15.2051 6.20312H13.8428L9.71191 19H11.3379L12.3662 15.6865H16.6377ZM12.8057 14.2715L14.5195 8.7168L16.207 14.2715H12.8057ZM21.041 14.166V14.3506C21.041 15.0303 21.1289 15.666 21.3047 16.2578C21.4805 16.8438 21.7324 17.3535 22.0605 17.7871C22.3828 18.2207 22.7783 18.5605 23.2471 18.8066C23.7158 19.0527 24.2402 19.1758 24.8203 19.1758C25.166 19.1758 25.4883 19.1377 25.7871 19.0615C26.0859 18.9912 26.3584 18.8887 26.6045 18.7539C26.7627 18.666 26.9092 18.5635 27.0439 18.4463C27.1846 18.3291 27.3164 18.2002 27.4395 18.0596V18.877C27.4395 19.2871 27.3809 19.6504 27.2637 19.9668C27.1465 20.2832 26.9795 20.5469 26.7627 20.7578C26.54 20.9746 26.2734 21.1387 25.9629 21.25C25.6523 21.3613 25.3037 21.417 24.917 21.417C24.7002 21.417 24.4834 21.3936 24.2666 21.3467C24.0498 21.3057 23.833 21.2354 23.6162 21.1357C23.3994 21.0361 23.1855 20.9014 22.9746 20.7314C22.7637 20.5674 22.5586 20.3652 22.3594 20.125L21.5156 21.1006C21.7324 21.4111 21.9902 21.6719 22.2891 21.8828C22.5938 22.0938 22.9102 22.2607 23.2383 22.3838C23.5605 22.5127 23.8799 22.6035 24.1963 22.6562C24.5127 22.7148 24.7939 22.7441 25.04 22.7441C25.6377 22.7441 26.1826 22.6562 26.6748 22.4805C27.167 22.3047 27.5918 22.0469 27.9492 21.707C28.3008 21.3672 28.5732 20.9541 28.7666 20.4678C28.9658 19.9814 29.0654 19.4248 29.0654 18.7979V9.49023H27.5889L27.5098 10.5273C27.3984 10.3867 27.2783 10.2578 27.1494 10.1406C27.0264 10.0234 26.8945 9.9209 26.7539 9.83301C26.4961 9.66309 26.2061 9.53418 25.8838 9.44629C25.5674 9.3584 25.2188 9.31445 24.8379 9.31445C24.2461 9.31445 23.7158 9.43457 23.2471 9.6748C22.7783 9.91504 22.3799 10.249 22.0518 10.6768C21.7236 11.1045 21.4717 11.6172 21.2959 12.2148C21.126 12.8066 21.041 13.457 21.041 14.166ZM22.667 14.3506V14.166C22.667 13.7031 22.7139 13.2637 22.8076 12.8477C22.9072 12.4258 23.0625 12.0537 23.2734 11.7314C23.4785 11.415 23.7422 11.1631 24.0645 10.9756C24.3926 10.7881 24.7852 10.6943 25.2422 10.6943C25.5117 10.6943 25.7578 10.7295 25.9805 10.7998C26.2031 10.8643 26.4053 10.9551 26.5869 11.0723C26.7686 11.1953 26.9297 11.3389 27.0703 11.5029C27.2109 11.667 27.334 11.8486 27.4395 12.0479V16.4072C27.334 16.6123 27.2109 16.7998 27.0703 16.9697C26.9297 17.1396 26.7715 17.2861 26.5957 17.4092C26.4141 17.5322 26.209 17.6289 25.9805 17.6992C25.7578 17.7637 25.5059 17.7959 25.2246 17.7959C24.7734 17.7959 24.3867 17.7051 24.0645 17.5234C23.7422 17.3359 23.4785 17.084 23.2734 16.7676C23.0625 16.4512 22.9072 16.085 22.8076 15.6689C22.7139 15.2529 22.667 14.8135 22.667 14.3506Z" fill="black"/>
</svg>
