<svg width="25" height="38" viewBox="0 0 25 38" fill="none" xmlns="http://www.w3.org/2000/svg">
<path d="M0.676136 36H1.14098V33.9418H2.3267C2.39382 33.9418 2.45845 33.9393 2.5206 33.9343L3.63672 36H4.17365L2.99787 33.8448C3.63175 33.636 3.95987 33.114 3.95987 32.4329C3.95987 31.543 3.40057 30.9091 2.31925 30.9091H0.676136V36ZM1.14098 33.5167V31.3267H2.30682C3.11222 31.3267 3.50249 31.7667 3.50249 32.4329C3.50249 33.0991 3.11222 33.5167 2.31428 33.5167H1.14098ZM6.50284 36.0795C7.26847 36.0795 7.78303 35.6644 7.95703 35.1847L7.53693 35.0479C7.39027 35.391 7.04474 35.6744 6.50284 35.6744C5.7223 35.6744 5.22763 35.1051 5.20774 34.2227H8.05149V34.0039C8.05149 32.7287 7.26349 32.1296 6.43572 32.1296C5.44638 32.1296 4.76278 32.9574 4.76278 34.1133C4.76278 35.2717 5.43395 36.0795 6.50284 36.0795ZM5.21023 33.8324C5.25746 33.1214 5.73722 32.5323 6.43572 32.5323C7.11932 32.5323 7.59908 33.0966 7.59908 33.8324H5.21023ZM10.4832 37.5114C11.3881 37.5114 12.0592 37.0689 12.0592 36.0994V32.1818H11.6267V32.9102H11.5819C11.4253 32.5671 11.1096 32.1296 10.4086 32.1296C9.46404 32.1296 8.83017 32.9201 8.83017 34.081C8.83017 35.2518 9.48642 35.9602 10.4012 35.9602C11.0873 35.9602 11.4229 35.5625 11.5745 35.212H11.6143V36.0721C11.6143 36.783 11.1594 37.1136 10.4832 37.1136C9.82946 37.1136 9.51625 36.7979 9.35467 36.5071L8.99174 36.7457C9.21547 37.1832 9.70268 37.5114 10.4832 37.5114ZM10.4534 35.555C9.69522 35.555 9.27512 34.9485 9.27512 34.0735C9.27512 33.2134 9.68777 32.5323 10.4534 32.5323C11.2016 32.5323 11.6217 33.1786 11.6217 34.0735C11.6217 34.9957 11.1892 35.555 10.4534 35.555ZM15.6568 34.5408C15.6568 35.2418 15.1298 35.6197 14.6127 35.6197C14.0609 35.6197 13.6731 35.2244 13.6731 34.6278V32.1818H13.2306V34.6552C13.2306 35.56 13.7527 36.0497 14.486 36.0497C15.0453 36.0497 15.443 35.7589 15.622 35.3661H15.6568V36H16.0993V32.1818H15.6568V34.5408ZM17.7132 30.9091H17.2707V36H17.7132V30.9091ZM19.9504 36.087C20.5867 36.087 20.9745 35.734 21.1336 35.396H21.161V36H21.6034V33.4073C21.6034 32.3832 20.8328 32.1296 20.2487 32.1296C19.6645 32.1296 19.0629 32.3608 18.8044 32.9847L19.2245 33.1364C19.3637 32.8082 19.7093 32.5273 20.2611 32.5273C20.8403 32.5273 21.161 32.8455 21.161 33.3675V33.457C21.161 33.7454 20.803 33.7504 20.1617 33.8299C19.2991 33.9368 18.695 34.1779 18.695 34.9336C18.695 35.6694 19.2568 36.087 19.9504 36.087ZM20.01 35.6818C19.5104 35.6818 19.1375 35.4158 19.1375 34.9535C19.1375 34.4911 19.5154 34.2972 20.1617 34.2177C20.4749 34.1804 21.0317 34.1108 21.161 33.984V34.5359C21.161 35.1623 20.716 35.6818 20.01 35.6818ZM22.7805 36H23.2229V33.5341C23.2229 32.9673 23.6579 32.5572 24.2545 32.5572C24.3714 32.5572 24.4807 32.5771 24.5205 32.582V32.1321C24.4608 32.1296 24.3589 32.1246 24.2868 32.1246C23.8071 32.1246 23.3969 32.3832 23.2428 32.7685H23.2105V32.1818H22.7805V36Z" fill="#979797"/>
<path d="M3.12216 18L4.43892 14.2926H9.73153L11.0483 18H12.7102L7.90341 4.90909H6.26705L1.46023 18H3.12216ZM4.9375 12.8864L7.03409 6.98011H7.13636L9.23295 12.8864H4.9375ZM18.5078 21.8864C20.8601 21.8864 22.7521 20.8125 22.7521 18.2812V8.18182H21.2947V9.74148H21.1413C20.8089 9.23011 20.1953 8.05398 18.2777 8.05398C15.7976 8.05398 14.0845 10.0227 14.0845 13.0398C14.0845 16.108 15.8743 17.8466 18.2521 17.8466C20.1697 17.8466 20.7834 16.7216 21.1158 16.1847H21.2436V18.179C21.2436 19.8153 20.093 20.5568 18.5078 20.5568C16.7244 20.5568 16.098 19.6172 15.6953 19.0739L14.4936 19.9176C15.1072 20.9467 16.3153 21.8864 18.5078 21.8864ZM18.4567 16.4915C16.5646 16.4915 15.593 15.0597 15.593 13.0142C15.593 11.0199 16.5391 9.40909 18.4567 9.40909C20.2976 9.40909 21.2692 10.892 21.2692 13.0142C21.2692 15.1875 20.272 16.4915 18.4567 16.4915Z" fill="black"/>
</svg>
