<svg width="33" height="37" viewBox="0 0 33 37" fill="none" xmlns="http://www.w3.org/2000/svg">
<path d="M3.44034 32.1818H3.89027C3.85547 31.4087 3.18679 30.837 2.2397 30.837C1.30007 30.837 0.576705 31.4013 0.576705 32.2216C0.576705 32.8754 1.03906 33.2855 1.837 33.5217L2.44602 33.7006C3.07741 33.8846 3.50994 34.1207 3.50994 34.6403C3.50994 35.2518 2.95561 35.6619 2.19496 35.6619C1.50888 35.6619 0.971946 35.3313 0.92223 34.7273H0.444957C0.499645 35.5327 1.15589 36.087 2.19496 36.087C3.29865 36.087 3.95987 35.4631 3.95987 34.6477C3.95987 33.8026 3.22408 33.4645 2.57777 33.283L2.04084 33.1289C1.54616 32.9897 1.02663 32.7386 1.02663 32.2017C1.02663 31.6548 1.51634 31.2546 2.22727 31.2546C2.90092 31.2546 3.38317 31.6151 3.44034 32.1818ZM6.05291 36.087C6.68928 36.087 7.07706 35.734 7.23615 35.396H7.26349V36H7.70597V33.4073C7.70597 32.3832 6.93537 32.1296 6.35121 32.1296C5.76705 32.1296 5.16548 32.3608 4.90696 32.9847L5.32706 33.1364C5.46626 32.8082 5.81179 32.5273 6.36364 32.5273C6.94283 32.5273 7.26349 32.8455 7.26349 33.3675V33.457C7.26349 33.7454 6.90554 33.7504 6.2642 33.8299C5.40163 33.9368 4.79759 34.1779 4.79759 34.9336C4.79759 35.6694 5.35938 36.087 6.05291 36.087ZM6.11257 35.6818C5.61293 35.6818 5.24006 35.4158 5.24006 34.9535C5.24006 34.4911 5.6179 34.2972 6.2642 34.2177C6.57741 34.1804 7.13423 34.1108 7.26349 33.984V34.5359C7.26349 35.1623 6.81854 35.6818 6.11257 35.6818ZM9.32546 33.6136C9.32546 32.9474 9.76296 32.5373 10.3645 32.5373C10.9512 32.5373 11.329 32.93 11.329 33.554V36H11.7715V33.5266C11.7715 32.6218 11.247 32.1321 10.4764 32.1321C9.91708 32.1321 9.53178 32.3906 9.35281 32.7809H9.31303V32.1818H8.88299V36H9.32546V33.6136ZM15.502 33.0195C15.3156 32.4677 14.9079 32.1296 14.2094 32.1296C13.4388 32.1296 12.8795 32.5696 12.8795 33.1985C12.8795 33.7106 13.1903 34.0586 13.854 34.2177L14.4779 34.3668C14.898 34.4663 15.0993 34.6825 15.0993 34.9883C15.0993 35.386 14.719 35.6818 14.1324 35.6818C13.6104 35.6818 13.2847 35.4457 13.1778 34.9933L12.7528 35.0977C12.887 35.734 13.3916 36.0795 14.1398 36.0795C14.98 36.0795 15.5567 35.6172 15.5567 34.9684C15.5567 34.4588 15.2361 34.1183 14.5972 33.9616L14.0205 33.82C13.5457 33.7006 13.3245 33.5092 13.3245 33.1786C13.3245 32.7908 13.6949 32.5199 14.2094 32.5199C14.724 32.5199 14.9775 32.7908 15.0969 33.1339L15.502 33.0195ZM21.0597 33.0195C20.8732 32.4677 20.4656 32.1296 19.767 32.1296C18.9964 32.1296 18.4371 32.5696 18.4371 33.1985C18.4371 33.7106 18.7479 34.0586 19.4116 34.2177L20.0355 34.3668C20.4556 34.4663 20.657 34.6825 20.657 34.9883C20.657 35.386 20.2766 35.6818 19.69 35.6818C19.168 35.6818 18.8423 35.4457 18.7354 34.9933L18.3104 35.0977C18.4446 35.734 18.9492 36.0795 19.6974 36.0795C20.5376 36.0795 21.1143 35.6172 21.1143 34.9684C21.1143 34.4588 20.7937 34.1183 20.1548 33.9616L19.5781 33.82C19.1033 33.7006 18.8821 33.5092 18.8821 33.1786C18.8821 32.7908 19.2525 32.5199 19.767 32.5199C20.2816 32.5199 20.5352 32.7908 20.6545 33.1339L21.0597 33.0195ZM23.6269 36.0795C24.3925 36.0795 24.907 35.6644 25.0811 35.1847L24.661 35.0479C24.5143 35.391 24.1688 35.6744 23.6269 35.6744C22.8463 35.6744 22.3517 35.1051 22.3318 34.2227H25.1755V34.0039C25.1755 32.7287 24.3875 32.1296 23.5597 32.1296C22.5704 32.1296 21.8868 32.9574 21.8868 34.1133C21.8868 35.2717 22.558 36.0795 23.6269 36.0795ZM22.3343 33.8324C22.3815 33.1214 22.8612 32.5323 23.5597 32.5323C24.2433 32.5323 24.7231 33.0966 24.7231 33.8324H22.3343ZM26.1506 36H26.593V33.5341C26.593 32.9673 27.0281 32.5572 27.6246 32.5572C27.7415 32.5572 27.8509 32.5771 27.8906 32.582V32.1321C27.831 32.1296 27.729 32.1246 27.657 32.1246C27.1772 32.1246 26.767 32.3832 26.6129 32.7685H26.5806V32.1818H26.1506V36ZM28.6507 36H29.0956V32.1818H28.6507V36ZM28.8769 31.5256C29.0583 31.5256 29.21 31.3814 29.21 31.2074C29.21 31.0334 29.0583 30.8892 28.8769 30.8892C28.6954 30.8892 28.5463 31.0334 28.5463 31.2074C28.5463 31.3814 28.6954 31.5256 28.8769 31.5256ZM31.8368 32.1818H30.9917V31.7145C30.9917 31.3143 31.2079 31.0906 31.5932 31.0906C31.7399 31.0906 31.8294 31.1229 31.8965 31.1452L32.0257 30.7575C31.9363 30.7202 31.7871 30.6729 31.5534 30.6729C31.0339 30.6729 30.5467 31.006 30.5467 31.6225V32.1818H29.96V32.5671H30.5467V36H30.9892L30.9917 32.5671H31.8368V32.1818Z" fill="#979797"/>
<path d="M10.22 4.518H12.2L16.574 16.938L17.69 17.118V18H12.938V17.118L14.432 16.938L13.586 14.274H8.33L7.484 16.938L9.032 17.118V18H4.766V17.118L5.882 16.938L10.22 4.518ZM11.354 7.398L10.904 5.814L10.472 7.434L8.654 13.212H13.244L11.354 7.398ZM22.5749 22.86C21.0389 22.86 19.9229 22.614 19.2269 22.122C18.5429 21.642 18.2009 20.976 18.2009 20.124C18.2009 19.596 18.3629 19.11 18.6869 18.666C19.0229 18.222 19.4189 17.886 19.8749 17.658C19.3229 17.346 19.0469 16.842 19.0469 16.146C19.0469 15.714 19.1729 15.306 19.4249 14.922C19.6769 14.538 20.0069 14.244 20.4149 14.04C19.8149 13.776 19.3529 13.398 19.0289 12.906C18.7169 12.414 18.5609 11.832 18.5609 11.16C18.5609 10.464 18.7529 9.858 19.1369 9.342C19.5329 8.826 20.0489 8.43 20.6849 8.154C21.3329 7.878 22.0169 7.74 22.7369 7.74C23.9489 7.74 24.8969 7.992 25.5809 8.496C25.7609 8.316 26.0369 8.142 26.4089 7.974C26.7809 7.806 27.1769 7.722 27.5969 7.722H28.2089V9.306H26.2289C26.5169 9.75 26.6609 10.266 26.6609 10.854C26.6609 11.562 26.4809 12.192 26.1209 12.744C25.7729 13.284 25.2809 13.704 24.6449 14.004C24.0209 14.304 23.3129 14.454 22.5209 14.454C22.0049 14.454 21.5429 14.4 21.1349 14.292C20.9669 14.46 20.8289 14.646 20.7209 14.85C20.6129 15.054 20.5589 15.252 20.5589 15.444C20.5589 15.876 20.7029 16.176 20.9909 16.344C21.2789 16.5 21.7949 16.578 22.5389 16.578H24.5729C25.7369 16.578 26.6009 16.8 27.1649 17.244C27.7289 17.688 28.0109 18.318 28.0109 19.134C28.0109 19.818 27.7649 20.442 27.2729 21.006C26.7809 21.582 26.1149 22.032 25.2749 22.356C24.4469 22.692 23.5469 22.86 22.5749 22.86ZM22.7009 13.464C24.0689 13.464 24.7529 12.654 24.7529 11.034C24.7529 10.23 24.5729 9.642 24.2129 9.27C23.8649 8.886 23.3369 8.694 22.6289 8.694C21.9689 8.694 21.4469 8.88 21.0629 9.252C20.6789 9.612 20.4869 10.194 20.4869 10.998C20.4869 11.754 20.6669 12.354 21.0269 12.798C21.3989 13.242 21.9569 13.464 22.7009 13.464ZM22.7369 21.816C23.3249 21.816 23.8769 21.726 24.3929 21.546C24.9209 21.378 25.3469 21.12 25.6709 20.772C25.9949 20.436 26.1569 20.04 26.1569 19.584C26.1569 19.044 26.0129 18.648 25.7249 18.396C25.4369 18.156 24.8789 18.036 24.0509 18.036H21.9269C21.4469 18.036 21.0689 18.006 20.7929 17.946C20.3009 18.486 20.0549 19.092 20.0549 19.764C20.0549 20.436 20.2589 20.946 20.6669 21.294C21.0749 21.642 21.7649 21.816 22.7369 21.816Z" fill="#21afff"/>
</svg>
