<svg width="15" height="15" viewBox="0 0 15 15" fill="none" xmlns="http://www.w3.org/2000/svg">
<path d="M2.29167 0C1.02583 0 0 1.02583 0 2.29167V2.70833C0 3.05333 0.28 3.33333 0.625 3.33333C0.97 3.33333 1.25 3.05333 1.25 2.70833V2.29167C1.25 1.71625 1.71625 1.25 2.29167 1.25H2.70833C3.05333 1.25 3.33333 0.97 3.33333 0.625C3.33333 0.28 3.05333 0 2.70833 0H2.29167ZM5.625 0C5.28 0 5 0.28 5 0.625C5 0.97 5.28 1.25 5.625 1.25H6.04167C6.38667 1.25 6.66667 0.97 6.66667 0.625C6.66667 0.28 6.38667 0 6.04167 0H5.625ZM8.95833 0C8.61333 0 8.33333 0.28 8.33333 0.625C8.33333 0.97 8.61333 1.25 8.95833 1.25H9.375C9.72 1.25 10 0.97 10 0.625C10 0.28 9.72 0 9.375 0H8.95833ZM12.2917 0C11.9467 0 11.6667 0.28 11.6667 0.625C11.6667 0.97 11.9467 1.25 12.2917 1.25H12.7083C13.2837 1.25 13.75 1.71625 13.75 2.29167V2.70833C13.75 3.05333 14.03 3.33333 14.375 3.33333C14.72 3.33333 15 3.05333 15 2.70833V2.29167C15 1.02583 13.9742 0 12.7083 0H12.2917ZM3.95833 4.16667C3.87551 4.1655 3.79329 4.1808 3.71643 4.21168C3.63958 4.24256 3.56963 4.28841 3.51064 4.34657C3.45166 4.40472 3.40483 4.47401 3.37286 4.55043C3.34089 4.62684 3.32443 4.70884 3.32443 4.79167C3.32443 4.87449 3.34089 4.9565 3.37286 5.03291C3.40483 5.10932 3.45166 5.17861 3.51064 5.23677C3.56963 5.29492 3.63958 5.34077 3.71643 5.37165C3.79329 5.40254 3.87551 5.41784 3.95833 5.41667H11.4583C11.5412 5.41784 11.6234 5.40254 11.7002 5.37165C11.7771 5.34077 11.847 5.29492 11.906 5.23677C11.965 5.17861 12.0118 5.10932 12.0438 5.03291C12.0758 4.9565 12.0922 4.87449 12.0922 4.79167C12.0922 4.70884 12.0758 4.62684 12.0438 4.55043C12.0118 4.47401 11.965 4.40472 11.906 4.34657C11.847 4.28841 11.7771 4.24256 11.7002 4.21168C11.6234 4.1808 11.5412 4.1655 11.4583 4.16667H3.95833ZM0.625 5C0.28 5 0 5.28 0 5.625V6.04167C0 6.38667 0.28 6.66667 0.625 6.66667C0.97 6.66667 1.25 6.38667 1.25 6.04167V5.625C1.25 5.28 0.97 5 0.625 5ZM14.375 5C14.03 5 13.75 5.28 13.75 5.625V6.04167C13.75 6.38667 14.03 6.66667 14.375 6.66667C14.72 6.66667 15 6.38667 15 6.04167V5.625C15 5.28 14.72 5 14.375 5ZM3.95833 7.08333C3.87551 7.08216 3.79329 7.09746 3.71643 7.12835C3.63958 7.15923 3.56963 7.20508 3.51064 7.26323C3.45166 7.32139 3.40483 7.39068 3.37286 7.46709C3.34089 7.5435 3.32443 7.6255 3.32443 7.70833C3.32443 7.79116 3.34089 7.87316 3.37286 7.94957C3.40483 8.02599 3.45166 8.09528 3.51064 8.15343C3.56963 8.21159 3.63958 8.25744 3.71643 8.28832C3.79329 8.3192 3.87551 8.3345 3.95833 8.33333H9.375C9.45782 8.3345 9.54005 8.3192 9.6169 8.28832C9.69376 8.25744 9.76371 8.21159 9.82269 8.15343C9.88167 8.09528 9.92851 8.02599 9.96047 7.94957C9.99244 7.87316 10.0089 7.79116 10.0089 7.70833C10.0089 7.6255 9.99244 7.5435 9.96047 7.46709C9.92851 7.39068 9.88167 7.32139 9.82269 7.26323C9.76371 7.20508 9.69376 7.15923 9.6169 7.12835C9.54005 7.09746 9.45782 7.08216 9.375 7.08333H3.95833ZM0.625 8.33333C0.28 8.33333 0 8.61333 0 8.95833V9.375C0 9.72 0.28 10 0.625 10C0.97 10 1.25 9.72 1.25 9.375V8.95833C1.25 8.61333 0.97 8.33333 0.625 8.33333ZM14.375 8.33333C14.03 8.33333 13.75 8.61333 13.75 8.95833V9.375C13.75 9.72 14.03 10 14.375 10C14.72 10 15 9.72 15 9.375V8.95833C15 8.61333 14.72 8.33333 14.375 8.33333ZM3.95833 10C3.87551 9.99883 3.79329 10.0141 3.71643 10.045C3.63958 10.0759 3.56963 10.1217 3.51064 10.1799C3.45166 10.2381 3.40483 10.3073 3.37286 10.3838C3.34089 10.4602 3.32443 10.5422 3.32443 10.625C3.32443 10.7078 3.34089 10.7898 3.37286 10.8662C3.40483 10.9427 3.45166 11.0119 3.51064 11.0701C3.56963 11.1283 3.63958 11.1741 3.71643 11.205C3.79329 11.2359 3.87551 11.2512 3.95833 11.25H11.4583C11.5412 11.2512 11.6234 11.2359 11.7002 11.205C11.7771 11.1741 11.847 11.1283 11.906 11.0701C11.965 11.0119 12.0118 10.9427 12.0438 10.8662C12.0758 10.7898 12.0922 10.7078 12.0922 10.625C12.0922 10.5422 12.0758 10.4602 12.0438 10.3838C12.0118 10.3073 11.965 10.2381 11.906 10.1799C11.847 10.1217 11.7771 10.0759 11.7002 10.045C11.6234 10.0141 11.5412 9.99883 11.4583 10H3.95833ZM0.625 11.6667C0.28 11.6667 0 11.9467 0 12.2917V12.7083C0 13.9742 1.02583 15 2.29167 15H2.70833C3.05333 15 3.33333 14.72 3.33333 14.375C3.33333 14.03 3.05333 13.75 2.70833 13.75H2.29167C1.71625 13.75 1.25 13.2837 1.25 12.7083V12.2917C1.25 11.9467 0.97 11.6667 0.625 11.6667ZM14.375 11.6667C14.03 11.6667 13.75 11.9467 13.75 12.2917V12.7083C13.75 13.2837 13.2837 13.75 12.7083 13.75H12.2917C11.9467 13.75 11.6667 14.03 11.6667 14.375C11.6667 14.72 11.9467 15 12.2917 15H12.7083C13.9742 15 15 13.9742 15 12.7083V12.2917C15 11.9467 14.72 11.6667 14.375 11.6667ZM5.625 13.75C5.28 13.75 5 14.03 5 14.375C5 14.72 5.28 15 5.625 15H6.04167C6.38667 15 6.66667 14.72 6.66667 14.375C6.66667 14.03 6.38667 13.75 6.04167 13.75H5.625ZM8.95833 13.75C8.61333 13.75 8.33333 14.03 8.33333 14.375C8.33333 14.72 8.61333 15 8.95833 15H9.375C9.72 15 10 14.72 10 14.375C10 14.03 9.72 13.75 9.375 13.75H8.95833Z" fill="black"/>
</svg>
