<svg width="13" height="13" viewBox="0 0 13 13" fill="none" xmlns="http://www.w3.org/2000/svg">
<path d="M1.98615 5.41705e-05C0.895685 5.41705e-05 5.57985e-05 0.895684 5.57985e-05 1.98615V4.1528C-0.000959302 4.22457 0.0123012 4.29584 0.0390668 4.36244C0.0658323 4.42905 0.105569 4.48967 0.155968 4.54079C0.206366 4.59191 0.266422 4.6325 0.332644 4.6602C0.398866 4.68791 0.469934 4.70217 0.541718 4.70217C0.613502 4.70217 0.68457 4.68791 0.750792 4.6602C0.817014 4.6325 0.877069 4.59191 0.927468 4.54079C0.977867 4.48967 1.0176 4.42905 1.04437 4.36244C1.07113 4.29584 1.08439 4.22457 1.08338 4.1528V1.98615C1.08338 1.48124 1.48124 1.08338 1.98615 1.08338H4.1528C4.22457 1.08439 4.29584 1.07113 4.36244 1.04437C4.42905 1.0176 4.48968 0.977865 4.54079 0.927466C4.59191 0.877068 4.6325 0.817012 4.6602 0.75079C4.68791 0.684568 4.70217 0.6135 4.70217 0.541716C4.70217 0.469932 4.68791 0.398864 4.6602 0.332642C4.6325 0.26642 4.59191 0.206365 4.54079 0.155966C4.48968 0.105567 4.42905 0.0658307 4.36244 0.0390651C4.29584 0.0122996 4.22457 -0.00096093 4.1528 5.41705e-05H1.98615ZM8.8472 5.41705e-05C8.77543 -0.00096093 8.70416 0.0122996 8.63756 0.0390651C8.57095 0.0658307 8.51032 0.105567 8.45921 0.155966C8.40809 0.206365 8.3675 0.26642 8.3398 0.332642C8.31209 0.398864 8.29783 0.469932 8.29783 0.541716C8.29783 0.6135 8.31209 0.684568 8.3398 0.75079C8.3675 0.817012 8.40809 0.877068 8.45921 0.927466C8.51032 0.977865 8.57095 1.0176 8.63756 1.04437C8.70416 1.07113 8.77543 1.08439 8.8472 1.08338H11.0138C11.5188 1.08338 11.9166 1.48124 11.9166 1.98615V4.1528C11.9156 4.22457 11.9289 4.29584 11.9556 4.36244C11.9824 4.42905 12.0221 4.48967 12.0725 4.54079C12.1229 4.59191 12.183 4.6325 12.2492 4.6602C12.3154 4.68791 12.3865 4.70217 12.4583 4.70217C12.5301 4.70217 12.6011 4.68791 12.6674 4.6602C12.7336 4.6325 12.7936 4.59191 12.844 4.54079C12.8944 4.48967 12.9342 4.42905 12.9609 4.36244C12.9877 4.29584 13.001 4.22457 12.9999 4.1528V1.98615C12.9999 0.895684 12.1043 5.41705e-05 11.0138 5.41705e-05H8.8472ZM0.533254 8.29778C0.38972 8.30002 0.252944 8.35915 0.152969 8.46216C0.0529947 8.56518 -0.00200321 8.70367 5.57985e-05 8.8472V11.0139C5.57985e-05 12.1043 0.895685 12.9999 1.98615 12.9999H4.1528C4.22457 13.001 4.29584 12.9877 4.36244 12.9609C4.42905 12.9342 4.48968 12.8944 4.54079 12.844C4.59191 12.7936 4.6325 12.7336 4.6602 12.6674C4.68791 12.6011 4.70217 12.5301 4.70217 12.4583C4.70217 12.3865 4.68791 12.3154 4.6602 12.2492C4.6325 12.183 4.59191 12.1229 4.54079 12.0725C4.48968 12.0221 4.42905 11.9824 4.36244 11.9556C4.29584 11.9289 4.22457 11.9156 4.1528 11.9166H1.98615C1.48124 11.9166 1.08338 11.5188 1.08338 11.0139V8.8472C1.08442 8.7747 1.0709 8.70274 1.04361 8.63556C1.01632 8.56839 0.975827 8.50737 0.924525 8.45614C0.873223 8.4049 0.812157 8.36448 0.744947 8.33728C0.677738 8.31008 0.605751 8.29665 0.533254 8.29778ZM12.4498 8.29778C12.3063 8.30002 12.1695 8.35915 12.0695 8.46216C11.9696 8.56518 11.9146 8.70367 11.9166 8.8472V11.0139C11.9166 11.5188 11.5188 11.9166 11.0138 11.9166H8.8472C8.77543 11.9156 8.70416 11.9289 8.63756 11.9556C8.57095 11.9824 8.51032 12.0221 8.45921 12.0725C8.40809 12.1229 8.3675 12.183 8.3398 12.2492C8.31209 12.3154 8.29783 12.3865 8.29783 12.4583C8.29783 12.5301 8.31209 12.6011 8.3398 12.6674C8.3675 12.7336 8.40809 12.7936 8.45921 12.844C8.51032 12.8944 8.57095 12.9342 8.63756 12.9609C8.70416 12.9877 8.77543 13.001 8.8472 12.9999H11.0138C12.1043 12.9999 12.9999 12.1043 12.9999 11.0139V8.8472C13.001 8.7747 12.9875 8.70274 12.9602 8.63556C12.9329 8.56839 12.8924 8.50737 12.8411 8.45614C12.7898 8.4049 12.7287 8.36448 12.6615 8.33728C12.5943 8.31008 12.5223 8.29665 12.4498 8.29778V8.29778Z" fill="black"/>
</svg>
