<svg width="40" height="40" viewBox="0 0 40 40" fill="none" xmlns="http://www.w3.org/2000/svg">
<path d="M20 0C8.97207 0 0 8.97207 0 20C0 31.0279 8.97207 40 20 40C31.0279 40 40 31.0279 40 20C40 8.97207 31.0279 0 20 0ZM20 3C20.7325 3 21.4764 3.30491 22.293 4.05664C23.1096 4.80837 23.9378 6.00251 24.6465 7.54492C25.2165 8.78552 25.6369 10.3763 26.0215 12H13.9785C14.3631 10.3763 14.7835 8.78552 15.3535 7.54492C16.0622 6.00251 16.8904 4.80837 17.707 4.05664C18.5236 3.30491 19.2675 3 20 3ZM13.7773 4.1875C13.3638 4.83736 12.9762 5.53288 12.627 6.29297C11.8659 7.94929 11.2949 9.90982 10.8516 12H4.99609C6.88743 8.45193 10.0003 5.67046 13.7773 4.1875ZM26.2227 4.1875C29.9997 5.67046 33.1126 8.45193 35.0039 12H29.1484C28.7051 9.90982 28.1341 7.94929 27.373 6.29297C27.0238 5.53288 26.6362 4.83736 26.2227 4.1875ZM3.74805 15H10.4609C10.2554 16.6322 10 18.2318 10 20C10 21.7682 10.2554 23.3678 10.4609 25H3.74805C3.26433 23.4197 3 21.7412 3 20C3 18.2588 3.26433 16.5803 3.74805 15ZM13.4668 15H26.5332C26.7562 16.6134 27 18.2206 27 20C27 21.7794 26.7562 23.3866 26.5332 25H13.4668C13.2438 23.3866 13 21.7794 13 20C13 18.2206 13.2438 16.6134 13.4668 15ZM29.5391 15H36.252C36.7357 16.5803 37 18.2588 37 20C37 21.7412 36.7357 23.4197 36.252 25H29.5391C29.7446 23.3678 30 21.7682 30 20C30 18.2318 29.7446 16.6322 29.5391 15ZM4.99609 28H10.8516C11.2949 30.0902 11.8659 32.0507 12.627 33.707C12.9762 34.4671 13.3638 35.1626 13.7773 35.8125C10.0003 34.3295 6.88743 31.5481 4.99609 28ZM13.9785 28H26.0215C25.6369 29.6237 25.2165 31.2145 24.6465 32.4551C23.9378 33.9975 23.1096 35.1916 22.293 35.9434C21.4764 36.6951 20.7325 37 20 37C19.2675 37 18.5236 36.6951 17.707 35.9434C16.8904 35.1916 16.0622 33.9975 15.3535 32.4551C14.7835 31.2145 14.3631 29.6237 13.9785 28ZM29.1484 28H35.0039C33.1126 31.5481 29.9997 34.3295 26.2227 35.8125C26.6362 35.1626 27.0238 34.4671 27.373 33.707C28.1341 32.0507 28.7051 30.0902 29.1484 28Z" fill="#91908f"/>
</svg>
