<svg width="16" height="14" viewBox="0 0 16 14" fill="none" xmlns="http://www.w3.org/2000/svg">
<path d="M1.71429 0C0.772321 0 0 0.788411 0 1.75V12.25C0 13.2116 0.772321 14 1.71429 14H14.2857C15.2277 14 16 13.2116 16 12.25V1.75C16 0.788411 15.2277 0 14.2857 0H1.71429ZM1.71429 1.16667H14.2857C14.6071 1.16667 14.8571 1.42187 14.8571 1.75V10.2266L10.8527 5.91081L8.62054 8.47656L5.17857 4.77148L1.14286 9.41081V1.75C1.14286 1.42187 1.39286 1.16667 1.71429 1.16667ZM11.4286 2.33333C10.7991 2.33333 10.2857 2.85742 10.2857 3.5C10.2857 4.14258 10.7991 4.66667 11.4286 4.66667C12.058 4.66667 12.5714 4.14258 12.5714 3.5C12.5714 2.85742 12.058 2.33333 11.4286 2.33333ZM5.20536 6.49414L11.0938 12.8333H1.71429C1.39286 12.8333 1.14286 12.5781 1.14286 12.25V11.1699L5.20536 6.49414ZM10.875 7.63802L14.8571 11.9219V12.25C14.8571 12.5781 14.6071 12.8333 14.2857 12.8333H12.6652L9.41071 9.32422L10.875 7.63802Z" fill="#8B8B8B"/>
</svg>
