<svg width="30" height="30" viewBox="0 0 30 30" fill="none" xmlns="http://www.w3.org/2000/svg">
<path d="M4.58333 0C2.06685 0 0 2.06685 0 4.58333V25.4167C0 27.9331 2.06685 30 4.58333 30H25.4167C27.9331 30 30 27.9331 30 25.4167V4.58333C30 2.06685 27.9331 0 25.4167 0H4.58333ZM4.58333 2.5H25.4167C26.5819 2.5 27.5 3.41814 27.5 4.58333V21.6292L22.4902 16.7822C22.4897 16.7817 22.4891 16.7811 22.4886 16.7806C21.8402 16.1545 20.989 15.8333 20.1449 15.8333C19.301 15.8333 18.4499 16.1545 17.8011 16.7822L16.0938 18.4342L10.944 13.4521C10.297 12.8248 9.44673 12.5 8.59863 12.5C7.74923 12.5 6.90082 12.8268 6.25488 13.4505C6.25434 13.4511 6.2538 13.4516 6.25325 13.4521L2.5 17.0833V4.58333C2.5 3.41814 3.41814 2.5 4.58333 2.5ZM20.4167 5.83333C19.2708 5.83333 18.2532 6.30803 17.6074 7.0345C16.9617 7.76098 16.6667 8.68056 16.6667 9.58333C16.6667 10.4861 16.9617 11.4057 17.6074 12.1322C18.2532 12.8586 19.2708 13.3333 20.4167 13.3333C21.5625 13.3333 22.5802 12.8586 23.2259 12.1322C23.8717 11.4057 24.1667 10.4861 24.1667 9.58333C24.1667 8.68056 23.8717 7.76098 23.2259 7.0345C22.5802 6.30803 21.5625 5.83333 20.4167 5.83333ZM20.4167 8.33333C20.9375 8.33333 21.1698 8.48364 21.3574 8.69466C21.545 8.90568 21.6667 9.23611 21.6667 9.58333C21.6667 9.93056 21.545 10.261 21.3574 10.472C21.1698 10.683 20.9375 10.8333 20.4167 10.8333C19.8958 10.8333 19.6635 10.683 19.4759 10.472C19.2883 10.261 19.1667 9.93056 19.1667 9.58333C19.1667 9.23611 19.2883 8.90568 19.4759 8.69466C19.6635 8.48364 19.8958 8.33333 20.4167 8.33333ZM8.59863 15C8.81554 15 9.02944 15.078 9.2041 15.2474C9.20464 15.2479 9.20519 15.2485 9.20573 15.249L14.2952 20.1725L6.72038 27.5H4.58333C3.41814 27.5 2.5 26.5819 2.5 25.4167V20.5615L7.99154 15.249C8.16897 15.0777 8.38303 15 8.59863 15ZM20.1449 18.3333C20.3657 18.3333 20.5771 18.4102 20.752 18.5791L27.5 25.1074V25.4167C27.5 26.5819 26.5819 27.5 25.4167 27.5H10.3174L19.5394 18.5791C19.7123 18.4118 19.9254 18.3333 20.1449 18.3333Z" fill="#A4A4A4"/>
</svg>
