<svg width="9" height="9" viewBox="0 0 9 9" fill="none" xmlns="http://www.w3.org/2000/svg">
<path d="M8.63464 0.000146127C8.6218 0.000530091 8.60899 0.00161063 8.59626 0.00338299H5.327C5.27994 0.00271746 5.23322 0.0114114 5.18955 0.0289597C5.14588 0.046508 5.10613 0.0725606 5.07262 0.105603C5.0391 0.138646 5.01249 0.17802 4.99433 0.221438C4.97616 0.264855 4.96681 0.311449 4.96681 0.358513C4.96681 0.405576 4.97616 0.452171 4.99433 0.495588C5.01249 0.539005 5.0391 0.578379 5.07262 0.611422C5.10613 0.644465 5.14588 0.670517 5.18955 0.688065C5.23322 0.705614 5.27994 0.714308 5.327 0.713642H7.78427L4.12889 4.36898C4.09481 4.4017 4.0676 4.4409 4.04885 4.48427C4.03011 4.52764 4.0202 4.57432 4.01972 4.62156C4.01924 4.66881 4.02819 4.71568 4.04605 4.75942C4.06391 4.80316 4.09032 4.8429 4.12373 4.87631C4.15714 4.90972 4.19688 4.93613 4.24063 4.95399C4.28437 4.97185 4.33124 4.9808 4.37848 4.98032C4.42573 4.97984 4.47241 4.96994 4.51578 4.95119C4.55915 4.93245 4.59835 4.90524 4.63107 4.87116L8.28645 1.21582V3.67306C8.28578 3.72011 8.29447 3.76684 8.31202 3.81051C8.32957 3.85418 8.35562 3.89392 8.38867 3.92744C8.42171 3.96095 8.46109 3.98756 8.5045 4.00573C8.54792 4.02389 8.59452 4.03324 8.64158 4.03324C8.68864 4.03324 8.73524 4.02389 8.77866 4.00573C8.82207 3.98756 8.86145 3.96095 8.89449 3.92744C8.92754 3.89392 8.95359 3.85418 8.97114 3.81051C8.98868 3.76684 8.99738 3.72011 8.99671 3.67306V0.403366C9.00371 0.352272 8.9995 0.300266 8.98437 0.250964C8.96924 0.201662 8.94355 0.156246 8.9091 0.117874C8.87464 0.0795015 8.83224 0.0490932 8.78484 0.0287626C8.73745 0.00843205 8.68619 -0.00133302 8.63464 0.000146127V0.000146127ZM1.77567 0.713642C0.799168 0.713642 0 1.5128 0 2.48929V7.22435C0 8.20084 0.799168 9 1.77567 9H6.51078C7.48728 9 8.28645 8.20084 8.28645 7.22435V4.85682C8.28711 4.80976 8.27842 4.76304 8.26087 4.71937C8.24332 4.6757 8.21727 4.63595 8.18423 4.60244C8.15118 4.56893 8.11181 4.54232 8.06839 4.52415C8.02497 4.50599 7.97838 4.49663 7.93131 4.49663C7.88425 4.49663 7.83765 4.50599 7.79424 4.52415C7.75082 4.54232 7.71144 4.56893 7.6784 4.60244C7.64536 4.63595 7.61931 4.6757 7.60176 4.71937C7.58421 4.76304 7.57551 4.80976 7.57618 4.85682V7.22435C7.57618 7.81706 7.1035 8.28974 6.51078 8.28974H1.77567C1.18295 8.28974 0.710267 7.81706 0.710267 7.22435V2.48929C0.710267 1.89658 1.18295 1.4239 1.77567 1.4239H4.14322C4.19028 1.42457 4.237 1.41587 4.28067 1.39832C4.32435 1.38078 4.36409 1.35472 4.39761 1.32168C4.43112 1.28864 4.45773 1.24926 4.4759 1.20585C4.49406 1.16243 4.50341 1.11584 4.50341 1.06877C4.50341 1.02171 4.49406 0.975114 4.4759 0.931697C4.45773 0.88828 4.43112 0.848906 4.39761 0.815863C4.36409 0.78282 4.32435 0.756767 4.28067 0.739219C4.237 0.721671 4.19028 0.712977 4.14322 0.713642H1.77567Z" fill="black"/>
</svg>
