<svg width="10" height="10" viewBox="0 0 10 10" fill="none" xmlns="http://www.w3.org/2000/svg">
<path d="M9.59405 0.000162364C9.57978 0.00058899 9.56554 0.00178959 9.5514 0.00375887H5.91889C5.8666 0.0030194 5.81469 0.0126794 5.76617 0.0321775C5.71764 0.0516756 5.67348 0.0806229 5.63624 0.117337C5.59901 0.154051 5.56944 0.1978 5.54925 0.246042C5.52907 0.294283 5.51868 0.346054 5.51868 0.398347C5.51868 0.45064 5.52907 0.502412 5.54925 0.550653C5.56944 0.598894 5.59901 0.642643 5.63624 0.679357C5.67348 0.716072 5.71764 0.745019 5.76617 0.764517C5.81469 0.784015 5.8666 0.793675 5.91889 0.792936H8.64918L4.58765 4.85442C4.54978 4.89078 4.51955 4.93433 4.49872 4.98252C4.47789 5.03071 4.46689 5.08257 4.46636 5.13507C4.46582 5.18757 4.47577 5.23964 4.49561 5.28824C4.51546 5.33685 4.5448 5.381 4.58192 5.41813C4.61905 5.45525 4.6632 5.48459 4.71181 5.50443C4.76041 5.52428 4.81249 5.53422 4.86498 5.53369C4.91748 5.53316 4.96934 5.52215 5.01753 5.50133C5.06572 5.4805 5.10927 5.45026 5.14563 5.4124L9.20716 1.35091V4.08117C9.20642 4.13346 9.21608 4.18537 9.23558 4.2339C9.25508 4.28242 9.28403 4.32658 9.32074 4.36382C9.35746 4.40105 9.40121 4.43062 9.44945 4.45081C9.49769 4.47099 9.54946 4.48138 9.60176 4.48138C9.65405 4.48138 9.70582 4.47099 9.75406 4.45081C9.8023 4.43062 9.84605 4.40105 9.88277 4.36382C9.91948 4.32658 9.94843 4.28242 9.96793 4.2339C9.98743 4.18537 9.99709 4.13346 9.99635 4.08117V0.448185C10.0041 0.391413 9.99945 0.333629 9.98263 0.278849C9.96582 0.224068 9.93728 0.173607 9.899 0.130971C9.86071 0.088335 9.8136 0.054548 9.76094 0.0319585C9.70828 0.00936894 9.65133 -0.00148113 9.59405 0.000162364V0.000162364ZM1.97296 0.792936C0.887965 0.792936 0 1.68089 0 2.76588V8.02706C0 9.11204 0.887965 10 1.97296 10H7.2342C8.3192 10 9.20716 9.11204 9.20716 8.02706V5.39647C9.2079 5.34418 9.19824 5.29227 9.17874 5.24375C9.15925 5.19522 9.1303 5.15106 9.09358 5.11382C9.05687 5.07659 9.01312 5.04702 8.96488 5.02683C8.91664 5.00665 8.86486 4.99626 8.81257 4.99626C8.76028 4.99626 8.7085 5.00665 8.66026 5.02683C8.61202 5.04702 8.56827 5.07659 8.53156 5.11382C8.49484 5.15106 8.46589 5.19522 8.4464 5.24375C8.4269 5.29227 8.41724 5.34418 8.41798 5.39647V8.02706C8.41798 8.68563 7.89277 9.21082 7.2342 9.21082H1.97296C1.31439 9.21082 0.789185 8.68563 0.789185 8.02706V2.76588C0.789185 2.10731 1.31439 1.58211 1.97296 1.58211H4.60358C4.65587 1.58285 4.70778 1.57319 4.75631 1.55369C4.80483 1.5342 4.84899 1.50525 4.88623 1.46853C4.92347 1.43182 4.95304 1.38807 4.97322 1.33983C4.9934 1.29159 5.00379 1.23982 5.00379 1.18752C5.00379 1.13523 4.9934 1.08346 4.97322 1.03522C4.95304 0.986977 4.92347 0.943228 4.88623 0.906514C4.84899 0.8698 4.80483 0.840852 4.75631 0.821354C4.70778 0.801856 4.65587 0.792196 4.60358 0.792936H1.97296Z" fill="black"/>
</svg>
