<svg width="9" height="12" viewBox="0 0 9 12" fill="none" xmlns="http://www.w3.org/2000/svg">
<path d="M1.26562 0C0.57164 0 0 0.60975 0 1.35V10.65C0 11.3903 0.57164 12 1.26562 12H7.73438C8.42836 12 9 11.3903 9 10.65V4.35C8.99998 4.23066 8.95552 4.11622 8.8764 4.03184L8.87201 4.02715L5.22015 0.131836C5.14105 0.0474446 5.03376 2.29585e-05 4.92188 0H1.26562ZM1.26562 0.9H4.5V3.45C4.5 4.19025 5.07164 4.8 5.76562 4.8H8.15625V10.65C8.15625 10.904 7.97245 11.1 7.73438 11.1H1.26562C1.02755 11.1 0.84375 10.904 0.84375 10.65V1.35C0.84375 1.09605 1.02755 0.9 1.26562 0.9ZM5.34375 1.53633L7.55969 3.9H5.76562C5.52755 3.9 5.34375 3.70395 5.34375 3.45V1.53633ZM3.23438 5.40059C3.1115 5.40059 2.98724 5.43481 2.87677 5.5043C2.66185 5.63973 2.53125 5.88417 2.53125 6.15V9.45C2.53125 9.71497 2.66106 9.959 2.87567 10.0945C3.09462 10.2336 3.35192 10.2371 3.5733 10.1074L6.3858 8.45684H6.38635C6.60934 8.3256 6.75 8.07306 6.75 7.8C6.75 7.52694 6.60935 7.2744 6.38635 7.14316H6.3858L3.57275 5.49258H3.5722C3.46702 5.43123 3.35053 5.40059 3.23438 5.40059ZM3.375 6.40313L5.75574 7.8L3.375 9.19688V6.40313ZM3.16681 9.31816C3.1672 9.31793 3.16751 9.31839 3.16791 9.31816L3.16681 9.31875V9.31816Z" fill="black"/>
</svg>
