<svg width="15" height="19" viewBox="0 0 15 19" fill="none" xmlns="http://www.w3.org/2000/svg">
<path d="M2.10938 0C0.952734 0 0 0.965437 0 2.1375V16.8625C0 18.0346 0.952734 19 2.10938 19H12.8906C14.0473 19 15 18.0346 15 16.8625V6.8875C15 6.69855 14.9259 6.51734 14.794 6.38374L14.7867 6.37632L8.70026 0.20874C8.56841 0.0751206 8.38959 3.6351e-05 8.20312 0H2.10938ZM2.10938 1.425H7.5V5.4625C7.5 6.63456 8.45273 7.6 9.60938 7.6H13.5938V16.8625C13.5938 17.0508 13.5247 17.2174 13.4125 17.3431L8.82935 12.8918C8.46023 12.5337 7.97926 12.3546 7.49908 12.3546C7.01891 12.3546 6.53961 12.5335 6.17065 12.8918L1.58661 17.3431C1.4746 17.2175 1.40625 17.0506 1.40625 16.8625V2.1375C1.40625 1.73541 1.71258 1.425 2.10938 1.425ZM8.90625 2.43252L12.5995 6.175H9.60938C9.21258 6.175 8.90625 5.86459 8.90625 5.4625V2.43252ZM10.0781 9.025C9.43078 9.025 8.90625 9.55653 8.90625 10.2125C8.90625 10.8685 9.43078 11.4 10.0781 11.4C10.7255 11.4 11.25 10.8685 11.25 10.2125C11.25 9.55653 10.7255 9.025 10.0781 9.025ZM7.5 13.7713C7.62738 13.7712 7.75461 13.8213 7.85706 13.9207L11.6199 17.575H3.38013L7.14294 13.9207C7.24508 13.8215 7.37262 13.7713 7.5 13.7713Z" fill="black"/>
</svg>
