<svg width="11" height="11" viewBox="0 0 11 11" fill="none" xmlns="http://www.w3.org/2000/svg">
<path d="M5.49322 5.29682e-05C5.37829 0.00184851 5.26877 0.049189 5.18872 0.131676C5.10867 0.214163 5.06463 0.325051 5.06628 0.439985V5.06632H0.4399C0.382427 5.06551 0.325365 5.07613 0.272031 5.09756C0.218697 5.11899 0.170154 5.15081 0.129224 5.19117C0.0882934 5.23152 0.0557918 5.27961 0.0336079 5.33263C0.0114239 5.38566 0 5.44257 0 5.50004C0 5.55752 0.0114239 5.61443 0.0336079 5.66745C0.0557918 5.72048 0.0882934 5.76857 0.129224 5.80892C0.170154 5.84928 0.218697 5.88109 0.272031 5.90253C0.325365 5.92396 0.382427 5.93458 0.4399 5.93376H5.06628V10.5601C5.06546 10.6176 5.07608 10.6746 5.09752 10.728C5.11895 10.7813 5.15077 10.8298 5.19112 10.8708C5.23148 10.9117 5.27956 10.9442 5.33259 10.9664C5.38562 10.9886 5.44252 11 5.5 11C5.55748 11 5.61439 10.9886 5.66741 10.9664C5.72044 10.9442 5.76853 10.9117 5.80888 10.8708C5.84924 10.8298 5.88105 10.7813 5.90249 10.728C5.92392 10.6746 5.93454 10.6176 5.93372 10.5601V5.93376H10.5601C10.6176 5.93458 10.6746 5.92396 10.728 5.90253C10.7813 5.88109 10.8298 5.84928 10.8708 5.80892C10.9117 5.76857 10.9442 5.72048 10.9664 5.66745C10.9886 5.61443 11 5.55752 11 5.50004C11 5.44257 10.9886 5.38566 10.9664 5.33263C10.9442 5.27961 10.9117 5.23152 10.8708 5.19117C10.8298 5.15081 10.7813 5.11899 10.728 5.09756C10.6746 5.07613 10.6176 5.06551 10.5601 5.06632H5.93372V0.439985C5.93456 0.381934 5.92373 0.324307 5.90188 0.270518C5.88003 0.21673 5.8476 0.167875 5.80652 0.12685C5.76545 0.0858236 5.71655 0.0534615 5.66273 0.0316812C5.60892 0.00990097 5.55127 -0.000854263 5.49322 5.29682e-05Z" fill="#bfbfbf"/>
</svg>
