<svg width="16" height="16" viewBox="0 0 16 16" fill="none" xmlns="http://www.w3.org/2000/svg">
<path d="M7.91667 0C3.55144 0 0 3.55145 0 7.91667C0 12.2819 3.55144 15.8333 7.91667 15.8333C12.2819 15.8333 15.8333 12.2819 15.8333 7.91667C15.8333 3.55145 12.2819 0 7.91667 0ZM7.91667 1.1875C11.6401 1.1875 14.6458 4.19322 14.6458 7.91667C14.6458 11.6401 11.6401 14.6458 7.91667 14.6458C4.19322 14.6458 1.1875 11.6401 1.1875 7.91667C1.1875 4.19322 4.19322 1.1875 7.91667 1.1875ZM7.91667 3.5625C6.61205 3.5625 5.54167 4.63289 5.54167 5.9375V6.13542C5.54055 6.2141 5.55509 6.29221 5.58443 6.36522C5.61377 6.43824 5.65733 6.50469 5.71257 6.56072C5.76782 6.61675 5.83365 6.66125 5.90624 6.69162C5.97883 6.72199 6.05673 6.73762 6.13542 6.73762C6.2141 6.73762 6.29201 6.72199 6.3646 6.69162C6.43719 6.66125 6.50302 6.61675 6.55826 6.56072C6.61351 6.50469 6.65707 6.43824 6.6864 6.36522C6.71574 6.29221 6.73028 6.2141 6.72917 6.13542V5.9375C6.72917 5.27482 7.25399 4.75 7.91667 4.75C8.57935 4.75 9.10417 5.27482 9.10417 5.9375C9.10417 6.86411 8.86325 6.98022 8.44084 7.31209C8.22963 7.47803 7.95299 7.66935 7.71643 7.99166C7.47987 8.31397 7.32292 8.76325 7.32292 9.30208C7.3218 9.38076 7.33634 9.45888 7.36568 9.53189C7.39502 9.6049 7.43858 9.67136 7.49382 9.72739C7.54907 9.78342 7.6149 9.82791 7.68749 9.85828C7.76008 9.88865 7.83798 9.90429 7.91667 9.90429C7.99535 9.90429 8.07326 9.88865 8.14585 9.85828C8.21844 9.82791 8.28427 9.78342 8.33951 9.72739C8.39476 9.67136 8.43832 9.6049 8.46765 9.53189C8.49699 9.45888 8.51153 9.38076 8.51042 9.30208C8.51042 8.96434 8.57612 8.82716 8.67354 8.69442C8.77097 8.56168 8.93964 8.42994 9.17375 8.24601C9.64196 7.87815 10.2917 7.18797 10.2917 5.9375C10.2917 4.63289 9.22128 3.5625 7.91667 3.5625ZM7.91667 11.0833C7.7067 11.0833 7.50534 11.1667 7.35687 11.3152C7.20841 11.4637 7.125 11.665 7.125 11.875C7.125 12.085 7.20841 12.2863 7.35687 12.4348C7.50534 12.5833 7.7067 12.6667 7.91667 12.6667C8.12663 12.6667 8.32799 12.5833 8.47646 12.4348C8.62493 12.2863 8.70833 12.085 8.70833 11.875C8.70833 11.665 8.62493 11.4637 8.47646 11.3152C8.32799 11.1667 8.12663 11.0833 7.91667 11.0833Z" fill="#A2A2A2"/>
</svg>
