<svg width="42" height="36" viewBox="0 0 42 36" fill="none" xmlns="http://www.w3.org/2000/svg">
<path d="M4.5 0C2.0325 0 0 2.0325 0 4.5V29.5C0 33.0719 2.92806 36 6.5 36H35.5C39.0719 36 42 33.0719 42 29.5V14.5C42 12.0325 39.9675 10 37.5 10H36V4.5C36 2.0325 33.9675 0 31.5 0H4.5ZM4.5 3H31.5C32.3465 3 33 3.6535 33 4.5V11.2539C32.9735 11.4149 32.9735 11.5792 33 11.7402V28.5C32.9972 28.6988 33.0339 28.8961 33.108 29.0806C33.1822 29.265 33.2922 29.4329 33.4318 29.5745C33.5713 29.716 33.7376 29.8284 33.921 29.9051C34.1044 29.9819 34.3012 30.0214 34.5 30.0214C34.6988 30.0214 34.8956 29.9819 35.079 29.9051C35.2624 29.8284 35.4287 29.716 35.5682 29.5745C35.7078 29.4329 35.8178 29.265 35.892 29.0806C35.9661 28.8961 36.0028 28.6988 36 28.5V13H37.5C38.3465 13 39 13.6535 39 14.5V29.5C39 31.4501 37.4501 33 35.5 33H6.5C4.54994 33 3 31.4501 3 29.5V4.5C3 3.6535 3.6535 3 4.5 3ZM7.5 9C7.30123 8.99719 7.10389 9.03391 6.91944 9.10803C6.73498 9.18215 6.5671 9.29219 6.42555 9.43176C6.28399 9.57133 6.17159 9.73764 6.09487 9.92102C6.01815 10.1044 5.97864 10.3012 5.97864 10.5C5.97864 10.6988 6.01815 10.8956 6.09487 11.079C6.17159 11.2624 6.28399 11.4287 6.42555 11.5682C6.5671 11.7078 6.73498 11.8178 6.91944 11.892C7.10389 11.9661 7.30123 12.0028 7.5 12H28.5C28.6988 12.0028 28.8961 11.9661 29.0806 11.892C29.265 11.8178 29.4329 11.7078 29.5745 11.5682C29.716 11.4287 29.8284 11.2624 29.9051 11.079C29.9819 10.8956 30.0214 10.6988 30.0214 10.5C30.0214 10.3012 29.9819 10.1044 29.9051 9.92102C29.8284 9.73764 29.716 9.57133 29.5745 9.43176C29.4329 9.29219 29.265 9.18215 29.0806 9.10803C28.8961 9.03391 28.6988 8.99719 28.5 9H7.5ZM7.5 17C7.10219 17 6.72068 17.1581 6.43938 17.4394C6.15809 17.7207 6.00004 18.1022 6 18.5V25.5C6.00004 25.8978 6.15809 26.2793 6.43938 26.5606C6.72068 26.8419 7.10219 27 7.5 27H14.5C14.8978 27 15.2793 26.8419 15.5606 26.5606C15.8419 26.2793 16 25.8978 16 25.5V18.5C16 18.1022 15.8419 17.7207 15.5606 17.4394C15.2793 17.1581 14.8978 17 14.5 17H7.5ZM20.5 17C20.3012 16.9972 20.1039 17.0339 19.9194 17.108C19.735 17.1822 19.5671 17.2922 19.4255 17.4318C19.284 17.5713 19.1716 17.7376 19.0949 17.921C19.0181 18.1044 18.9786 18.3012 18.9786 18.5C18.9786 18.6988 19.0181 18.8956 19.0949 19.079C19.1716 19.2624 19.284 19.4287 19.4255 19.5682C19.5671 19.7078 19.735 19.8178 19.9194 19.892C20.1039 19.9661 20.3012 20.0028 20.5 20H28.5C28.6988 20.0028 28.8961 19.9661 29.0806 19.892C29.265 19.8178 29.4329 19.7078 29.5745 19.5682C29.716 19.4287 29.8284 19.2624 29.9051 19.079C29.9819 18.8956 30.0214 18.6988 30.0214 18.5C30.0214 18.3012 29.9819 18.1044 29.9051 17.921C29.8284 17.7376 29.716 17.5713 29.5745 17.4318C29.4329 17.2922 29.265 17.1822 29.0806 17.108C28.8961 17.0339 28.6988 16.9972 28.5 17H20.5ZM9 20H13V24H9V20ZM20.5 24C20.3012 23.9972 20.1039 24.0339 19.9194 24.108C19.735 24.1822 19.5671 24.2922 19.4255 24.4318C19.284 24.5713 19.1716 24.7376 19.0949 24.921C19.0181 25.1044 18.9786 25.3012 18.9786 25.5C18.9786 25.6988 19.0181 25.8956 19.0949 26.079C19.1716 26.2624 19.284 26.4287 19.4255 26.5682C19.5671 26.7078 19.735 26.8178 19.9194 26.892C20.1039 26.9661 20.3012 27.0028 20.5 27H28.5C28.6988 27.0028 28.8961 26.9661 29.0806 26.892C29.265 26.8178 29.4329 26.7078 29.5745 26.5682C29.716 26.4287 29.8284 26.2624 29.9051 26.079C29.9819 25.8956 30.0214 25.6988 30.0214 25.5C30.0214 25.3012 29.9819 25.1044 29.9051 24.921C29.8284 24.7376 29.716 24.5713 29.5745 24.4318C29.4329 24.2922 29.265 24.1822 29.0806 24.108C28.8961 24.0339 28.6988 23.9972 28.5 24H20.5Z" fill="white"/>
</svg>
