<svg width="34" height="40" viewBox="0 0 34 40" fill="none" xmlns="http://www.w3.org/2000/svg">
<path d="M5.5 0C2.48023 0 0 2.48023 0 5.5V32V33.5V34.5C0 37.5198 2.48023 40 5.5 40H31.5C31.6988 40.0028 31.8961 39.9661 32.0806 39.892C32.265 39.8178 32.4329 39.7078 32.5745 39.5682C32.716 39.4287 32.8284 39.2624 32.9051 39.079C32.9819 38.8956 33.0214 38.6988 33.0214 38.5C33.0214 38.3012 32.9819 38.1044 32.9051 37.921C32.8284 37.7376 32.716 37.5713 32.5745 37.4318C32.4329 37.2922 32.265 37.1822 32.0806 37.108C31.8961 37.0339 31.6988 36.9972 31.5 37H5.5C4.27324 37 3.27724 36.1523 3.05078 35H31.5C31.8978 35 32.2793 34.8419 32.5606 34.5606C32.8419 34.2793 33 33.8978 33 33.5V5.5C33 2.48023 30.5198 0 27.5 0H5.5ZM5.5 3H27.5C28.8982 3 30 4.10177 30 5.5V32H3V5.5C3 4.10177 4.10177 3 5.5 3ZM8.5 12C8.30123 11.9972 8.10389 12.0339 7.91944 12.108C7.73498 12.1822 7.5671 12.2922 7.42555 12.4318C7.28399 12.5713 7.17159 12.7376 7.09487 12.921C7.01815 13.1044 6.97864 13.3012 6.97864 13.5C6.97864 13.6988 7.01815 13.8956 7.09487 14.079C7.17159 14.2624 7.28399 14.4287 7.42555 14.5682C7.5671 14.7078 7.73498 14.8178 7.91944 14.892C8.10389 14.9661 8.30123 15.0028 8.5 15H24.5C24.6988 15.0028 24.8961 14.9661 25.0806 14.892C25.265 14.8178 25.4329 14.7078 25.5745 14.5682C25.716 14.4287 25.8284 14.2624 25.9051 14.079C25.9819 13.8956 26.0214 13.6988 26.0214 13.5C26.0214 13.3012 25.9819 13.1044 25.9051 12.921C25.8284 12.7376 25.716 12.5713 25.5745 12.4318C25.4329 12.2922 25.265 12.1822 25.0806 12.108C24.8961 12.0339 24.6988 11.9972 24.5 12H8.5ZM8.5 19C8.30123 18.9972 8.10389 19.0339 7.91944 19.108C7.73498 19.1822 7.5671 19.2922 7.42555 19.4318C7.28399 19.5713 7.17159 19.7376 7.09487 19.921C7.01815 20.1044 6.97864 20.3012 6.97864 20.5C6.97864 20.6988 7.01815 20.8956 7.09487 21.079C7.17159 21.2624 7.28399 21.4287 7.42555 21.5682C7.5671 21.7078 7.73498 21.8178 7.91944 21.892C8.10389 21.9661 8.30123 22.0028 8.5 22H21.5C21.6988 22.0028 21.8961 21.9661 22.0806 21.892C22.265 21.8178 22.4329 21.7078 22.5745 21.5682C22.716 21.4287 22.8284 21.2624 22.9051 21.079C22.9819 20.8956 23.0214 20.6988 23.0214 20.5C23.0214 20.3012 22.9819 20.1044 22.9051 19.921C22.8284 19.7376 22.716 19.5713 22.5745 19.4318C22.4329 19.2922 22.265 19.1822 22.0806 19.108C21.8961 19.0339 21.6988 18.9972 21.5 19H8.5Z" fill="black"/>
</svg>
