<svg width="41" height="40" viewBox="0 0 41 40" fill="none" xmlns="http://www.w3.org/2000/svg">
<path d="M20.0108 0C8.98899 0 0.0214844 8.97229 0.0214844 20C0.0214844 30.9923 8.93214 39.9407 19.9054 39.998C19.9405 39.9999 19.9757 40.0006 20.0108 40C20.2095 40.0028 20.4067 39.9661 20.5911 39.892C20.7754 39.8178 20.9432 39.7078 21.0847 39.5682C21.2262 39.4287 21.3385 39.2624 21.4152 39.079C21.4919 38.8956 21.5314 38.6988 21.5314 38.5C21.5314 38.3012 21.4919 38.1044 21.4152 37.921C21.3385 37.7376 21.2262 37.5713 21.0847 37.4318C20.9432 37.2922 20.7754 37.1822 20.5911 37.108C20.4067 37.0339 20.2095 36.9972 20.0108 37C10.6095 37 3.01988 29.4063 3.01988 20C3.01988 10.5937 10.6095 3 20.0108 3C25.6686 3 30.666 5.7582 33.7535 10H30.5052C30.3065 9.99719 30.1093 10.0339 29.9249 10.108C29.7406 10.1822 29.5728 10.2922 29.4313 10.4318C29.2898 10.5713 29.1775 10.7376 29.1008 10.921C29.0241 11.1044 28.9847 11.3012 28.9847 11.5C28.9847 11.6988 29.0241 11.8956 29.1008 12.079C29.1775 12.2624 29.2898 12.4287 29.4313 12.5682C29.5728 12.7078 29.7406 12.8178 29.9249 12.892C30.1093 12.9661 30.3065 13.0028 30.5052 13H37.5015C37.8991 13 38.2804 12.8419 38.5615 12.5606C38.8427 12.2793 39.0006 11.8978 39.0007 11.5V4.5C39.0035 4.29923 38.9661 4.09993 38.8906 3.91391C38.8151 3.72788 38.703 3.55892 38.561 3.41704C38.419 3.27515 38.25 3.16323 38.064 3.0879C37.8779 3.01257 37.6787 2.97538 37.478 2.97852C37.0808 2.98473 36.7022 3.14845 36.4255 3.43373C36.1488 3.71901 35.9966 4.10251 36.0023 4.5V8.01172C32.3531 3.14916 26.5432 0 20.0108 0ZM38.5009 18.5C38.3023 18.4972 38.105 18.5339 37.9207 18.608C37.7363 18.6822 37.5685 18.7922 37.4271 18.9318C37.2856 19.0713 37.1732 19.2376 37.0966 19.421C37.0199 19.6044 36.9804 19.8012 36.9804 20C36.9804 20.1988 37.0199 20.3956 37.0966 20.579C37.1732 20.7624 37.2856 20.9287 37.4271 21.0682C37.5685 21.2078 37.7363 21.3178 37.9207 21.392C38.105 21.4661 38.3023 21.5028 38.5009 21.5C38.6996 21.5028 38.8968 21.4661 39.0812 21.392C39.2655 21.3178 39.4333 21.2078 39.5748 21.0682C39.7163 20.9287 39.8286 20.7624 39.9053 20.579C39.982 20.3956 40.0215 20.1988 40.0215 20C40.0215 19.8012 39.982 19.6044 39.9053 19.421C39.8286 19.2376 39.7163 19.0713 39.5748 18.9318C39.4333 18.7922 39.2655 18.6822 39.0812 18.608C38.8968 18.5339 38.6996 18.4972 38.5009 18.5V18.5ZM37.5932 24.2168L36.4278 24.7734L36.1272 26.0273L36.91 27.0527L37.5932 27.2168L38.7586 26.6621L39.0592 25.4062L38.2764 24.3828L37.5932 24.2168ZM34.9657 29.3711L33.8003 29.9258L33.4997 31.1816L34.2825 32.207L34.9657 32.3711L36.1311 31.8164L36.4317 30.5605L35.6489 29.5352L34.9657 29.3711ZM30.8741 33.459L29.7107 34.0137L29.4081 35.2695L30.1909 36.2949L30.8741 36.459L32.0395 35.9043L32.3421 34.6484L31.5574 33.623L30.8741 33.459ZM25.7285 36.0996L24.565 36.6543L24.2624 37.9102L25.0452 38.9336L25.7285 39.0996L26.8939 38.543L27.1964 37.2891L26.4117 36.2637L25.7285 36.0996Z" fill="white"/>
</svg>
