<svg width="40" height="40" viewBox="0 0 40 40" fill="none" xmlns="http://www.w3.org/2000/svg">
<path d="M20.0107 0C13.4783 0 7.66842 3.14916 4.01922 8.01172V4.5C4.0221 4.29923 3.98466 4.09993 3.90914 3.91391C3.83361 3.72788 3.72153 3.55892 3.57954 3.41704C3.43755 3.27515 3.26853 3.16323 3.08251 3.0879C2.89649 3.01257 2.69725 2.97538 2.49659 2.97852C2.09932 2.98473 1.72076 3.14845 1.44405 3.43373C1.16734 3.71901 1.01512 4.10251 1.02082 4.5V11.5C1.02086 11.8978 1.17882 12.2793 1.45997 12.5606C1.74111 12.8419 2.12242 13 2.52002 13H9.51628C9.71494 13.0028 9.91218 12.9661 10.0965 12.892C10.2809 12.8178 10.4487 12.7078 10.5902 12.5682C10.7316 12.4287 10.844 12.2624 10.9207 12.079C10.9973 11.8956 11.0368 11.6988 11.0368 11.5C11.0368 11.3012 10.9973 11.1044 10.9207 10.921C10.844 10.7376 10.7316 10.5713 10.5902 10.4318C10.4487 10.2922 10.2809 10.1822 10.0965 10.108C9.91218 10.0339 9.71494 9.99719 9.51628 10H6.26802C9.35545 5.7582 14.3529 3 20.0107 3C29.4119 3 37.0016 10.5937 37.0016 20C37.0016 29.4063 29.4119 37 20.0107 37C19.812 36.9972 19.6148 37.0339 19.4304 37.108C19.2461 37.1822 19.0783 37.2922 18.9368 37.4318C18.7953 37.5713 18.683 37.7376 18.6063 37.921C18.5296 38.1044 18.4901 38.3012 18.4901 38.5C18.4901 38.6988 18.5296 38.8956 18.6063 39.079C18.683 39.2624 18.7953 39.4287 18.9368 39.5682C19.0783 39.7078 19.2461 39.8178 19.4304 39.892C19.6148 39.9661 19.812 40.0028 20.0107 40C31.0325 40 40 31.0277 40 20C40 8.97229 31.0325 0 20.0107 0ZM1.52055 18.5C1.32189 18.4972 1.12465 18.5339 0.940297 18.608C0.755943 18.6822 0.588151 18.7922 0.446672 18.9318C0.305193 19.0713 0.192849 19.2376 0.116168 19.421C0.0394878 19.6044 0 19.8012 0 20C0 20.1988 0.0394878 20.3956 0.116168 20.579C0.192849 20.7624 0.305193 20.9287 0.446672 21.0682C0.588151 21.2078 0.755943 21.3178 0.940297 21.392C1.12465 21.4661 1.32189 21.5028 1.52055 21.5C1.71921 21.5028 1.91645 21.4661 2.10081 21.392C2.28516 21.3178 2.45295 21.2078 2.59443 21.0682C2.73591 20.9287 2.84825 20.7624 2.92493 20.579C3.00162 20.3956 3.0411 20.1988 3.0411 20C3.0411 19.8012 3.00162 19.6044 2.92493 19.421C2.84825 19.2376 2.73591 19.0713 2.59443 18.9318C2.45295 18.7922 2.28516 18.6822 2.10081 18.608C1.91645 18.5339 1.71921 18.4972 1.52055 18.5V18.5ZM2.42827 24.2168L1.26288 24.7734L0.962256 26.0273L1.74504 27.0527L2.42827 27.2168L3.59366 26.6621L3.89428 25.4062L3.1115 24.3828L2.42827 24.2168ZM5.05577 29.3711L3.89038 29.9258L3.58976 31.1816L4.37254 32.207L5.05577 32.3711L6.22117 31.8164L6.52179 30.5605L5.739 29.5352L5.05577 29.3711ZM9.14734 33.459L7.98194 34.0137L7.67937 35.2695L8.46411 36.2949L9.14734 36.459L10.3108 35.9043L10.6134 34.6484L9.83057 33.623L9.14734 33.459ZM14.293 36.0996L13.1276 36.6543L12.8251 37.9102L13.6098 38.9336L14.293 39.0996L15.4565 38.543L15.759 37.2891L14.9763 36.2637L14.293 36.0996Z" fill="white"/>
</svg>
