<svg width="13" height="13" viewBox="0 0 13 13" fill="none" xmlns="http://www.w3.org/2000/svg">
<path d="M5.13542 0C2.3055 0 0 2.3055 0 5.13542C0 7.96534 2.3055 10.2708 5.13542 10.2708C6.35954 10.2708 7.48486 9.83841 8.36857 9.11979L11.8431 12.5944C11.8921 12.6453 11.9507 12.686 12.0156 12.7141C12.0805 12.7421 12.1503 12.7569 12.221 12.7577C12.2917 12.7584 12.3618 12.745 12.4272 12.7183C12.4926 12.6916 12.5521 12.6521 12.6021 12.6021C12.6521 12.5521 12.6916 12.4926 12.7183 12.4272C12.745 12.3618 12.7584 12.2917 12.7577 12.221C12.7569 12.1503 12.7421 12.0805 12.7141 12.0156C12.686 11.9507 12.6453 11.8921 12.5944 11.8431L9.11979 8.36857C9.83841 7.48486 10.2708 6.35954 10.2708 5.13542C10.2708 2.3055 7.96534 0 5.13542 0ZM5.13542 1.0625C7.39112 1.0625 9.20833 2.87971 9.20833 5.13542C9.20833 6.23426 8.7749 7.22702 8.07182 7.95837C8.02848 7.99023 7.99023 8.02848 7.95837 8.07182C7.22702 8.7749 6.23426 9.20833 5.13542 9.20833C2.87971 9.20833 1.0625 7.39112 1.0625 5.13542C1.0625 2.87971 2.87971 1.0625 5.13542 1.0625Z" fill="white"/>
</svg>
