<svg width="11" height="12" viewBox="0 0 11 12" fill="none" xmlns="http://www.w3.org/2000/svg">
<path fill-rule="evenodd" clip-rule="evenodd" d="M5.05719 1C4.67591 1 4.3616 1.28739 4.31912 1.65731H5.79525C5.75277 1.28739 5.43847 1 5.05719 1ZM5.05719 0C4.12338 0 3.36096 0.734554 3.31631 1.65731H1.60475H0.5C0.223858 1.65731 0 1.88117 0 2.15731C0 2.43345 0.223858 2.65731 0.5 2.65731H1.10475V9.61502C1.10475 10.5013 1.8233 11.2199 2.70959 11.2199H7.40518C8.29148 11.2199 9.01003 10.5013 9.01003 9.61502V2.65731H9.61497C9.89112 2.65731 10.115 2.43345 10.115 2.15731C10.115 1.88117 9.89112 1.65731 9.61497 1.65731H8.51003H6.79807C6.75341 0.734554 5.991 0 5.05719 0ZM8.01003 2.65731H2.10475V9.61502C2.10475 9.94902 2.37558 10.2199 2.70959 10.2199H7.40518C7.73919 10.2199 8.01003 9.94902 8.01003 9.61502V2.65731ZM4.09004 3.86699C4.36619 3.86699 4.59004 4.09085 4.59004 4.36699V8.51016C4.59004 8.7863 4.36619 9.01016 4.09004 9.01016C3.8139 9.01016 3.59004 8.7863 3.59004 8.51016V4.36699C3.59004 4.09085 3.8139 3.86699 4.09004 3.86699ZM6.52373 4.36699C6.52373 4.09085 6.29987 3.86699 6.02373 3.86699C5.74759 3.86699 5.52373 4.09085 5.52373 4.36699V8.51016C5.52373 8.7863 5.74759 9.01016 6.02373 9.01016C6.29987 9.01016 6.52373 8.7863 6.52373 8.51016V4.36699Z" fill="black"/>
</svg>
