<svg width="308" height="308" viewBox="0 0 308 308" fill="none" xmlns="http://www.w3.org/2000/svg">
<rect x="3.5" y="3.5" width="301" height="301" rx="21.5" fill="white" stroke="#BEBEBE" stroke-width="7" stroke-dasharray="8 8"/>
<path d="M79.3329 193C82.6568 193 84.6703 190.944 84.6703 187.535C84.6703 184.136 82.6568 182.091 79.3649 182.091H75.4657V193H79.3329ZM77.7722 191.024V184.067H79.2424C81.2878 184.067 82.3691 185.111 82.3691 187.535C82.3691 189.969 81.2878 191.024 79.237 191.024H77.7722ZM86.3362 193H88.6054V188.371C88.6054 187.364 89.3405 186.672 90.3419 186.672C90.6562 186.672 91.0876 186.725 91.3007 186.794V184.781C91.0983 184.733 90.816 184.701 90.5869 184.701C89.6707 184.701 88.9197 185.234 88.6214 186.246H88.5361V184.818H86.3362V193ZM95.7898 193.16C98.272 193.16 99.8168 191.461 99.8168 188.941C99.8168 186.406 98.272 184.712 95.7898 184.712C93.3075 184.712 91.7628 186.406 91.7628 188.941C91.7628 191.461 93.3075 193.16 95.7898 193.16ZM95.8004 191.402C94.6552 191.402 94.0692 190.353 94.0692 188.925C94.0692 187.498 94.6552 186.443 95.8004 186.443C96.9244 186.443 97.5103 187.498 97.5103 188.925C97.5103 190.353 96.9244 191.402 95.8004 191.402ZM101.292 196.068H103.561V191.69H103.631C103.945 192.371 104.632 193.133 105.953 193.133C107.817 193.133 109.272 191.658 109.272 188.92C109.272 186.107 107.754 184.712 105.958 184.712C104.589 184.712 103.934 185.527 103.631 186.192H103.529V184.818H101.292V196.068ZM103.513 188.909C103.513 187.45 104.131 186.517 105.234 186.517C106.358 186.517 106.955 187.492 106.955 188.909C106.955 190.337 106.347 191.327 105.234 191.327C104.142 191.327 103.513 190.369 103.513 188.909ZM114.256 193H116.525V184.818H114.256V193ZM115.396 183.763C116.073 183.763 116.627 183.247 116.627 182.613C116.627 181.984 116.073 181.468 115.396 181.468C114.725 181.468 114.171 181.984 114.171 182.613C114.171 183.247 114.725 183.763 115.396 183.763ZM118.343 193H120.612V188.089C120.612 187.183 121.188 186.581 121.944 186.581C122.69 186.581 123.19 187.093 123.19 187.897V193H125.39V188.004C125.39 187.157 125.875 186.581 126.701 186.581C127.425 186.581 127.968 187.034 127.968 187.945V193H130.232V187.498C130.232 185.724 129.178 184.712 127.654 184.712C126.456 184.712 125.523 185.324 125.188 186.262H125.103C124.842 185.314 124.005 184.712 122.881 184.712C121.779 184.712 120.942 185.298 120.602 186.262H120.506V184.818H118.343V193ZM134.358 193.154C135.567 193.154 136.35 192.627 136.749 191.865H136.813V193H138.965V187.482C138.965 185.532 137.314 184.712 135.492 184.712C133.532 184.712 132.243 185.649 131.929 187.141L134.028 187.311C134.182 186.768 134.667 186.368 135.482 186.368C136.254 186.368 136.696 186.757 136.696 187.428V187.46C136.696 187.988 136.137 188.057 134.715 188.195C133.095 188.344 131.641 188.888 131.641 190.715C131.641 192.334 132.797 193.154 134.358 193.154ZM135.008 191.588C134.31 191.588 133.809 191.263 133.809 190.64C133.809 190.001 134.336 189.687 135.135 189.575C135.631 189.506 136.441 189.388 136.712 189.207V190.076C136.712 190.933 136.004 191.588 135.008 191.588ZM144.412 196.239C146.75 196.239 148.412 195.173 148.412 193.08V184.818H146.159V186.192H146.074C145.77 185.527 145.104 184.712 143.735 184.712C141.94 184.712 140.422 186.107 140.422 188.893C140.422 191.615 141.898 192.883 143.741 192.883C145.046 192.883 145.776 192.228 146.074 191.551H146.17V193.048C146.17 194.172 145.451 194.609 144.465 194.609C143.464 194.609 142.958 194.172 142.771 193.676L140.673 193.959C140.944 195.248 142.207 196.239 144.412 196.239ZM144.46 191.178C143.347 191.178 142.739 190.294 142.739 188.882C142.739 187.492 143.336 186.517 144.46 186.517C145.562 186.517 146.18 187.45 146.18 188.882C146.18 190.326 145.552 191.178 144.46 191.178ZM153.947 193.16C155.971 193.16 157.335 192.174 157.654 190.656L155.555 190.518C155.326 191.141 154.74 191.466 153.984 191.466C152.849 191.466 152.13 190.715 152.13 189.495V189.49H157.702V188.866C157.702 186.086 156.019 184.712 153.856 184.712C151.449 184.712 149.888 186.422 149.888 188.946C149.888 191.54 151.427 193.16 153.947 193.16ZM152.13 188.083C152.178 187.151 152.887 186.406 153.893 186.406C154.879 186.406 155.561 187.109 155.566 188.083H152.13ZM166.351 193.16C168.834 193.16 170.378 191.461 170.378 188.941C170.378 186.406 168.834 184.712 166.351 184.712C163.869 184.712 162.324 186.406 162.324 188.941C162.324 191.461 163.869 193.16 166.351 193.16ZM166.362 191.402C165.217 191.402 164.631 190.353 164.631 188.925C164.631 187.498 165.217 186.443 166.362 186.443C167.486 186.443 168.072 187.498 168.072 188.925C168.072 190.353 167.486 191.402 166.362 191.402ZM171.854 193H174.123V188.371C174.123 187.364 174.858 186.672 175.859 186.672C176.174 186.672 176.605 186.725 176.818 186.794V184.781C176.616 184.733 176.334 184.701 176.104 184.701C175.188 184.701 174.437 185.234 174.139 186.246H174.054V184.818H171.854V193ZM185.16 193.16C187.339 193.16 188.707 191.881 188.814 190.001H186.673C186.54 190.875 185.964 191.365 185.187 191.365C184.127 191.365 183.439 190.475 183.439 188.909C183.439 187.364 184.132 186.48 185.187 186.48C186.017 186.48 186.55 187.029 186.673 187.844H188.814C188.718 185.953 187.285 184.712 185.149 184.712C182.667 184.712 181.133 186.432 181.133 188.941C181.133 191.429 182.64 193.16 185.16 193.16ZM192.536 182.091H190.267V193H192.536V182.091ZM194.354 193H196.623V184.818H194.354V193ZM195.494 183.763C196.17 183.763 196.724 183.247 196.724 182.613C196.724 181.984 196.17 181.468 195.494 181.468C194.823 181.468 194.269 181.984 194.269 182.613C194.269 183.247 194.823 183.763 195.494 183.763ZM202.137 193.16C204.316 193.16 205.685 191.881 205.792 190.001H203.65C203.517 190.875 202.942 191.365 202.164 191.365C201.104 191.365 200.417 190.475 200.417 188.909C200.417 187.364 201.109 186.48 202.164 186.48C202.995 186.48 203.528 187.029 203.65 187.844H205.792C205.696 185.953 204.263 184.712 202.127 184.712C199.645 184.712 198.11 186.432 198.11 188.941C198.11 191.429 199.618 193.16 202.137 193.16ZM207.244 193H209.514V190.401L210.126 189.703L212.358 193H215.016L211.825 188.36L214.862 184.818H212.257L209.636 187.924H209.514V182.091H207.244V193ZM223.798 184.818H222.259V182.858H219.99V184.818H218.871V186.523H219.99V190.784C219.979 192.387 221.071 193.181 222.717 193.112C223.303 193.091 223.719 192.973 223.948 192.899L223.591 191.21C223.479 191.232 223.239 191.285 223.026 191.285C222.573 191.285 222.259 191.114 222.259 190.486V186.523H223.798V184.818ZM228.885 193.16C231.368 193.16 232.912 191.461 232.912 188.941C232.912 186.406 231.368 184.712 228.885 184.712C226.403 184.712 224.858 186.406 224.858 188.941C224.858 191.461 226.403 193.16 228.885 193.16ZM228.896 191.402C227.751 191.402 227.165 190.353 227.165 188.925C227.165 187.498 227.751 186.443 228.896 186.443C230.02 186.443 230.606 187.498 230.606 188.925C230.606 190.353 230.02 191.402 228.896 191.402ZM104.225 205.151C104.023 203.644 102.808 202.712 100.742 202.712C98.6482 202.712 97.2686 203.681 97.2739 205.258C97.2686 206.483 98.041 207.277 99.639 207.596L101.056 207.879C101.77 208.022 102.095 208.283 102.105 208.694C102.095 209.178 101.567 209.525 100.774 209.525C99.9639 209.525 99.4259 209.178 99.2874 208.512L97.0555 208.63C97.2686 210.196 98.6003 211.16 100.768 211.16C102.888 211.16 104.406 210.078 104.412 208.464C104.406 207.282 103.634 206.574 102.047 206.249L100.566 205.95C99.8041 205.785 99.5218 205.524 99.5271 205.13C99.5218 204.64 100.076 204.32 100.779 204.32C101.567 204.32 102.036 204.752 102.148 205.279L104.225 205.151ZM109.569 211.16C111.593 211.16 112.957 210.174 113.277 208.656L111.178 208.518C110.949 209.141 110.363 209.466 109.607 209.466C108.472 209.466 107.753 208.715 107.753 207.495V207.49H113.325V206.866C113.325 204.086 111.641 202.712 109.479 202.712C107.071 202.712 105.51 204.422 105.51 206.946C105.51 209.54 107.05 211.16 109.569 211.16ZM107.753 206.083C107.801 205.151 108.509 204.406 109.516 204.406C110.501 204.406 111.183 205.109 111.189 206.083H107.753ZM117.075 200.091H114.805V211H117.075V200.091ZM122.621 211.16C124.645 211.16 126.009 210.174 126.328 208.656L124.23 208.518C124.001 209.141 123.415 209.466 122.658 209.466C121.524 209.466 120.805 208.715 120.805 207.495V207.49H126.376V206.866C126.376 204.086 124.693 202.712 122.53 202.712C120.123 202.712 118.562 204.422 118.562 206.946C118.562 209.54 120.102 211.16 122.621 211.16ZM120.805 206.083C120.853 205.151 121.561 204.406 122.568 204.406C123.553 204.406 124.235 205.109 124.24 206.083H120.805ZM131.554 211.16C133.733 211.16 135.102 209.881 135.208 208.001H133.067C132.934 208.875 132.358 209.365 131.581 209.365C130.521 209.365 129.833 208.475 129.833 206.909C129.833 205.364 130.526 204.48 131.581 204.48C132.412 204.48 132.944 205.029 133.067 205.844H135.208C135.112 203.953 133.679 202.712 131.543 202.712C129.061 202.712 127.527 204.432 127.527 206.941C127.527 209.429 129.034 211.16 131.554 211.16ZM141.013 202.818H139.473V200.858H137.204V202.818H136.086V204.523H137.204V208.784C137.194 210.387 138.286 211.181 139.932 211.112C140.517 211.091 140.933 210.973 141.162 210.899L140.805 209.21C140.693 209.232 140.454 209.285 140.24 209.285C139.788 209.285 139.473 209.114 139.473 208.486V204.523H141.013V202.818ZM148.296 211.154C149.505 211.154 150.288 210.627 150.687 209.865H150.751V211H152.903V205.482C152.903 203.532 151.252 202.712 149.43 202.712C147.47 202.712 146.181 203.649 145.867 205.141L147.966 205.311C148.12 204.768 148.605 204.368 149.42 204.368C150.192 204.368 150.634 204.757 150.634 205.428V205.46C150.634 205.988 150.075 206.057 148.653 206.195C147.033 206.344 145.579 206.888 145.579 208.715C145.579 210.334 146.735 211.154 148.296 211.154ZM148.946 209.588C148.248 209.588 147.747 209.263 147.747 208.64C147.747 208.001 148.274 207.687 149.073 207.575C149.569 207.506 150.379 207.388 150.65 207.207V208.076C150.65 208.933 149.942 209.588 148.946 209.588ZM156.933 206.27C156.938 205.215 157.567 204.597 158.483 204.597C159.394 204.597 159.943 205.194 159.937 206.195V211H162.206V205.79C162.206 203.884 161.088 202.712 159.383 202.712C158.169 202.712 157.29 203.308 156.922 204.262H156.826V202.818H154.664V211H156.933V206.27ZM167.467 211H169.736V202.818H167.467V211ZM168.606 201.763C169.283 201.763 169.837 201.247 169.837 200.613C169.837 199.984 169.283 199.468 168.606 199.468C167.935 199.468 167.381 199.984 167.381 200.613C167.381 201.247 167.935 201.763 168.606 201.763ZM171.553 211H173.823V206.089C173.823 205.183 174.398 204.581 175.154 204.581C175.9 204.581 176.401 205.093 176.401 205.897V211H178.601V206.004C178.601 205.157 179.085 204.581 179.911 204.581C180.636 204.581 181.179 205.034 181.179 205.945V211H183.443V205.498C183.443 203.724 182.388 202.712 180.865 202.712C179.666 202.712 178.734 203.324 178.398 204.262H178.313C178.052 203.314 177.216 202.712 176.092 202.712C174.989 202.712 174.153 203.298 173.812 204.262H173.716V202.818H171.553V211ZM187.568 211.154C188.777 211.154 189.56 210.627 189.96 209.865H190.024V211H192.176V205.482C192.176 203.532 190.525 202.712 188.703 202.712C186.743 202.712 185.454 203.649 185.139 205.141L187.238 205.311C187.392 204.768 187.877 204.368 188.692 204.368C189.465 204.368 189.907 204.757 189.907 205.428V205.46C189.907 205.988 189.347 206.057 187.925 206.195C186.306 206.344 184.852 206.888 184.852 208.715C184.852 210.334 186.008 211.154 187.568 211.154ZM188.218 209.588C187.52 209.588 187.02 209.263 187.02 208.64C187.02 208.001 187.547 207.687 188.346 207.575C188.841 207.506 189.651 207.388 189.923 207.207V208.076C189.923 208.933 189.214 209.588 188.218 209.588ZM197.622 214.239C199.961 214.239 201.623 213.173 201.623 211.08V202.818H199.37V204.192H199.284C198.981 203.527 198.315 202.712 196.946 202.712C195.151 202.712 193.633 204.107 193.633 206.893C193.633 209.615 195.108 210.883 196.951 210.883C198.256 210.883 198.986 210.228 199.284 209.551H199.38V211.048C199.38 212.172 198.661 212.609 197.676 212.609C196.674 212.609 196.168 212.172 195.982 211.676L193.883 211.959C194.155 213.248 195.417 214.239 197.622 214.239ZM197.67 209.178C196.557 209.178 195.95 208.294 195.95 206.882C195.95 205.492 196.546 204.517 197.67 204.517C198.773 204.517 199.391 205.45 199.391 206.882C199.391 208.326 198.762 209.178 197.67 209.178ZM207.157 211.16C209.181 211.16 210.545 210.174 210.865 208.656L208.766 208.518C208.537 209.141 207.951 209.466 207.194 209.466C206.06 209.466 205.341 208.715 205.341 207.495V207.49H210.913V206.866C210.913 204.086 209.229 202.712 207.067 202.712C204.659 202.712 203.098 204.422 203.098 206.946C203.098 209.54 204.638 211.16 207.157 211.16ZM205.341 206.083C205.389 205.151 206.097 204.406 207.104 204.406C208.089 204.406 208.771 205.109 208.777 206.083H205.341Z" fill="#BEBEBE"/>
<path d="M122.577 64C111.261 64 102 73.2554 102 84.5645V128.435C102 139.745 111.261 149 122.577 149H188.423C199.739 149 209 139.745 209 128.435V84.5645C209 73.2554 199.739 64 188.423 64H122.577ZM122.577 72.2258H188.423C195.292 72.2258 200.769 77.7001 200.769 84.5645V128.435C200.769 128.911 200.681 129.361 200.63 129.823L178.135 108.069C176.121 106.124 173.49 105.15 170.858 105.15C168.226 105.15 165.594 106.124 163.581 108.069H163.575L157.82 113.633L143.566 99.8487C141.553 97.9036 138.916 96.93 136.284 96.93C133.652 96.93 131.021 97.9036 129.007 99.8487L110.231 118.003V84.5645C110.231 77.7001 115.708 72.2258 122.577 72.2258ZM180.192 83.1935C178.373 83.1935 176.629 83.9158 175.342 85.2013C174.056 86.4868 173.333 88.2304 173.333 90.0484C173.333 91.8664 174.056 93.61 175.342 94.8955C176.629 96.181 178.373 96.9032 180.192 96.9032C182.011 96.9032 183.756 96.181 185.042 94.8955C186.329 93.61 187.051 91.8664 187.051 90.0484C187.051 88.2304 186.329 86.4868 185.042 85.2013C183.756 83.9158 182.011 83.1935 180.192 83.1935ZM136.29 105.108C136.843 105.108 137.393 105.326 137.844 105.761L151.904 119.353L129.747 140.774H122.577C116.025 140.774 110.795 135.775 110.322 129.357L134.73 105.761C135.18 105.326 135.736 105.108 136.29 105.108ZM170.852 113.333C171.406 113.333 171.961 113.552 172.412 113.987V113.981L196.756 137.524C194.564 139.529 191.661 140.774 188.423 140.774H141.584L169.298 113.981V113.987C169.749 113.552 170.299 113.333 170.852 113.333Z" fill="#BEBEBE"/>
</svg>
