<svg width="42" height="34" viewBox="0 0 42 34" fill="none" xmlns="http://www.w3.org/2000/svg">
<path d="M5.5 0C2.48023 0 0 2.48023 0 5.5V28.5C0 31.5198 2.48023 34 5.5 34H36.5C39.5198 34 42 31.5198 42 28.5V5.5C42 2.48023 39.5198 0 36.5 0H5.5ZM5.5 3H36.5C37.8982 3 39 4.10177 39 5.5V28.5C39 29.8982 37.8982 31 36.5 31H5.5C4.10177 31 3 29.8982 3 28.5V5.5C3 4.10177 4.10177 3 5.5 3ZM5.5 5C4.948 5 4.5 5.448 4.5 6V7C4.5 7.552 4.948 8 5.5 8H6.5C7.052 8 7.5 7.552 7.5 7V6C7.5 5.448 7.052 5 6.5 5H5.5ZM11.5 5C10.948 5 10.5 5.448 10.5 6V7C10.5 7.552 10.948 8 11.5 8H12.5C13.052 8 13.5 7.552 13.5 7V6C13.5 5.448 13.052 5 12.5 5H11.5ZM17.5 5C16.948 5 16.5 5.448 16.5 6V7C16.5 7.552 16.948 8 17.5 8H18.5C19.052 8 19.5 7.552 19.5 7V6C19.5 5.448 19.052 5 18.5 5H17.5ZM23.5 5C22.948 5 22.5 5.448 22.5 6V7C22.5 7.552 22.948 8 23.5 8H24.5C25.052 8 25.5 7.552 25.5 7V6C25.5 5.448 25.052 5 24.5 5H23.5ZM29.5 5C28.948 5 28.5 5.448 28.5 6V7C28.5 7.552 28.948 8 29.5 8H30.5C31.052 8 31.5 7.552 31.5 7V6C31.5 5.448 31.052 5 30.5 5H29.5ZM35.5 5C34.948 5 34.5 5.448 34.5 6V7C34.5 7.552 34.948 8 35.5 8H36.5C37.052 8 37.5 7.552 37.5 7V6C37.5 5.448 37.052 5 36.5 5H35.5ZM17.7383 11C17.4373 11.0019 17.1371 11.0818 16.8691 11.2383C16.3311 11.5513 16 12.127 16 12.75V21.25C16 21.873 16.3311 22.4487 16.8691 22.7617C17.1411 22.9197 17.445 23 17.75 23C18.048 23 18.3443 22.9245 18.6113 22.7715L26.1113 18.5215C26.6603 18.2115 27 17.63 27 17C27 16.37 26.6603 15.7885 26.1113 15.4785L18.6113 11.2285C18.3403 11.0745 18.0393 10.9981 17.7383 11ZM5.5 26C4.948 26 4.5 26.448 4.5 27V28C4.5 28.552 4.948 29 5.5 29H6.5C7.052 29 7.5 28.552 7.5 28V27C7.5 26.448 7.052 26 6.5 26H5.5ZM11.5 26C10.948 26 10.5 26.448 10.5 27V28C10.5 28.552 10.948 29 11.5 29H12.5C13.052 29 13.5 28.552 13.5 28V27C13.5 26.448 13.052 26 12.5 26H11.5ZM17.5 26C16.948 26 16.5 26.448 16.5 27V28C16.5 28.552 16.948 29 17.5 29H18.5C19.052 29 19.5 28.552 19.5 28V27C19.5 26.448 19.052 26 18.5 26H17.5ZM23.5 26C22.948 26 22.5 26.448 22.5 27V28C22.5 28.552 22.948 29 23.5 29H24.5C25.052 29 25.5 28.552 25.5 28V27C25.5 26.448 25.052 26 24.5 26H23.5ZM29.5 26C28.948 26 28.5 26.448 28.5 27V28C28.5 28.552 28.948 29 29.5 29H30.5C31.052 29 31.5 28.552 31.5 28V27C31.5 26.448 31.052 26 30.5 26H29.5ZM35.5 26C34.948 26 34.5 26.448 34.5 27V28C34.5 28.552 34.948 29 35.5 29H36.5C37.052 29 37.5 28.552 37.5 28V27C37.5 26.448 37.052 26 36.5 26H35.5Z" fill="#A4A4A4"/>
</svg>
