<svg width="14" height="14" viewBox="0 0 14 14" fill="none" xmlns="http://www.w3.org/2000/svg">
<circle r="7" transform="matrix(1 0 0 -1 7 7)" fill="white"/>
<path d="M7.57114 3C7.26559 3 6.97867 3.11901 6.76303 3.33482L3.33417 6.76339C2.88861 7.20892 2.88861 7.93394 3.33417 8.37946L5.23909 10.2842C5.45473 10.5002 5.74165 10.619 6.0472 10.619C6.35084 10.619 6.63633 10.5015 6.85158 10.2879C6.73976 10.1226 6.64988 9.9414 6.58035 9.75112L6.45125 9.88021C6.23542 10.096 5.85897 10.096 5.64315 9.88021L3.73822 7.97545C3.51554 7.75259 3.51554 7.39027 3.73822 7.16741L7.16709 3.73884C7.2749 3.63084 7.41836 3.57143 7.57114 3.57143H9.66655C9.87667 3.57143 10.0475 3.74229 10.0475 3.95238V6.04725C10.0475 6.20001 9.98793 6.34364 9.88011 6.45164L9.75101 6.58073C9.9415 6.65025 10.1223 6.74013 10.2879 6.85193C10.5012 6.63651 10.619 6.35087 10.619 6.04725V3.95238C10.619 3.42724 10.1917 3 9.66655 3H7.57114ZM8.71409 4.33333C8.39845 4.33333 8.14261 4.58914 8.14261 4.90476C8.14261 5.22038 8.39845 5.47619 8.71409 5.47619C9.02974 5.47619 9.28557 5.22038 9.28557 4.90476C9.28557 4.58914 9.02974 4.33333 8.71409 4.33333ZM8.90458 6.80952C7.74753 6.80952 6.80917 7.74781 6.80917 8.90476C6.80917 10.0617 7.74753 11 8.90458 11C10.0616 11 11 10.0617 11 8.90476C11 7.74781 10.0616 6.80952 8.90458 6.80952ZM8.90458 7.38095C9.00955 7.38095 9.09508 7.46648 9.09508 7.57143V8.71429H10.238C10.343 8.71429 10.4285 8.79981 10.4285 8.90476C10.4285 9.00971 10.343 9.09524 10.238 9.09524H9.09508V10.2381C9.09508 10.343 9.00955 10.4286 8.90458 10.4286C8.79962 10.4286 8.71409 10.343 8.71409 10.2381V9.09524H7.57114C7.46618 9.09524 7.38065 9.00971 7.38065 8.90476C7.38065 8.79981 7.46618 8.71429 7.57114 8.71429H8.71409V7.57143C8.71409 7.46648 8.79962 7.38095 8.90458 7.38095Z" fill="black"/>
</svg>
