<svg width="41" height="40" viewBox="0 0 41 40" fill="none" xmlns="http://www.w3.org/2000/svg">
<path d="M16.1229 0C7.25005 0 0.0214844 7.22857 0.0214844 16.1014C0.0214844 24.9742 7.25005 32.2028 16.1229 32.2028C19.961 32.2028 23.4892 30.847 26.26 28.5939L37.154 39.4879C37.3075 39.6478 37.4914 39.7754 37.6948 39.8633C37.8982 39.9512 38.1171 39.9977 38.3387 39.9999C38.5603 40.0022 38.7801 39.9602 38.9853 39.8764C39.1905 39.7927 39.3769 39.6688 39.5336 39.5121C39.6903 39.3554 39.8141 39.169 39.8979 38.9638C39.9817 38.7587 40.0237 38.5388 40.0214 38.3172C40.0191 38.0956 39.9727 37.8767 39.8848 37.6733C39.7969 37.4699 39.6692 37.286 39.5094 37.1326L28.6153 26.2385C30.8685 23.4677 32.2243 19.9395 32.2243 16.1014C32.2243 7.22857 24.9957 0 16.1229 0ZM16.1229 3.33132C23.1953 3.33132 28.893 9.02895 28.893 16.1014C28.893 19.5467 27.534 22.6594 25.3296 24.9524C25.1937 25.0523 25.0738 25.1722 24.9739 25.3081C22.6808 27.5125 19.5682 28.8715 16.1229 28.8715C9.05043 28.8715 3.35281 23.1738 3.35281 16.1014C3.35281 9.02895 9.05043 3.33132 16.1229 3.33132ZM16.0969 8.85967C15.6555 8.86657 15.2349 9.04838 14.9274 9.36516C14.62 9.68194 14.4509 10.1078 14.4572 10.5492V14.4357H10.5707C10.35 14.4326 10.1308 14.4734 9.92599 14.5557C9.72117 14.638 9.53475 14.7602 9.37756 14.9152C9.22037 15.0702 9.09555 15.2548 9.01036 15.4585C8.92516 15.6621 8.88129 15.8807 8.88129 16.1014C8.88129 16.3221 8.92516 16.5407 9.01036 16.7443C9.09555 16.948 9.22037 17.1326 9.37756 17.2876C9.53475 17.4426 9.72117 17.5648 9.92599 17.6471C10.1308 17.7294 10.35 17.7702 10.5707 17.7671H14.4572V21.6536C14.4541 21.8743 14.4949 22.0935 14.5772 22.2983C14.6595 22.5031 14.7817 22.6895 14.9367 22.8467C15.0916 23.0039 15.2763 23.1287 15.48 23.2139C15.6836 23.2991 15.9021 23.343 16.1229 23.343C16.3436 23.343 16.5622 23.2991 16.7658 23.2139C16.9694 23.1287 17.1541 23.0039 17.3091 22.8467C17.4641 22.6895 17.5863 22.5031 17.6686 22.2983C17.7509 22.0935 17.7917 21.8743 17.7885 21.6536V17.7671H21.6751C21.8958 17.7702 22.1149 17.7294 22.3198 17.6471C22.5246 17.5648 22.711 17.4426 22.8682 17.2876C23.0254 17.1326 23.1502 16.948 23.2354 16.7443C23.3206 16.5407 23.3645 16.3221 23.3645 16.1014C23.3645 15.8807 23.3206 15.6621 23.2354 15.4585C23.1502 15.2548 23.0254 15.0702 22.8682 14.9152C22.711 14.7602 22.5246 14.638 22.3198 14.5557C22.1149 14.4734 21.8958 14.4326 21.6751 14.4357H17.7885V10.5492C17.7917 10.3263 17.7502 10.1049 17.6662 9.89837C17.5823 9.6918 17.4578 9.50418 17.3001 9.34662C17.1423 9.18907 16.9545 9.06478 16.7478 8.98114C16.5412 8.89749 16.3198 8.85619 16.0969 8.85967V8.85967Z" fill="white"/>
</svg>
