<svg width="22" height="22" viewBox="0 0 22 22" fill="none" xmlns="http://www.w3.org/2000/svg">
<path d="M21 11C21 16.5228 16.5228 21 11 21C5.47715 21 1 16.5228 1 11C1 5.47715 5.47715 1 11 1C16.5228 1 21 5.47715 21 11Z" stroke="white" stroke-linecap="round" stroke-dasharray="2 2"/>
<path d="M17.3478 18.7105V15.3947C17.3478 14.627 17.0428 13.8907 16.4999 13.3478C15.9571 12.805 15.2208 12.5 14.453 12.5H7.54708C6.77935 12.5 6.04306 12.805 5.50019 13.3478C4.95732 13.8907 4.65234 14.627 4.65234 15.3947V17.0526V18.7105" stroke="white" stroke-linecap="round" stroke-linejoin="round"/>
<path d="M11.0529 9.89474C12.6517 9.89474 13.9477 8.59873 13.9477 7.00001C13.9477 5.40129 12.6517 4.10527 11.0529 4.10527C9.45422 4.10527 8.1582 5.40129 8.1582 7.00001C8.1582 8.59873 9.45422 9.89474 11.0529 9.89474Z" stroke="white" stroke-linecap="round" stroke-linejoin="round"/>
</svg>
