<svg width="29" height="29" viewBox="0 0 29 29" fill="none" xmlns="http://www.w3.org/2000/svg">
<path d="M4.76434 14.2929C2.14071 16.9165 2.14071 21.1978 4.76434 23.8215C7.38796 26.4451 11.6693 26.4451 14.2929 23.8215L16.2419 21.8724C16.3292 21.7876 16.3988 21.6862 16.4466 21.5742C16.4944 21.4622 16.5194 21.3418 16.5203 21.2201C16.5211 21.0983 16.4978 20.9776 16.4516 20.865C16.4054 20.7523 16.3373 20.6499 16.2512 20.5638C16.1651 20.4777 16.0627 20.4096 15.9501 20.3634C15.8374 20.3172 15.7167 20.2939 15.5949 20.2947C15.4732 20.2956 15.3528 20.3207 15.2408 20.3684C15.1288 20.4162 15.0274 20.4858 14.9426 20.5731L12.9935 22.5221C11.072 24.4436 7.98518 24.4436 6.06369 22.5221C4.14219 20.6006 4.14219 17.5138 6.06369 15.5923L8.01271 13.6432C8.10002 13.5584 8.16958 13.457 8.21737 13.345C8.26516 13.233 8.29021 13.1126 8.29107 12.9909C8.29193 12.8691 8.26858 12.7484 8.22239 12.6358C8.17619 12.5231 8.10806 12.4207 8.02196 12.3346C7.93586 12.2485 7.83351 12.1804 7.72086 12.1342C7.6082 12.088 7.48748 12.0647 7.36573 12.0655C7.24397 12.0664 7.1236 12.0914 7.0116 12.1392C6.89961 12.187 6.79823 12.2566 6.71336 12.3439L4.76434 14.2929ZM12.3439 6.71339C12.2566 6.79826 12.187 6.89964 12.1392 7.01163C12.0914 7.12362 12.0664 7.244 12.0655 7.36576C12.0646 7.48751 12.088 7.60823 12.1342 7.72089C12.1804 7.83354 12.2485 7.93589 12.3346 8.02199C12.4207 8.10809 12.5231 8.17622 12.6357 8.22242C12.7484 8.26861 12.8691 8.29196 12.9909 8.2911C13.1126 8.29024 13.233 8.26519 13.345 8.2174C13.457 8.16961 13.5583 8.10005 13.6432 8.01274L15.5922 6.06372C17.5137 4.14222 20.6006 4.14222 22.5221 6.06372C24.4436 7.98521 24.4436 11.0721 22.5221 12.9936L20.5731 14.9426C20.4858 15.0275 20.4162 15.1288 20.3684 15.2408C20.3206 15.3528 20.2956 15.4732 20.2947 15.595C20.2938 15.7167 20.3172 15.8374 20.3634 15.9501C20.4096 16.0627 20.4777 16.1651 20.5638 16.2512C20.6499 16.3373 20.7523 16.4054 20.8649 16.4516C20.9776 16.4978 21.0983 16.5212 21.2201 16.5203C21.3418 16.5194 21.4622 16.4944 21.5742 16.4466C21.6862 16.3988 21.7875 16.3292 21.8724 16.2419L23.8214 14.2929C26.4451 11.6693 26.4451 7.38799 23.8214 4.76437C21.1978 2.14074 16.9165 2.14075 14.2929 4.76437L12.3439 6.71339ZM8.22927 19.0572C8.14196 19.1421 8.07239 19.2434 8.02461 19.3554C7.97682 19.4674 7.95177 19.5878 7.95091 19.7096C7.95004 19.8313 7.97339 19.952 8.01959 20.0647C8.06579 20.1773 8.13392 20.2797 8.22001 20.3658C8.30611 20.4519 8.40846 20.52 8.52112 20.5662C8.63378 20.6124 8.75449 20.6358 8.87625 20.6349C8.99801 20.634 9.11838 20.609 9.23037 20.5612C9.34236 20.5134 9.44374 20.4438 9.52861 20.3565L20.3565 9.52864C20.4438 9.44377 20.5134 9.34239 20.5612 9.2304C20.609 9.11841 20.634 8.99804 20.6349 8.87628C20.6357 8.75452 20.6124 8.63381 20.5662 8.52115C20.52 8.40849 20.4519 8.30614 20.3658 8.22004C20.2797 8.13395 20.1773 8.06582 20.0647 8.01962C19.952 7.97342 19.8313 7.95008 19.7095 7.95094C19.5878 7.9518 19.4674 7.97685 19.3554 8.02463C19.2434 8.07242 19.142 8.14199 19.0572 8.2293L8.22927 19.0572Z" fill="#7E7E7E"/>
</svg>
