<svg width="37" height="37" viewBox="0 0 37 37" fill="none" xmlns="http://www.w3.org/2000/svg">
<path d="M5.86822 13.8673C5.75099 14.0005 5.67425 14.1643 5.64705 14.3396C5.61985 14.5149 5.64332 14.6943 5.71469 14.8567C5.78607 15.0191 5.90237 15.1577 6.0499 15.2562C6.19743 15.3547 6.37004 15.409 6.54739 15.4126L10.5165 15.5554C10.6387 15.5598 10.7605 15.5401 10.8751 15.4974C10.9896 15.4547 11.0946 15.3899 11.1841 15.3066C11.2736 15.2233 11.3458 15.1232 11.3966 15.0121C11.4474 14.9009 11.4759 14.7808 11.4803 14.6586C11.4847 14.5365 11.4649 14.4146 11.4223 14.3001C11.3796 14.1855 11.3147 14.0805 11.2315 13.991C11.1482 13.9015 11.0481 13.8293 10.9369 13.7785C10.8257 13.7277 10.7056 13.6993 10.5835 13.6949L6.61432 13.5521C6.47424 13.545 6.33437 13.5697 6.20517 13.6243C6.07597 13.6789 5.96078 13.762 5.86822 13.8673V13.8673ZM11.9191 6.83945C11.8348 6.94557 11.7747 7.06882 11.743 7.20058C11.7113 7.33234 11.7088 7.46942 11.7356 7.60226L12.4676 11.5059C12.5131 11.7486 12.6531 11.9632 12.8569 12.1026C13.0606 12.242 13.3114 12.2948 13.5541 12.2493C13.7967 12.2038 14.0114 12.0638 14.1508 11.86C14.2902 11.6563 14.3429 11.4055 14.2974 11.1628L13.5655 7.25915C13.535 7.0821 13.4538 6.91766 13.3319 6.78571C13.21 6.65375 13.0525 6.55991 12.8784 6.51553C12.7043 6.47115 12.521 6.47812 12.3508 6.5356C12.1806 6.59308 12.0306 6.69861 11.9191 6.83945V6.83945ZM8.75587 20.0373C6.52836 22.6252 6.82263 26.5574 9.4105 28.7849C11.9984 31.0124 15.9306 30.7181 18.1581 28.1303L20.3836 25.5447C20.4654 25.4524 20.528 25.3447 20.5678 25.228C20.6076 25.1113 20.6238 24.9879 20.6154 24.8649C20.6071 24.7418 20.5744 24.6217 20.5192 24.5114C20.4641 24.4011 20.3875 24.3029 20.2941 24.2225C20.2006 24.1421 20.0921 24.081 19.9749 24.0429C19.8576 24.0047 19.7339 23.9903 19.611 24.0003C19.4882 24.0104 19.3685 24.0448 19.259 24.1015C19.1495 24.1582 19.0524 24.2362 18.9733 24.3307L16.7477 26.9163C15.1764 28.7419 12.45 28.9459 10.6244 27.3746C8.79892 25.8033 8.59489 23.0768 10.1662 21.2513L12.3918 18.6657C12.4735 18.5734 12.5361 18.4657 12.5759 18.349C12.6157 18.2323 12.6319 18.1089 12.6236 17.9859C12.6152 17.8628 12.5825 17.7427 12.5274 17.6324C12.4722 17.5222 12.3957 17.4239 12.3022 17.3435C12.2088 17.2631 12.1003 17.202 11.983 17.1639C11.8657 17.1257 11.7421 17.1113 11.6192 17.1213C11.4963 17.1314 11.3766 17.1658 11.2671 17.2225C11.1577 17.2792 11.0605 17.3572 10.9814 17.4517L8.75587 20.0373ZM16.2418 11.3403C16.1601 11.4326 16.0975 11.5403 16.0577 11.657C16.0179 11.7737 16.0017 11.8971 16.01 12.0201C16.0184 12.1432 16.0511 12.2633 16.1062 12.3736C16.1614 12.4838 16.2379 12.5821 16.3314 12.6625C16.4248 12.7429 16.5334 12.804 16.6506 12.8421C16.7679 12.8803 16.8915 12.8947 17.0144 12.8847C17.1373 12.8746 17.257 12.8402 17.3665 12.7835C17.4759 12.7268 17.5731 12.6488 17.6522 12.5543L19.8777 9.96865C21.449 8.14314 24.1755 7.9391 26.001 9.51042C27.8265 11.0817 28.0306 13.8082 26.4593 15.6337L24.2337 18.2193C24.152 18.3116 24.0894 18.4193 24.0496 18.536C24.0098 18.6527 23.9936 18.7761 24.0019 18.8991C24.0102 19.0222 24.0429 19.1423 24.0981 19.2526C24.1533 19.3628 24.2298 19.4611 24.3233 19.5415C24.4167 19.6219 24.5252 19.683 24.6425 19.7211C24.7597 19.7593 24.8834 19.7737 25.0063 19.7637C25.1292 19.7536 25.2488 19.7192 25.3583 19.6625C25.4678 19.6057 25.5649 19.5278 25.644 19.4333L27.8696 16.8477C30.0971 14.2598 29.8028 10.3276 27.215 8.10009C24.6271 5.87258 20.6949 6.16685 18.4674 8.75471L16.2418 11.3403ZM25.3628 21.6448C25.2456 21.778 25.1689 21.9418 25.1417 22.1171C25.1145 22.2924 25.1379 22.4718 25.2093 22.6342C25.2807 22.7966 25.397 22.9352 25.5445 23.0337C25.6921 23.1322 25.8647 23.1865 26.042 23.1901L30.0111 23.3329C30.1333 23.3373 30.2551 23.3176 30.3697 23.2749C30.4842 23.2322 30.5893 23.1674 30.6787 23.0841C30.7682 23.0008 30.8404 22.9007 30.8913 22.7896C30.9421 22.6784 30.9705 22.5583 30.9749 22.4361C30.9793 22.3139 30.9596 22.1921 30.9169 22.0776C30.8742 21.963 30.8093 21.858 30.7261 21.7685C30.6428 21.679 30.5427 21.6068 30.4315 21.556C30.3203 21.5052 30.2002 21.4768 30.0781 21.4724L26.1089 21.3296C25.9689 21.3225 25.829 21.3472 25.6998 21.4018C25.5706 21.4564 25.4554 21.5395 25.3628 21.6448V21.6448ZM22.5115 24.9594C22.4272 25.0655 22.3671 25.1887 22.3354 25.3205C22.3037 25.4522 22.3012 25.5893 22.328 25.7222L23.06 29.6258C23.1055 29.8685 23.2455 30.0831 23.4493 30.2225C23.653 30.362 23.9038 30.4147 24.1465 30.3692C24.3891 30.3237 24.6038 30.1837 24.7432 29.9799C24.8826 29.7762 24.9353 29.5254 24.8898 29.2827L24.1579 25.3791C24.1274 25.202 24.0462 25.0376 23.9243 24.9056C23.8024 24.7737 23.6448 24.6798 23.4707 24.6354C23.2966 24.5911 23.1134 24.598 22.9432 24.6555C22.773 24.713 22.623 24.8185 22.5115 24.9594V24.9594Z" fill="#FF2B2B"/>
</svg>
