<svg width="15" height="15" viewBox="0 0 15 15" fill="none" xmlns="http://www.w3.org/2000/svg">
<path d="M7.67676 5.13541C8.26356 5.13541 8.73926 4.65971 8.73926 4.07291C8.73926 3.4861 8.26356 3.01041 7.67676 3.01041C7.08996 3.01041 6.61426 3.4861 6.61426 4.07291C6.61426 4.65971 7.08996 5.13541 7.67676 5.13541Z" stroke="#2E3235" stroke-miterlimit="10"/>
<path d="M14.4101 7.5483C13.7907 6.92886 12.7824 6.92957 12.1636 7.5483L7.90796 11.804C7.79782 11.9138 7.71742 12.0505 7.67492 12.1999L7.10436 14.1978C7.05159 14.383 7.10294 14.5831 7.23965 14.7195C7.34059 14.8204 7.47588 14.8749 7.61507 14.8749C7.66394 14.8749 7.71282 14.8682 7.76098 14.8544L9.75955 14.2835C9.90971 14.2406 10.0468 14.1595 10.1544 14.0508L14.4101 9.79549C14.7101 9.49551 14.8755 9.09636 14.8755 8.67171C14.8755 8.24707 14.7101 7.84828 14.4101 7.5483Z" fill="#2E3235"/>
<path d="M6.99302 12.0063C7.02454 11.895 7.07058 11.7891 7.12477 11.6875H1.94792C1.91144 11.6875 1.87673 11.6811 1.84167 11.6769L6.11788 7.54056C6.26167 7.40067 6.48833 7.40102 6.63283 7.54092L8.93881 9.77146L9.69035 9.01992L7.37233 6.77769C6.81346 6.23617 5.93796 6.23652 5.37908 6.77733L1.07631 10.9388C1.06923 10.8938 1.0625 10.8488 1.0625 10.8021V1.94792C1.0625 1.45952 1.45952 1.0625 1.94792 1.0625H10.8021C11.2905 1.0625 11.6875 1.45952 11.6875 1.94792V7.0249C11.9868 6.73412 12.3523 6.53579 12.75 6.44123V1.94792C12.75 0.874083 11.8759 0 10.8021 0H1.94792C0.874083 0 0 0.874083 0 1.94792V10.8021C0 11.8759 0.874083 12.75 1.94792 12.75H6.78052L6.99302 12.0063Z" fill="#2E3235"/>
</svg>
