<svg width="9" height="10" viewBox="0 0 9 10" fill="none" xmlns="http://www.w3.org/2000/svg">
<path d="M4.05264 0C3.31147 0 2.70336 0.643842 2.70336 1.42857H0.342124C0.297425 1.4279 0.253046 1.43665 0.211567 1.45429C0.170087 1.47194 0.132334 1.49814 0.100501 1.53137C0.0686685 1.5646 0.043391 1.6042 0.0261379 1.64786C0.00888476 1.69153 0 1.73838 0 1.78571C0 1.83304 0.00888476 1.8799 0.0261379 1.92357C0.043391 1.96723 0.0686685 2.00683 0.100501 2.04006C0.132334 2.07329 0.170087 2.09949 0.211567 2.11714C0.253046 2.13478 0.297425 2.14353 0.342124 2.14286H0.904324V8.21429C0.904324 8.93643 1.4591 9.52381 2.14116 9.52381H4.41983C4.22756 9.31214 4.06402 9.07214 3.93449 8.80952H2.14116C1.83128 8.80952 1.57896 8.54238 1.57896 8.21429V2.14286H6.52632V4.28571C6.75885 4.28571 6.98395 4.31746 7.20096 4.37174V2.14286H7.76316C7.80786 2.14353 7.85224 2.13478 7.89372 2.11714C7.9352 2.09949 7.97295 2.07329 8.00478 2.04006C8.03662 2.00683 8.06189 1.96723 8.07915 1.92357C8.0964 1.8799 8.10528 1.83304 8.10528 1.78571C8.10528 1.73838 8.0964 1.69153 8.07915 1.64786C8.06189 1.6042 8.03662 1.5646 8.00478 1.53137C7.97295 1.49814 7.9352 1.47194 7.89372 1.45429C7.85224 1.43665 7.80786 1.4279 7.76316 1.42857H5.40192C5.40192 0.643842 4.79382 0 4.05264 0ZM4.05264 0.714286C4.42912 0.714286 4.72728 1.02997 4.72728 1.42857H3.378C3.378 1.02997 3.67616 0.714286 4.05264 0.714286ZM3.26029 3.32822C3.17091 3.3297 3.08573 3.36868 3.02347 3.4366C2.96121 3.50453 2.92696 3.59584 2.92824 3.69048V7.2619C2.92761 7.30923 2.93587 7.35622 2.95254 7.40013C2.96921 7.44405 2.99395 7.48402 3.02534 7.51773C3.05672 7.55143 3.09412 7.57819 3.13536 7.59646C3.1766 7.61473 3.22086 7.62413 3.26556 7.62413C3.31027 7.62413 3.35452 7.61473 3.39576 7.59646C3.437 7.57819 3.4744 7.55143 3.50579 7.51773C3.53717 7.48402 3.56192 7.44405 3.57859 7.40013C3.59526 7.35622 3.60352 7.30923 3.60288 7.2619V3.69048C3.60353 3.64267 3.59511 3.59522 3.57812 3.55093C3.56112 3.50664 3.5359 3.46641 3.50396 3.43263C3.47201 3.39885 3.43398 3.3722 3.39212 3.35426C3.35027 3.33633 3.30544 3.32747 3.26029 3.32822V3.32822ZM4.83972 3.33333C4.6533 3.33333 4.5024 3.4931 4.5024 3.69048V5.15067C4.70232 4.9471 4.929 4.77395 5.17704 4.63681V3.69048C5.17704 3.4931 5.02615 3.33333 4.83972 3.33333ZM6.52632 4.7619C5.16018 4.7619 4.05264 5.93452 4.05264 7.38095C4.05264 8.82738 5.16018 10 6.52632 10C7.89247 10 9 8.82738 9 7.38095C9 5.93452 7.89247 4.7619 6.52632 4.7619ZM5.40192 5.95238C5.45944 5.95238 5.51696 5.97559 5.56092 6.02214L6.52632 7.04427L7.49172 6.02214C7.57965 5.92904 7.72179 5.92904 7.80972 6.02214C7.89765 6.11523 7.89765 6.26572 7.80972 6.35882L6.84432 7.38095L7.80972 8.40309C7.89765 8.49618 7.89765 8.64667 7.80972 8.73977C7.76587 8.7862 7.70829 8.80952 7.65072 8.80952C7.59315 8.80952 7.53558 8.7862 7.49172 8.73977L6.52632 7.71763L5.56092 8.73977C5.51707 8.7862 5.45949 8.80952 5.40192 8.80952C5.34435 8.80952 5.28678 8.7862 5.24292 8.73977C5.155 8.64667 5.155 8.49618 5.24292 8.40309L6.20833 7.38095L5.24292 6.35882C5.155 6.26572 5.155 6.11523 5.24292 6.02214C5.28689 5.97559 5.34441 5.95238 5.40192 5.95238Z" fill="white"/>
</svg>
