<svg width="7" height="7" viewBox="0 0 7 7" fill="none" xmlns="http://www.w3.org/2000/svg">
<path d="M0.870443 3.55985e-05C0.793154 0.00124234 0.719505 0.0330586 0.665672 0.0884959C0.611839 0.143933 0.582225 0.218458 0.583333 0.295702V1.65599C0.583341 1.7333 0.614073 1.80744 0.668769 1.8621C0.723465 1.91676 0.797648 1.94748 0.875 1.94749H2.23611C2.27476 1.94803 2.31313 1.9409 2.349 1.92649C2.38486 1.91209 2.41751 1.8907 2.44503 1.86358C2.47256 1.83646 2.49441 1.80414 2.50933 1.76851C2.52425 1.73287 2.53193 1.69462 2.53193 1.65599C2.53193 1.61736 2.52425 1.57912 2.50933 1.54348C2.49441 1.50785 2.47256 1.47553 2.44503 1.44841C2.41751 1.42128 2.38486 1.3999 2.349 1.3855C2.31313 1.37109 2.27476 1.36396 2.23611 1.3645H1.52365C2.0432 0.88399 2.73442 0.587193 3.5 0.587193C5.11436 0.587193 6.41667 1.88872 6.41667 3.50211C6.41667 5.11549 5.11436 6.41702 3.5 6.41702C1.88564 6.41702 0.583333 5.11549 0.583333 3.50211C0.583333 3.28943 0.605952 3.08249 0.649034 2.88345C0.658306 2.8456 0.659894 2.80629 0.653705 2.76783C0.647516 2.72936 0.633675 2.69253 0.613001 2.6595C0.592326 2.62647 0.565237 2.59792 0.533333 2.57553C0.50143 2.55314 0.465361 2.53737 0.427256 2.52915C0.389151 2.52093 0.349784 2.52043 0.311481 2.52767C0.273179 2.53491 0.236717 2.54975 0.204251 2.57132C0.171785 2.59288 0.143973 2.62073 0.122459 2.65322C0.100945 2.68571 0.0861653 2.72218 0.0789931 2.76047C0.0271861 2.99983 0 3.24801 0 3.50211C0 5.43053 1.57041 7 3.5 7C5.42959 7 7 5.43053 7 3.50211C7 1.57368 5.42959 0.0042106 3.5 0.0042106C2.60465 0.0042106 1.7864 0.342492 1.16667 0.896902V0.295702C1.16723 0.256688 1.15994 0.217958 1.14525 0.181808C1.13056 0.145659 1.10875 0.112825 1.08113 0.0852522C1.0535 0.0576798 1.02062 0.0359301 0.984432 0.0212921C0.948242 0.00665418 0.90948 -0.000574127 0.870443 3.55985e-05V3.55985e-05Z" fill="#FF5151"/>
</svg>
