<svg width="6" height="8" viewBox="0 0 6 8" fill="none" xmlns="http://www.w3.org/2000/svg">
<mask id="path-1-inside-1" fill="white">
<path d="M2.81579 0.0743802L1.0614 1.72727C0.956141 1.82645 0.956141 1.98347 1.0614 2.07438C1.16667 2.17355 1.33333 2.17355 1.42982 2.07438L2.73684 0.842975V5.70248C2.73684 5.84298 2.85088 5.95041 3 5.95041C3.14912 5.95041 3.26316 5.84298 3.26316 5.70248V0.842975L4.57018 2.07438C4.62281 2.12397 4.69298 2.14876 4.75439 2.14876C4.81579 2.14876 4.88597 2.12397 4.9386 2.07438C5.04386 1.97521 5.04386 1.81818 4.9386 1.72727L3.18421 0.0743802C3.07895 -0.0247934 2.92105 -0.0247934 2.81579 0.0743802ZM6 7.75207C6 7.61157 5.88596 7.50413 5.73684 7.50413H0.263158C0.114035 7.50413 0 7.61157 0 7.75207C0 7.89256 0.114035 8 0.263158 8H5.73684C5.88596 8 6 7.8843 6 7.75207Z"/>
</mask>
<path d="M2.81579 0.0743802L1.44431 -1.38131H1.44431L2.81579 0.0743802ZM1.0614 1.72727L2.43288 3.18297L1.0614 1.72727ZM1.0614 2.07438L2.43288 0.618686L2.40139 0.589015L2.36864 0.560734L1.0614 2.07438ZM1.42982 2.07438L0.0583452 0.618686L0.0266887 0.648511L-0.00364132 0.679685L1.42982 2.07438ZM2.73684 0.842975H4.73684V-3.78915L1.36536 -0.612718L2.73684 0.842975ZM3.26316 0.842975L4.63464 -0.612718L1.26316 -3.78915V0.842975H3.26316ZM4.57018 2.07438L5.94166 0.618686V0.618686L4.57018 2.07438ZM4.9386 1.72727L3.56712 3.18297L3.59861 3.21264L3.63136 3.24092L4.9386 1.72727ZM3.18421 0.0743802L4.55569 -1.38131L3.18421 0.0743802ZM1.44431 -1.38131L-0.310076 0.271579L2.43288 3.18297L4.18727 1.53007L1.44431 -1.38131ZM-0.310076 0.271579C-1.2151 1.12425 -1.31304 2.66635 -0.245836 3.58803L2.36864 0.560734C3.22532 1.30059 3.12739 2.52864 2.43288 3.18297L-0.310076 0.271579ZM-0.310076 3.53007C0.530166 4.32171 1.94917 4.4086 2.86329 3.46908L-0.00364132 0.679685C0.717494 -0.0614976 1.80317 0.025401 2.43288 0.618686L-0.310076 3.53007ZM2.8013 3.53007L4.10832 2.29867L1.36536 -0.612718L0.0583452 0.618686L2.8013 3.53007ZM0.736842 0.842975V5.70248H4.73684V0.842975H0.736842ZM0.736842 5.70248C0.736842 7.05816 1.86027 7.95041 3 7.95041V3.95041C3.84149 3.95041 4.73684 4.62779 4.73684 5.70248H0.736842ZM3 7.95041C4.13974 7.95041 5.26316 7.05816 5.26316 5.70248H1.26316C1.26316 4.62779 2.15851 3.95041 3 3.95041V7.95041ZM5.26316 5.70248V0.842975H1.26316V5.70248H5.26316ZM1.89168 2.29867L3.1987 3.53007L5.94166 0.618686L4.63464 -0.612718L1.89168 2.29867ZM3.1987 3.53007C3.635 3.94114 4.20073 4.14876 4.75439 4.14876V0.14876C5.18524 0.14876 5.61062 0.306798 5.94166 0.618686L3.1987 3.53007ZM4.75439 4.14876C5.30804 4.14876 5.87377 3.94114 6.31008 3.53007L3.56712 0.618686C3.89816 0.306798 4.32354 0.14876 4.75439 0.14876V4.14876ZM6.31008 3.53007C7.21511 2.6774 7.31304 1.1353 6.24584 0.213627L3.63136 3.24092C2.77468 2.50106 2.87261 1.27301 3.56712 0.618686L6.31008 3.53007ZM6.31008 0.271579L4.55569 -1.38131L1.81273 1.53007L3.56712 3.18297L6.31008 0.271579ZM4.55569 -1.38131C3.68012 -2.20623 2.31988 -2.20623 1.44431 -1.38131L4.18727 1.53007C3.52223 2.15664 2.47777 2.15664 1.81273 1.53007L4.55569 -1.38131ZM8 7.75207C8 6.39639 6.87658 5.50413 5.73684 5.50413V9.50413C4.89535 9.50413 4 8.82675 4 7.75207H8ZM5.73684 5.50413H0.263158V9.50413H5.73684V5.50413ZM0.263158 5.50413C-0.876577 5.50413 -2 6.39639 -2 7.75207H2C2 8.82675 1.10465 9.50413 0.263158 9.50413V5.50413ZM-2 7.75207C-2 9.10775 -0.876577 10 0.263158 10V6C1.10465 6 2 6.67738 2 7.75207H-2ZM0.263158 10H5.73684V6H0.263158V10ZM5.73684 10C6.9209 10 8 9.05724 8 7.75207H4C4 6.71136 4.85103 6 5.73684 6V10Z" fill="black" mask="url(#path-1-inside-1)"/>
</svg>
