<svg width="12" height="13" viewBox="0 0 12 13" fill="none" xmlns="http://www.w3.org/2000/svg">
<path d="M1.42105 0C0.637579 0 0 0.624929 0 1.39286V10.9881C0 11.756 0.637579 12.381 1.42105 12.381H5.57072C5.30072 12.1058 5.07016 11.7938 4.88795 11.4524H1.42105C1.15989 11.4524 0.947368 11.2441 0.947368 10.9881V1.39286C0.947368 1.13688 1.15989 0.928571 1.42105 0.928571H5.05263V3.55952C5.05263 4.32745 5.69021 4.95238 6.47368 4.95238H9.15789V5.62402C9.48789 5.67417 9.80621 5.75928 10.1053 5.88216V4.4881C10.1053 4.3598 10.0522 4.24383 9.96649 4.15983L5.86123 0.136021C5.77553 0.0520242 5.65721 0 5.52632 0H1.42105ZM6 1.5851L8.48808 4.02381H6.47368C6.21253 4.02381 6 3.8155 6 3.55952V1.5851ZM8.52632 6.19048C6.60789 6.19048 5.05263 7.71488 5.05263 9.59524C5.05263 11.4756 6.60789 13 8.52632 13C10.4447 13 12 11.4756 12 9.59524C12 7.71488 10.4447 6.19048 8.52632 6.19048ZM8.52632 7.11905C8.70063 7.11905 8.8421 7.25771 8.8421 7.42857V9.28571H10.7368C10.9112 9.28571 11.0526 9.42438 11.0526 9.59524C11.0526 9.7661 10.9112 9.90476 10.7368 9.90476H8.8421V11.7619C8.8421 11.9328 8.70063 12.0714 8.52632 12.0714C8.352 12.0714 8.21053 11.9328 8.21053 11.7619V9.90476H6.31579C6.14147 9.90476 6 9.7661 6 9.59524C6 9.42438 6.14147 9.28571 6.31579 9.28571H8.21053V7.42857C8.21053 7.25771 8.352 7.11905 8.52632 7.11905Z" fill="white"/>
</svg>
