<svg width="30" height="30" viewBox="0 0 30 30" fill="none" xmlns="http://www.w3.org/2000/svg">
<circle cx="15" cy="15" r="14" stroke="white" stroke-linecap="round" stroke-linejoin="bevel" stroke-dasharray="3 3"/>
<path d="M14.9932 9.50005C14.8783 9.50185 14.7688 9.54919 14.6887 9.63168C14.6087 9.71416 14.5646 9.82505 14.5663 9.93998V14.5663H9.9399C9.88243 14.5655 9.82536 14.5761 9.77203 14.5976C9.7187 14.619 9.67015 14.6508 9.62922 14.6912C9.58829 14.7315 9.55579 14.7796 9.53361 14.8326C9.51142 14.8857 9.5 14.9426 9.5 15C9.5 15.0575 9.51142 15.1144 9.53361 15.1675C9.55579 15.2205 9.58829 15.2686 9.62922 15.3089C9.67015 15.3493 9.7187 15.3811 9.77203 15.4025C9.82536 15.424 9.88243 15.4346 9.9399 15.4338H14.5663V20.0601C14.5655 20.1176 14.5761 20.1746 14.5975 20.228C14.6189 20.2813 14.6508 20.3298 14.6911 20.3708C14.7315 20.4117 14.7796 20.4442 14.8326 20.4664C14.8856 20.4886 14.9425 20.5 15 20.5C15.0575 20.5 15.1144 20.4886 15.1674 20.4664C15.2204 20.4442 15.2685 20.4117 15.3089 20.3708C15.3492 20.3298 15.3811 20.2813 15.4025 20.228C15.4239 20.1746 15.4345 20.1176 15.4337 20.0601V15.4338H20.0601C20.1176 15.4346 20.1746 15.424 20.228 15.4025C20.2813 15.3811 20.3298 15.3493 20.3708 15.3089C20.4117 15.2686 20.4442 15.2205 20.4664 15.1675C20.4886 15.1144 20.5 15.0575 20.5 15C20.5 14.9426 20.4886 14.8857 20.4664 14.8326C20.4442 14.7796 20.4117 14.7315 20.3708 14.6912C20.3298 14.6508 20.2813 14.619 20.228 14.5976C20.1746 14.5761 20.1176 14.5655 20.0601 14.5663H15.4337V9.93998C15.4346 9.88193 15.4237 9.82431 15.4019 9.77052C15.38 9.71673 15.3476 9.66788 15.3065 9.62685C15.2654 9.58582 15.2165 9.55346 15.1627 9.53168C15.1089 9.5099 15.0513 9.49915 14.9932 9.50005Z" fill="white"/>
</svg>
