<svg width="14" height="12" viewBox="0 0 14 12" fill="none" xmlns="http://www.w3.org/2000/svg">
<path d="M1.65625 0C0.880938 0 0.25 0.630938 0.25 1.40625V8.59375C0.25 9.36906 0.880938 10 1.65625 10H6.18872C6.06497 9.70406 5.97904 9.38906 5.9281 9.0625H1.65625C1.39781 9.0625 1.1875 8.85219 1.1875 8.59375V1.40625C1.1875 1.14781 1.39781 0.9375 1.65625 0.9375H4.01648C4.19898 0.9375 4.37634 1.0016 4.51697 1.11816L6.04407 2.39136C6.12813 2.46167 6.23406 2.5 6.34375 2.5H11.3438C11.6022 2.5 11.8125 2.71031 11.8125 2.96875V4.83704C12.1572 5.01735 12.4722 5.24551 12.75 5.5127V2.96875C12.75 2.19344 12.1191 1.5625 11.3438 1.5625H6.51343L5.11633 0.397949C4.8079 0.141387 4.41742 0 4.01648 0H1.65625ZM9.9375 5C8.03906 5 6.5 6.53906 6.5 8.4375C6.5 10.3359 8.03906 11.875 9.9375 11.875C11.8359 11.875 13.375 10.3359 13.375 8.4375C13.375 6.53906 11.8359 5 9.9375 5ZM9.9375 5.9375C10.11 5.9375 10.25 6.0775 10.25 6.25V8.125H12.125C12.2975 8.125 12.4375 8.265 12.4375 8.4375C12.4375 8.61 12.2975 8.75 12.125 8.75H10.25V10.625C10.25 10.7975 10.11 10.9375 9.9375 10.9375C9.765 10.9375 9.625 10.7975 9.625 10.625V8.75H7.75C7.5775 8.75 7.4375 8.61 7.4375 8.4375C7.4375 8.265 7.5775 8.125 7.75 8.125H9.625V6.25C9.625 6.0775 9.765 5.9375 9.9375 5.9375Z" fill="white"/>
</svg>
