<!-- <svg width="14" height="14" viewBox="0 0 14 14" fill="none" xmlns="http://www.w3.org/2000/svg">
<path d="M9.58632 8.89819L12.9988 5.48395L8.51747 1L5.10352 4.41424" stroke="white" stroke-miterlimit="10" stroke-linecap="round" stroke-linejoin="round"/>
<path d="M2.42668 11.1427C2.19007 11.1427 1.99805 11.3348 1.99805 11.5714C1.99805 11.808 2.19007 12 2.42668 12C2.66329 12 2.85532 11.808 2.85532 11.5714C2.85532 11.3348 2.66329 11.1427 2.42668 11.1427Z" fill="white"/>
<path d="M6.17522 9.23694C6.17522 9.23694 3.96096 12.036 3.40954 12.5869C2.85812 13.1383 1.96499 13.1383 1.41357 12.5869C0.862145 12.0355 0.862145 11.1423 1.41357 10.5909C1.96499 10.0401 4.76381 7.82581 4.76381 7.82581C5.25695 7.33325 4.02525 5.47784 4.02525 5.47784L5.57295 3.93015L10.0706 8.42838L8.52291 9.97607C8.52291 9.97607 6.75522 8.65695 6.17522 9.23694Z" stroke="white" stroke-miterlimit="10" stroke-linecap="round" stroke-linejoin="round"/>
<path d="M12.1519 5.0806L12.253 4.97945L10.7377 3.46408L10.4345 3.16089L9.92927 2.65568L9.72724 2.45393L9.32318 2.04987L9.01999 1.74669L8.51478 1.24147L6.99941 2.75683C6.77624 2.98001 6.77624 3.34178 6.99941 3.56495C7.22259 3.78813 7.58436 3.78813 7.80753 3.56495L8.11072 3.26177C8.22245 3.15004 8.40333 3.15004 8.51478 3.26177C8.62651 3.3735 8.62651 3.55438 8.51478 3.66583C8.23588 3.94472 8.23588 4.39708 8.51478 4.67626C8.79368 4.95516 9.24603 4.95516 9.52521 4.67626L9.62637 4.5751C9.84954 4.35193 10.2113 4.35193 10.4345 4.5751C10.6577 4.79828 10.6577 5.16004 10.4345 5.38322L10.2325 5.58525C9.89755 5.92016 9.89755 6.46281 10.2325 6.79771C10.5674 7.13262 11.11 7.13262 11.4449 6.79771L12.6574 5.58525L12.1519 5.0806Z" fill="white"/>
</svg> -->

<svg width="14" height="14" viewBox="0 0 14 14" fill="none" xmlns="http://www.w3.org/2000/svg">
<path d="M1.92509 0C0.868121 0 0 0.890337 0 1.97436V3.41026C0 4.49428 0.868121 5.38462 1.92509 5.38462H10.6755C11.7325 5.38462 12.6006 4.49428 12.6006 3.41026V3.23077H12.7749C12.8782 3.23077 12.9499 3.30434 12.9499 3.41026V5.66366C12.9499 5.75652 12.8911 5.82727 12.8016 5.84105L6.99351 6.73427C6.39764 6.82604 5.95029 7.35946 5.95029 7.97736V8.36649C5.34403 8.59198 4.90024 9.17649 4.90024 9.8718V12.3846C4.90024 13.2704 5.61165 14 6.47532 14C7.33898 14 8.05039 13.2704 8.05039 12.3846V9.8718C8.05039 9.17649 7.6066 8.59198 7.00034 8.36649V7.97736C7.00034 7.8845 7.05991 7.81306 7.14937 7.79928L12.9568 6.90605C12.957 6.90605 12.9572 6.90605 12.9575 6.90605C13.5533 6.81429 14 6.28157 14 5.66366V3.41026C14 2.72284 13.4452 2.15385 12.7749 2.15385H12.6006V1.97436C12.6006 0.890337 11.7325 0 10.6755 0H1.92509ZM1.92509 1.07692H10.6755C11.1649 1.07692 11.5506 1.47243 11.5506 1.97436V2.59906C11.5403 2.65984 11.5403 2.72197 11.5506 2.78275V3.41026C11.5506 3.91218 11.1649 4.30769 10.6755 4.30769H1.92509C1.43569 4.30769 1.05005 3.91218 1.05005 3.41026V1.97436C1.05005 1.47243 1.43569 1.07692 1.92509 1.07692ZM6.45891 9.34034C6.47007 9.34071 6.48124 9.34071 6.49241 9.34034C6.77884 9.35072 7.00034 9.57486 7.00034 9.8718V12.3846C7.00034 12.6885 6.77161 12.9231 6.47532 12.9231C6.17903 12.9231 5.95029 12.6885 5.95029 12.3846V9.8718C5.95029 9.57462 6.17214 9.35038 6.45891 9.34034Z" fill="white"/>
</svg>
