<svg width="36" height="38" viewBox="0 0 36 38" fill="none" xmlns="http://www.w3.org/2000/svg">
<path d="M2.5 0C1.13641 0 0 1.13641 0 2.5V8.5C0 9.67017 0.900844 10.53 2 10.791V31.5C2 35.0719 4.92806 38 8.5 38H27.5C31.0719 38 34 35.0719 34 31.5V10.791C35.0992 10.53 36 9.67017 36 8.5V2.5C36 1.13641 34.8636 0 33.5 0H2.5ZM3 3H33V8H3V3ZM5 11H31V31.5C31 33.4501 29.4501 35 27.5 35H8.5C6.54994 35 5 33.4501 5 31.5V11ZM13.5 17C13.3012 16.9972 13.1039 17.0339 12.9194 17.108C12.735 17.1822 12.5671 17.2922 12.4255 17.4318C12.284 17.5713 12.1716 17.7376 12.0949 17.921C12.0181 18.1044 11.9786 18.3012 11.9786 18.5C11.9786 18.6988 12.0181 18.8956 12.0949 19.079C12.1716 19.2624 12.284 19.4287 12.4255 19.5682C12.5671 19.7078 12.735 19.8178 12.9194 19.892C13.1039 19.9661 13.3012 20.0028 13.5 20H22.5C22.6988 20.0028 22.8961 19.9661 23.0806 19.892C23.265 19.8178 23.4329 19.7078 23.5745 19.5682C23.716 19.4287 23.8284 19.2624 23.9051 19.079C23.9819 18.8956 24.0214 18.6988 24.0214 18.5C24.0214 18.3012 23.9819 18.1044 23.9051 17.921C23.8284 17.7376 23.716 17.5713 23.5745 17.4318C23.4329 17.2922 23.265 17.1822 23.0806 17.108C22.8961 17.0339 22.6988 16.9972 22.5 17H13.5Z" fill="white"/>
</svg>
