<svg width="13" height="14" viewBox="0 0 13 14" fill="none" xmlns="http://www.w3.org/2000/svg">
<path d="M1.98613 0C0.895644 0 0 0.913767 0 2.02632V11.9737C0 13.0862 0.895644 14 1.98613 14H6.3195C7.40998 14 8.30562 13.0862 8.30562 11.9737V8.47368H7.22228V11.9737C7.22228 12.4888 6.82441 12.8947 6.3195 12.8947H1.98613C1.48121 12.8947 1.08334 12.4888 1.08334 11.9737V2.02632C1.08334 1.51118 1.48121 1.10526 1.98613 1.10526H6.3195C6.82441 1.10526 7.22228 1.51118 7.22228 2.02632V5.52632H8.30562V2.02632C8.30562 0.913767 7.40998 0 6.3195 0H1.98613ZM9.92499 3.86266C9.81719 3.86269 9.71185 3.89553 9.62245 3.95698C9.53304 4.01843 9.46364 4.1057 9.42312 4.20761C9.3826 4.30953 9.37281 4.42146 9.395 4.52909C9.41718 4.63672 9.47033 4.73515 9.54766 4.81178L11.1508 6.44737H3.06947C2.99769 6.44633 2.92643 6.45986 2.85982 6.48717C2.79321 6.51448 2.73259 6.55502 2.68147 6.60644C2.63035 6.65786 2.58976 6.71913 2.56206 6.78669C2.53435 6.85425 2.52008 6.92676 2.52008 7C2.52008 7.07324 2.53435 7.14574 2.56206 7.21331C2.58976 7.28087 2.63035 7.34214 2.68147 7.39356C2.73259 7.44498 2.79321 7.48552 2.85982 7.51283C2.92643 7.54014 2.99769 7.55367 3.06947 7.55263H11.1508L9.54766 9.18822C9.49567 9.23914 9.45417 9.30014 9.42558 9.36763C9.39699 9.43512 9.38188 9.50775 9.38115 9.58127C9.38042 9.6548 9.39407 9.72773 9.42131 9.7958C9.44855 9.86387 9.48883 9.92571 9.53979 9.9777C9.59075 10.0297 9.65136 10.0708 9.71809 10.0986C9.78481 10.1264 9.85629 10.1403 9.92835 10.1396C10.0004 10.1388 10.0716 10.1234 10.1378 10.0942C10.2039 10.0651 10.2637 10.0227 10.3136 9.96968L12.8414 7.39073C12.943 7.28709 13 7.14654 13 7C13 6.85346 12.943 6.71291 12.8414 6.60927L10.3136 4.03032C10.2631 3.97728 10.2027 3.93511 10.136 3.90631C10.0692 3.87751 9.99747 3.86267 9.92499 3.86266V3.86266Z" fill="black"/>
</svg>
