<svg width="15" height="14" viewBox="0 0 15 14" fill="none" xmlns="http://www.w3.org/2000/svg">
<path d="M4.125 0C1.85342 0 0 1.85342 0 4.125C0 5.66106 1.15787 7.10734 2.56934 8.59058C3.98081 10.0738 5.71814 11.5761 7.10229 12.9602C7.20779 13.0657 7.35084 13.1249 7.5 13.1249C7.64916 13.1249 7.79221 13.0657 7.89771 12.9602C9.28186 11.5761 11.0192 10.0738 12.4307 8.59058C13.8421 7.10734 15 5.66106 15 4.125C15 1.85342 13.1466 0 10.875 0C9.57134 0 8.43631 0.699933 7.5 1.88892C6.56369 0.699933 5.42866 0 4.125 0ZM4.125 1.125C5.22321 1.125 6.13736 1.7094 7.02466 3.11279C7.0754 3.19296 7.14558 3.25898 7.22869 3.30474C7.3118 3.35049 7.40513 3.37448 7.5 3.37448C7.59487 3.37448 7.6882 3.35049 7.77131 3.30474C7.85442 3.25898 7.9246 3.19296 7.97534 3.11279C8.86264 1.7094 9.77679 1.125 10.875 1.125C12.5387 1.125 13.875 2.46133 13.875 4.125C13.875 5.02644 12.9704 6.39266 11.6162 7.81567C10.3813 9.11333 8.84637 10.469 7.5 11.7817C6.15363 10.469 4.61865 9.11333 3.38379 7.81567C2.02963 6.39266 1.125 5.02644 1.125 4.125C1.125 2.46133 2.46133 1.125 4.125 1.125Z" fill="#2E3235"/>
</svg>
