<svg width="8" height="10" viewBox="0 0 8 10" fill="none" xmlns="http://www.w3.org/2000/svg">
<path d="M0.944408 7.65798e-05C0.808351 -0.00165745 0.67356 0.0260759 0.549505 0.0813283C0.42545 0.136581 0.315141 0.218012 0.226328 0.3199C0.137515 0.421789 0.0723519 0.541663 0.0354177 0.6711C-0.00151651 0.800538 -0.00932599 0.936399 0.0125377 1.06914V8.92829C-0.00974875 9.06122 -0.00225758 9.19736 0.034483 9.32712C0.0712236 9.45687 0.136319 9.57708 0.225178 9.67927C0.314038 9.78146 0.424498 9.86313 0.548768 9.91853C0.673038 9.97394 0.808093 10.0017 0.944408 9.99992H4.93814C6.61812 9.99992 8 8.6341 8 6.97365C8 5.94112 7.43266 5.06756 6.62455 4.52046C6.96012 4.04974 7.20125 3.5089 7.20125 2.89477C7.20125 1.30698 5.87898 7.65798e-05 4.27252 7.65798e-05H0.944408ZM1.87628 1.84215H4.27252C4.87166 1.84215 5.33751 2.30259 5.33751 2.89477C5.33751 3.48695 4.87166 3.94738 4.27252 3.94738H2.0094C1.96487 3.94715 1.92039 3.95007 1.87628 3.95612V1.84215ZM1.87628 5.78072C1.89889 5.78394 1.92161 5.78634 1.9444 5.78792C1.96604 5.78918 1.98772 5.78969 2.0094 5.78946H4.27252H4.93814C5.61074 5.78946 6.13626 6.30887 6.13626 6.97365C6.13626 7.63843 5.61074 8.15784 4.93814 8.15784H1.87628V5.78072Z" fill="black"/>
</svg>
