<svg width="13" height="11" viewBox="0 0 13 11" fill="none" xmlns="http://www.w3.org/2000/svg">
<path d="M1.55141 0.625C0.918594 0.625 0.426407 1.14062 0.426407 1.75C0.426407 2.38281 0.918594 2.875 1.55141 2.875C2.16078 2.875 2.67641 2.38281 2.67641 1.75C2.67641 1.14062 2.16078 0.625 1.55141 0.625ZM1.55141 4.375C0.918594 4.375 0.426407 4.89062 0.426407 5.5C0.426407 6.13281 0.918594 6.625 1.55141 6.625C2.16078 6.625 2.67641 6.13281 2.67641 5.5C2.67641 4.89062 2.16078 4.375 1.55141 4.375ZM1.55141 8.125C0.918594 8.125 0.426407 8.64062 0.426407 9.25C0.426407 9.88281 0.918594 10.375 1.55141 10.375C2.16078 10.375 2.67641 9.88281 2.67641 9.25C2.67641 8.64062 2.16078 8.125 1.55141 8.125ZM12.0514 8.5H4.55141C4.34047 8.5 4.17641 8.6875 4.17641 8.875V9.625C4.17641 9.83594 4.34047 10 4.55141 10H12.0514C12.2389 10 12.4264 9.83594 12.4264 9.625V8.875C12.4264 8.6875 12.2389 8.5 12.0514 8.5ZM12.0514 1H4.55141C4.34047 1 4.17641 1.1875 4.17641 1.375V2.125C4.17641 2.33594 4.34047 2.5 4.55141 2.5H12.0514C12.2389 2.5 12.4264 2.33594 12.4264 2.125V1.375C12.4264 1.1875 12.2389 1 12.0514 1ZM12.0514 4.75H4.55141C4.34047 4.75 4.17641 4.9375 4.17641 5.125V5.875C4.17641 6.08594 4.34047 6.25 4.55141 6.25H12.0514C12.2389 6.25 12.4264 6.08594 12.4264 5.875V5.125C12.4264 4.9375 12.2389 4.75 12.0514 4.75Z" fill="#424242"/>
</svg>
