<svg width="11" height="11" viewBox="0 0 11 11" fill="none" xmlns="http://www.w3.org/2000/svg">
<rect width="11" height="11" rx="1" fill="#0F9EFF"/>
<path d="M8.53102 3.00018C8.41264 3.00352 8.30025 3.05128 8.21765 3.13335L4.28566 6.93593L2.78469 5.48435C2.74268 5.44204 2.69238 5.40827 2.63671 5.385C2.58104 5.36173 2.52113 5.34944 2.46049 5.34885C2.39985 5.34825 2.3397 5.35936 2.28355 5.38153C2.22741 5.4037 2.1764 5.43648 2.13352 5.47795C2.09064 5.51942 2.05674 5.56875 2.03382 5.62304C2.0109 5.67734 1.99941 5.73552 2.00002 5.79416C2.00064 5.85281 2.01335 5.91075 2.03741 5.96458C2.06147 6.01842 2.09639 6.06707 2.14014 6.10769L3.96339 7.87094C4.04887 7.95358 4.1648 8 4.28566 8C4.40653 8 4.52245 7.95358 4.60794 7.87094L8.86219 3.75668C8.92795 3.69475 8.97285 3.61506 8.991 3.52804C9.00915 3.44102 8.99972 3.35073 8.96393 3.26898C8.92814 3.18723 8.86767 3.11784 8.79043 3.06988C8.71319 3.02192 8.62277 2.99763 8.53102 3.00018Z" fill="white"/>
</svg>
