<svg width="14" height="10" viewBox="0 0 14 10" fill="none" xmlns="http://www.w3.org/2000/svg">
<path d="M8.42682 4.56323e-05C8.3251 0.00153751 8.22653 0.0348421 8.14548 0.0951015C8.06443 0.155361 8.00515 0.239423 7.97628 0.335027L5.1127 9.37829C5.09163 9.43756 5.08294 9.50037 5.08716 9.56299C5.09138 9.62562 5.1084 9.68677 5.13723 9.74281C5.16606 9.79885 5.2061 9.84862 5.25497 9.88918C5.30383 9.92974 5.36052 9.96025 5.42167 9.97889C5.48281 9.99753 5.54716 10.0039 5.61088 9.99768C5.67459 9.99145 5.73638 9.97271 5.79255 9.94258C5.84873 9.91246 5.89814 9.87156 5.93786 9.82233C5.97757 9.7731 6.00677 9.71654 6.02372 9.65602L8.8873 0.612756C8.91083 0.542007 8.9168 0.466779 8.90471 0.393317C8.89262 0.319855 8.86282 0.250279 8.8178 0.190366C8.77277 0.130453 8.71381 0.0819325 8.64581 0.048832C8.57781 0.0157315 8.50274 -0.000993603 8.42682 4.56323e-05ZM3.66226 1.56045C3.53816 1.56094 3.41913 1.60878 3.33042 1.69383L0.148658 4.65628C0.101693 4.69998 0.0642933 4.7526 0.0387364 4.81092C0.0131796 4.86924 0 4.93205 0 4.99552C0 5.059 0.0131796 5.12181 0.0387364 5.18013C0.0642933 5.23845 0.101693 5.29106 0.148658 5.33477L3.33042 8.29722C3.37587 8.33954 3.42938 8.37267 3.4879 8.39472C3.54642 8.41677 3.6088 8.42731 3.67147 8.42573C3.73415 8.42415 3.79589 8.41048 3.85318 8.38552C3.91046 8.36055 3.96217 8.32477 4.00535 8.28021C4.04852 8.23566 4.08232 8.1832 4.10481 8.12585C4.1273 8.06849 4.13804 8.00735 4.13642 7.94593C4.1348 7.8845 4.12085 7.82399 4.09536 7.76785C4.06988 7.71171 4.03336 7.66104 3.9879 7.61873L1.1703 4.99552L3.9879 2.37232C4.0587 2.3084 4.10813 2.22499 4.12969 2.13304C4.15126 2.0411 4.14395 1.94491 4.10873 1.8571C4.07352 1.7693 4.01203 1.69398 3.93235 1.64104C3.85268 1.5881 3.75852 1.56 3.66226 1.56045ZM10.3234 1.56106C10.2285 1.5635 10.1365 1.59363 10.0592 1.6476C9.98183 1.70157 9.92266 1.77691 9.88923 1.86401C9.85581 1.9511 9.84965 2.04599 9.87153 2.13654C9.89342 2.22709 9.94236 2.30918 10.0121 2.37232L12.8297 4.99552L10.0121 7.61873C9.96664 7.66104 9.93012 7.71171 9.90464 7.76785C9.87915 7.82399 9.8652 7.8845 9.86358 7.94593C9.86196 8.00735 9.8727 8.06849 9.89519 8.12585C9.91768 8.1832 9.95148 8.23566 9.99465 8.28021C10.0378 8.32477 10.0895 8.36055 10.1468 8.38552C10.2041 8.41048 10.2659 8.42415 10.3285 8.42573C10.3912 8.42731 10.4536 8.41677 10.5121 8.39472C10.5706 8.37267 10.6241 8.33954 10.6696 8.29722L13.8513 5.33477C13.8983 5.29106 13.9357 5.23845 13.9613 5.18013C13.9868 5.12181 14 5.059 14 4.99552C14 4.93205 13.9868 4.86924 13.9613 4.81092C13.9357 4.7526 13.8983 4.69998 13.8513 4.65628L10.6696 1.69383C10.6239 1.65014 10.5697 1.61587 10.5102 1.59306C10.4508 1.57026 10.3873 1.55937 10.3234 1.56106Z" fill="black"/>
</svg>
