<svg width="9" height="10" viewBox="0 0 9 10" fill="none" xmlns="http://www.w3.org/2000/svg">
<path d="M6.30868 0.00047238C6.29269 0.00124416 6.27676 0.00296837 6.26096 0.00563659H3.23606C3.18023 0.00481073 3.12481 0.0155991 3.073 0.0373747C3.02119 0.0591503 2.97404 0.0914788 2.93428 0.132482C2.89452 0.173484 2.86295 0.222343 2.8414 0.27622C2.81985 0.330096 2.80875 0.387915 2.80875 0.446316C2.80875 0.504717 2.81985 0.562535 2.8414 0.616411C2.86295 0.670287 2.89452 0.719147 2.93428 0.760149C2.97404 0.801152 3.02119 0.833481 3.073 0.855256C3.12481 0.877032 3.18023 0.88782 3.23606 0.886994H5.71073L2.66663 9.113H0.427313C0.371484 9.11218 0.316055 9.12296 0.264247 9.14474C0.212439 9.16652 0.165285 9.19884 0.125526 9.23985C0.085767 9.28085 0.0541954 9.32971 0.0326462 9.38358C0.0110971 9.43746 0 9.49528 0 9.55368C0 9.61208 0.0110971 9.6699 0.0326462 9.72378C0.0541954 9.77765 0.085767 9.82651 0.125526 9.86751C0.165285 9.90852 0.212439 9.94085 0.264247 9.96262C0.316055 9.9844 0.371484 9.99519 0.427313 9.99436H2.88552C2.93003 10.0019 2.97541 10.0019 3.01992 9.99436H6.32569C6.38152 9.99519 6.43695 9.9844 6.48875 9.96262C6.54056 9.94085 6.58772 9.90852 6.62748 9.86751C6.66723 9.82651 6.69881 9.77765 6.72036 9.72378C6.7419 9.6699 6.753 9.61208 6.753 9.55368C6.753 9.49528 6.7419 9.43746 6.72036 9.38358C6.69881 9.32971 6.66723 9.28085 6.62748 9.23985C6.58772 9.19884 6.54056 9.16652 6.48875 9.14474C6.43695 9.12296 6.38152 9.11218 6.32569 9.113H3.57015L6.61424 0.886994H8.57269C8.62852 0.88782 8.68395 0.877032 8.73575 0.855256C8.78756 0.833481 8.83472 0.801152 8.87447 0.760149C8.91423 0.719147 8.94581 0.670287 8.96735 0.616411C8.9889 0.562535 9 0.504717 9 0.446316C9 0.387915 8.9889 0.330096 8.96735 0.27622C8.94581 0.222343 8.91423 0.173484 8.87447 0.132482C8.83472 0.0914788 8.78756 0.0591503 8.73575 0.0373747C8.68395 0.0155991 8.62852 0.00481073 8.57269 0.00563659H6.39536C6.36671 0.000798156 6.33767 -0.000932435 6.30868 0.00047238Z" fill="black"/>
</svg>
