<svg width="13" height="11" viewBox="0 0 13 11" fill="none" xmlns="http://www.w3.org/2000/svg">
<path d="M1.85609 8.89844L2.27797 8.42969C2.34828 8.35938 2.39516 8.24219 2.39516 8.125V8.10156V8.03125C2.39516 7.84375 2.30141 7.75 2.13734 7.75H0.801407C0.684219 7.75 0.613907 7.84375 0.613907 7.9375V8.3125C0.613907 8.42969 0.684219 8.5 0.801407 8.5H1.31703C1.22328 8.59375 1.15297 8.6875 1.05922 8.80469L0.942032 8.96875C0.848282 9.08594 0.801407 9.20312 0.871719 9.32031L0.895157 9.36719C0.965469 9.48438 1.03578 9.53125 1.17641 9.53125H1.29359C1.52797 9.53125 1.66859 9.60156 1.66859 9.76562C1.66859 9.85938 1.57484 9.95312 1.34047 9.95312C1.19984 9.95312 1.08266 9.92969 0.965469 9.88281C0.824844 9.78906 0.684219 9.78906 0.590469 9.95312L0.473282 10.1641C0.379532 10.3047 0.402969 10.4453 0.543594 10.5391C0.707657 10.6562 1.01234 10.75 1.41078 10.75C2.20766 10.75 2.53578 10.2344 2.53578 9.71875C2.53578 9.39062 2.32484 9.03906 1.85609 8.89844ZM12.0514 4.75H4.55141C4.34047 4.75 4.17641 4.9375 4.17641 5.125V5.875C4.17641 6.08594 4.34047 6.25 4.55141 6.25H12.0514C12.2389 6.25 12.4264 6.08594 12.4264 5.875V5.125C12.4264 4.9375 12.2389 4.75 12.0514 4.75ZM12.0514 1H4.55141C4.34047 1 4.17641 1.1875 4.17641 1.375V2.125C4.17641 2.33594 4.34047 2.5 4.55141 2.5H12.0514C12.2389 2.5 12.4264 2.33594 12.4264 2.125V1.375C12.4264 1.1875 12.2389 1 12.0514 1ZM12.0514 8.5H4.55141C4.34047 8.5 4.17641 8.6875 4.17641 8.875V9.625C4.17641 9.83594 4.34047 10 4.55141 10H12.0514C12.2389 10 12.4264 9.83594 12.4264 9.625V8.875C12.4264 8.6875 12.2389 8.5 12.0514 8.5ZM0.801407 3.25H2.30141C2.39516 3.25 2.48891 3.17969 2.48891 3.0625V2.6875C2.48891 2.59375 2.39516 2.5 2.30141 2.5H1.92641V0.4375C1.92641 0.34375 1.83266 0.25 1.73891 0.25H1.17641C1.08266 0.273438 1.03578 0.296875 0.988907 0.367188L0.801407 0.742188C0.801407 0.765625 0.801407 0.789062 0.801407 0.8125C0.801407 0.929688 0.871719 1 0.988907 1H1.17641V2.5H0.801407C0.684219 2.5 0.613907 2.59375 0.613907 2.6875V3.0625C0.613907 3.17969 0.684219 3.25 0.801407 3.25ZM0.707657 7H2.30141C2.39516 7 2.48891 6.92969 2.48891 6.8125V6.4375C2.48891 6.34375 2.39516 6.25 2.30141 6.25H1.38734C1.45766 6.01562 2.51234 5.82812 2.51234 4.9375C2.51234 4.25781 1.92641 4 1.48109 4C0.965469 4 0.684219 4.23438 0.520157 4.44531C0.426407 4.58594 0.449844 4.70312 0.590469 4.82031L0.801407 4.96094C0.918594 5.07812 1.05922 5.03125 1.17641 4.91406C1.22328 4.86719 1.29359 4.82031 1.38734 4.82031C1.48109 4.82031 1.59828 4.86719 1.59828 5.03125C1.62172 5.33594 0.426407 5.54688 0.426407 6.64844V6.74219C0.426407 6.90625 0.543594 7 0.707657 7Z" fill="#424242"/>
</svg>
