<svg width="9" height="10" viewBox="0 0 9 10" fill="none" xmlns="http://www.w3.org/2000/svg">
<path d="M4.35956 0C2.8038 0 1.1295 0.782353 1.1295 2.5C1.1295 3.06706 1.33686 3.49118 1.66492 3.82353H3.39296C2.49219 3.49912 1.97213 3.14941 1.97213 2.5C1.97213 1.22029 3.53379 0.882353 4.35956 0.882353C5.77573 0.882353 6.57017 1.61781 6.60163 1.64752C6.7724 1.81281 7.03899 1.80192 7.19684 1.62339C7.35469 1.44457 7.34457 1.16513 7.1738 0.999541C7.13139 0.958658 6.12065 0 4.35956 0ZM0.427313 4.70588C0.371484 4.70506 0.316055 4.71586 0.264247 4.73766C0.212439 4.75946 0.165285 4.79182 0.125526 4.83287C0.0857668 4.87392 0.0541954 4.92283 0.0326462 4.97677C0.0110971 5.03071 0 5.08859 0 5.14706C0 5.20553 0.0110971 5.26341 0.0326462 5.31735C0.0541954 5.37128 0.0857668 5.4202 0.125526 5.46125C0.165285 5.5023 0.212439 5.53466 0.264247 5.55646C0.316055 5.57826 0.371484 5.58906 0.427313 5.58824H5.83855C6.588 5.95098 7.02788 6.41639 7.02788 7.20588C7.02788 7.87265 6.24508 9.11765 4.35956 9.11765C2.626 9.11765 1.64011 7.86603 1.59854 7.8125C1.45333 7.6225 1.18916 7.59152 1.00771 7.74299C0.825708 7.89476 0.795308 8.17223 0.940239 8.36282C0.991077 8.42988 2.20862 10 4.35956 10C6.75458 10 7.8705 8.33265 7.8705 7.20588C7.8705 6.51417 7.64434 5.994 7.28736 5.58824H8.57269C8.62852 5.58906 8.68395 5.57826 8.73575 5.55646C8.78756 5.53466 8.83472 5.5023 8.87447 5.46125C8.91423 5.4202 8.94581 5.37128 8.96735 5.31735C8.9889 5.26341 9 5.20553 9 5.14706C9 5.08859 8.9889 5.03071 8.96735 4.97677C8.94581 4.92283 8.91423 4.87392 8.87447 4.83287C8.83472 4.79182 8.78756 4.75946 8.73575 4.73766C8.68395 4.71586 8.62852 4.70506 8.57269 4.70588H0.427313Z" fill="black"/>
</svg>
