<svg width="16" height="10" viewBox="0 0 16 10" fill="none" xmlns="http://www.w3.org/2000/svg">
<path d="M3.9917 0.000100999C3.91892 0.00175962 3.84818 0.0256797 3.7881 0.0689432C3.72802 0.112207 3.68119 0.172944 3.65334 0.243744L0.0285449 9.45388C-0.009526 9.55067 -0.00951452 9.65942 0.0285766 9.7562C0.0666678 9.85298 0.139718 9.92987 0.231658 9.96995C0.323598 10.01 0.426896 10.01 0.518828 9.96992C0.610759 9.92982 0.683794 9.85291 0.721865 9.75612L1.55824 7.63118H6.44176L7.27813 9.75612C7.29699 9.80404 7.32462 9.84759 7.35946 9.88428C7.39429 9.92096 7.43565 9.95006 7.48117 9.96992C7.52669 9.98977 7.57548 9.99999 7.62475 10C7.67403 10 7.72282 9.98979 7.76834 9.96995C7.81387 9.9501 7.85523 9.92101 7.89008 9.88434C7.92492 9.84766 7.95256 9.80412 7.97142 9.7562C7.99028 9.70828 7.99999 9.65691 8 9.60504C8.00001 9.55317 7.99031 9.5018 7.97146 9.45388L4.34666 0.243744C4.31773 0.170191 4.26835 0.107565 4.205 0.0640848C4.14165 0.0206043 4.0673 -0.00169929 3.9917 0.000100999ZM4 1.42701L6.13123 6.84165H1.86877L4 1.42701Z" fill="black"/>
<path d="M15.6737 4L12.3263 4C12.078 4 11.9209 4.21775 12.0413 4.39521L12.8781 5.62903L13.715 6.86284C13.839 7.04572 14.161 7.04572 14.285 6.86284L15.9587 4.39521C16.0791 4.21775 15.922 4 15.6737 4Z" fill="#1A1A1A"/>
</svg>
