<svg width="16" height="8" viewBox="0 0 16 8" fill="none" xmlns="http://www.w3.org/2000/svg">
<path d="M3.79052 5.1693e-05C1.70313 5.1693e-05 0 1.70318 0 3.79057C0 5.87796 1.70313 7.58109 3.79052 7.58109H5.34118C5.40968 7.58205 5.47768 7.5694 5.54124 7.54386C5.6048 7.51832 5.66265 7.4804 5.71143 7.4323C5.76021 7.38421 5.79895 7.3269 5.82538 7.26371C5.85182 7.20052 5.86544 7.1327 5.86544 7.0642C5.86544 6.9957 5.85182 6.92788 5.82538 6.86469C5.79895 6.80149 5.76021 6.74418 5.71143 6.69609C5.66265 6.648 5.6048 6.61008 5.54124 6.58454C5.47768 6.55899 5.40968 6.54634 5.34118 6.54731H3.79052C2.26175 6.54731 1.03378 5.31933 1.03378 3.79057C1.03378 2.2618 2.26175 1.03383 3.79052 1.03383H5.34118C5.40968 1.0348 5.47768 1.02214 5.54124 0.996602C5.6048 0.971061 5.66265 0.933141 5.71143 0.885048C5.76021 0.836954 5.79895 0.779645 5.82538 0.716452C5.85182 0.653259 5.86544 0.585441 5.86544 0.51694C5.86544 0.44844 5.85182 0.380622 5.82538 0.317429C5.79895 0.254235 5.76021 0.196927 5.71143 0.148833C5.66265 0.100739 5.6048 0.0628199 5.54124 0.0372785C5.47768 0.011737 5.40968 -0.000916981 5.34118 5.1693e-05H3.79052ZM9.82089 5.1693e-05C9.75239 -0.000916981 9.68439 0.011737 9.62083 0.0372785C9.55727 0.0628199 9.49942 0.100739 9.45064 0.148833C9.40186 0.196927 9.36313 0.254235 9.33669 0.317429C9.31025 0.380622 9.29664 0.44844 9.29664 0.51694C9.29664 0.585441 9.31025 0.653259 9.33669 0.716452C9.36313 0.779645 9.40186 0.836954 9.45064 0.885048C9.49942 0.933141 9.55727 0.971061 9.62083 0.996602C9.68439 1.02214 9.75239 1.0348 9.82089 1.03383H11.3716C12.9003 1.03383 14.1283 2.2618 14.1283 3.79057C14.1283 5.31933 12.9003 6.54731 11.3716 6.54731H9.82089C9.75239 6.54634 9.68439 6.55899 9.62083 6.58454C9.55727 6.61008 9.49942 6.648 9.45064 6.69609C9.40186 6.74418 9.36313 6.80149 9.33669 6.86469C9.31025 6.92788 9.29664 6.9957 9.29664 7.0642C9.29664 7.1327 9.31025 7.20052 9.33669 7.26371C9.36313 7.3269 9.40186 7.38421 9.45064 7.4323C9.49942 7.4804 9.55727 7.51832 9.62083 7.54386C9.68439 7.5694 9.75239 7.58205 9.82089 7.58109H11.3716C13.4589 7.58109 15.1621 5.87796 15.1621 3.79057C15.1621 1.70318 13.4589 5.1693e-05 11.3716 5.1693e-05H9.82089ZM3.27363 3.27368C3.20514 3.27271 3.13713 3.28537 3.07357 3.31091C3.01001 3.33645 2.95216 3.37437 2.90338 3.42246C2.8546 3.47056 2.81587 3.52786 2.78943 3.59106C2.76299 3.65425 2.74938 3.72207 2.74938 3.79057C2.74938 3.85907 2.76299 3.92689 2.78943 3.99008C2.81587 4.05327 2.8546 4.11058 2.90338 4.15868C2.95216 4.20677 3.01001 4.24469 3.07357 4.27023C3.13713 4.29577 3.20514 4.30843 3.27363 4.30746H11.8884C11.9569 4.30843 12.0249 4.29577 12.0885 4.27023C12.1521 4.24469 12.2099 4.20677 12.2587 4.15868C12.3075 4.11058 12.3462 4.05327 12.3726 3.99008C12.3991 3.92689 12.4127 3.85907 12.4127 3.79057C12.4127 3.72207 12.3991 3.65425 12.3726 3.59106C12.3462 3.52786 12.3075 3.47056 12.2587 3.42246C12.2099 3.37437 12.1521 3.33645 12.0885 3.31091C12.0249 3.28537 11.9569 3.27271 11.8884 3.27368H3.27363Z" fill="#424242"/>
</svg>
