<svg width="8" height="10" viewBox="0 0 8 10" fill="none" xmlns="http://www.w3.org/2000/svg">
<path d="M0.398879 4.6945e-05C0.293034 0.00163831 0.192173 0.0435956 0.11845 0.116703C0.0447269 0.18981 0.00417039 0.288089 0.00568877 0.389953V4.74649C0.00568877 6.79421 1.73906 8.46236 3.86686 8.46236C5.99465 8.46236 7.72802 6.79421 7.72802 4.74649V0.389953C7.72877 0.339015 7.71899 0.288443 7.69926 0.241174C7.67952 0.193905 7.65022 0.150882 7.61305 0.114606C7.57589 0.0783306 7.5316 0.0495251 7.48277 0.0298639C7.43393 0.0102027 7.38153 7.7861e-05 7.32859 7.7861e-05C7.27566 7.7861e-05 7.22325 0.0102027 7.17442 0.0298639C7.12559 0.0495251 7.0813 0.0783306 7.04413 0.114606C7.00697 0.150882 6.97767 0.193905 6.95793 0.241174C6.93819 0.288443 6.92841 0.339015 6.92916 0.389953V4.74649C6.92916 6.37876 5.56295 7.69356 3.86686 7.69356C2.17076 7.69356 0.804551 6.37876 0.804551 4.74649V0.389953C0.805318 0.338503 0.795345 0.287429 0.775223 0.239757C0.755101 0.192085 0.72524 0.148786 0.687409 0.112425C0.649578 0.0760645 0.604547 0.0473823 0.554985 0.0280787C0.505423 0.00877511 0.452339 -0.000757123 0.398879 4.6945e-05ZM0.40512 9.23116C0.352191 9.23044 0.29964 9.23985 0.250523 9.25885C0.201406 9.27784 0.156701 9.30604 0.119006 9.34181C0.0813123 9.37757 0.0513806 9.42019 0.0309506 9.46719C0.0105206 9.51418 0 9.56462 0 9.61556C0 9.6665 0.0105206 9.71694 0.0309506 9.76393C0.0513806 9.81093 0.0813123 9.85355 0.119006 9.88932C0.156701 9.92508 0.201406 9.95328 0.250523 9.97228C0.29964 9.99127 0.352191 10.0007 0.40512 9.99996H7.59488C7.64781 10.0007 7.70036 9.99127 7.74948 9.97228C7.7986 9.95328 7.8433 9.92508 7.88099 9.88932C7.91869 9.85355 7.94862 9.81093 7.96905 9.76393C7.98948 9.71694 8 9.6665 8 9.61556C8 9.56462 7.98948 9.51418 7.96905 9.46719C7.94862 9.42019 7.91869 9.37757 7.88099 9.34181C7.8433 9.30604 7.7986 9.27784 7.74948 9.25885C7.70036 9.23985 7.64781 9.23044 7.59488 9.23116H0.40512Z" fill="black"/>
</svg>
