<svg width="14" height="14" viewBox="0 0 14 14" fill="none" xmlns="http://www.w3.org/2000/svg">
<path d="M9.58632 8.89819L12.9988 5.48395L8.51747 1L5.10352 4.41424" stroke="#2E3235" stroke-miterlimit="10" stroke-linecap="round" stroke-linejoin="round"/>
<path d="M2.42668 11.1427C2.19007 11.1427 1.99805 11.3347 1.99805 11.5713C1.99805 11.8079 2.19007 12 2.42668 12C2.66329 12 2.85532 11.8079 2.85532 11.5713C2.85532 11.3347 2.66329 11.1427 2.42668 11.1427Z" fill="#2E3235"/>
<path d="M6.17522 9.23697C6.17522 9.23697 3.96096 12.0361 3.40954 12.5869C2.85812 13.1384 1.96499 13.1384 1.41357 12.5869C0.862145 12.0355 0.862145 11.1424 1.41357 10.591C1.96499 10.0401 4.76381 7.82584 4.76381 7.82584C5.25695 7.33328 4.02525 5.47787 4.02525 5.47787L5.57295 3.93018L10.0706 8.42841L8.52291 9.9761C8.52291 9.9761 6.75522 8.65698 6.17522 9.23697Z" stroke="#2E3235" stroke-miterlimit="10" stroke-linecap="round" stroke-linejoin="round"/>
<path d="M12.1519 5.08059L12.253 4.97943L10.7377 3.46407L10.4345 3.16088L9.92927 2.65566L9.72724 2.45392L9.32318 2.04986L9.01999 1.74667L8.51478 1.24146L6.99941 2.75682C6.77624 2.98 6.77624 3.34176 6.99941 3.56494C7.22259 3.78811 7.58436 3.78811 7.80753 3.56494L8.11072 3.26175C8.22245 3.15002 8.40333 3.15002 8.51478 3.26175C8.62651 3.37348 8.62651 3.55437 8.51478 3.66581C8.23588 3.94471 8.23588 4.39706 8.51478 4.67624C8.79368 4.95514 9.24603 4.95514 9.52521 4.67624L9.62637 4.57509C9.84954 4.35191 10.2113 4.35191 10.4345 4.57509C10.6577 4.79826 10.6577 5.16003 10.4345 5.3832L10.2325 5.58523C9.89755 5.92014 9.89755 6.46279 10.2325 6.7977C10.5674 7.1326 11.11 7.1326 11.4449 6.7977L12.6574 5.58523L12.1519 5.08059Z" fill="#2E3235"/>
</svg>
