<svg width="10" height="12" viewBox="0 0 10 12" fill="none" xmlns="http://www.w3.org/2000/svg">
<path d="M8.13698 11.0959L7.89196 11.4633C7.66865 11.7987 7.29224 12 6.889 12H2.86301C1.28172 12 0 10.7183 0 9.13699V3.30278C0 2.89985 0.201315 2.52344 0.536739 2.29982L0.904108 2.05481V9.13699C0.904108 10.2189 1.78109 11.0959 2.86301 11.0959H8.13698Z" fill="#2E3235"/>
<path d="M7.98637 10.0411H3.16446C2.49874 10.0411 1.95898 9.50133 1.95898 8.83561V2.20548C1.95898 1.53975 2.49874 1 3.16446 1H7.98637C8.6521 1 9.19185 1.53975 9.19185 2.20548V8.83561C9.19185 9.50133 8.6521 10.0411 7.98637 10.0411Z" stroke="#2E3235" stroke-miterlimit="10" stroke-linecap="round" stroke-linejoin="round"/>
</svg>
