<svg width="13" height="15" viewBox="0 0 13 15" fill="none" xmlns="http://www.w3.org/2000/svg">
<path fill-rule="evenodd" clip-rule="evenodd" d="M6.34143 1C5.73779 1 5.24827 1.48952 5.24827 2.09316V2.12422H7.43459V2.09316C7.43459 1.48952 6.94506 1 6.34143 1ZM4.24827 2.09316V2.12422H1.91609H0.5C0.223858 2.12422 0 2.34807 0 2.62422C0 2.90036 0.223858 3.12422 0.5 3.12422H1.41609V12.1832C1.41609 13.2414 2.27402 14.0993 3.33223 14.0993H9.35084C10.409 14.0993 11.267 13.2414 11.267 12.1832V3.12422H12.1832C12.4593 3.12422 12.6832 2.90036 12.6832 2.62422C12.6832 2.34807 12.4593 2.12422 12.1832 2.12422H10.767H8.43459V2.09316C8.43459 0.93724 7.49735 0 6.34143 0C5.18551 0 4.24827 0.93724 4.24827 2.09316ZM10.267 3.12422H2.41609V12.1832C2.41609 12.6891 2.82631 13.0993 3.33223 13.0993H9.35084C9.85676 13.0993 10.267 12.6891 10.267 12.1832V3.12422ZM5.10229 4.9565C5.37843 4.9565 5.60229 5.18036 5.60229 5.4565V10.767C5.60229 11.0432 5.37843 11.267 5.10229 11.267C4.82615 11.267 4.60229 11.0432 4.60229 10.767V5.4565C4.60229 5.18036 4.82615 4.9565 5.10229 4.9565ZM8.08088 5.4565C8.08088 5.18036 7.85703 4.9565 7.58088 4.9565C7.30474 4.9565 7.08088 5.18036 7.08088 5.4565V10.767C7.08088 11.0432 7.30474 11.267 7.58088 11.267C7.85703 11.267 8.08088 11.0432 8.08088 10.767V5.4565Z" fill="#2E3235"/>
</svg>
