<svg width="15" height="13" viewBox="0 0 15 13" fill="none" xmlns="http://www.w3.org/2000/svg">
<path fill-rule="evenodd" clip-rule="evenodd" d="M2.81242 1.92282C2.81242 1.41321 3.22563 1 3.73524 1H12.2722C12.7818 1 13.195 1.41321 13.195 1.92282V8.32552C13.195 8.83513 12.7818 9.24834 12.2722 9.24834H3.73524C3.22563 9.24834 2.81242 8.83513 2.81242 8.32552V1.92282ZM3.73524 0C2.67334 0 1.81242 0.860926 1.81242 1.92282V8.32552C1.81242 9.38742 2.67334 10.2483 3.73524 10.2483H12.2722C13.3341 10.2483 14.195 9.38742 14.195 8.32552V1.92282C14.195 0.860926 13.3341 0 12.2722 0H3.73524ZM12.1605 11.4269L12.4497 10.9933H3.3792C2.10222 10.9933 1.06712 9.95823 1.06712 8.68124V1.74498L0.633512 2.03417C0.237611 2.29811 0 2.74238 0 3.21796V8.68124C0 10.5476 1.51282 12.0604 3.3792 12.0604H10.9767C11.4527 12.0604 11.8969 11.8228 12.1605 11.4269ZM8.00353 2.84566C8.27967 2.84566 8.50353 3.06952 8.50353 3.34566V4.62419H9.78217C10.0583 4.62419 10.2822 4.84805 10.2822 5.12419C10.2822 5.40033 10.0583 5.62419 9.78217 5.62419H8.50353V6.90272C8.50353 7.17886 8.27967 7.40272 8.00353 7.40272C7.72739 7.40272 7.50353 7.17886 7.50353 6.90272V5.62419H6.22511C5.94897 5.62419 5.72511 5.40033 5.72511 5.12419C5.72511 4.84805 5.94897 4.62419 6.22511 4.62419H7.50353V3.34566C7.50353 3.06952 7.72739 2.84566 8.00353 2.84566Z" fill="#2E3235"/>
</svg>
