<svg width="11" height="15" viewBox="0 0 11 15" fill="none" xmlns="http://www.w3.org/2000/svg">
<path d="M2.84408 0.770813C1.57901 0.770813 0.541992 1.80783 0.541992 3.0729V13.6979C0.542021 13.7957 0.569036 13.8916 0.620063 13.975C0.671089 14.0584 0.744148 14.1261 0.831192 14.1707C0.918236 14.2152 1.01589 14.2349 1.1134 14.2275C1.21091 14.2201 1.30448 14.186 1.38383 14.1288L5.50033 11.1648L9.61682 14.1288C9.69617 14.186 9.78975 14.2201 9.88725 14.2275C9.98476 14.2349 10.0824 14.2152 10.1695 14.1707C10.2565 14.1261 10.3296 14.0584 10.3806 13.975C10.4316 13.8916 10.4586 13.7957 10.4587 13.6979V3.0729C10.4587 1.80783 9.42164 0.770813 8.15658 0.770813H2.84408ZM2.84408 1.83331H8.15658C8.84722 1.83331 9.39616 2.38225 9.39616 3.0729V12.661L5.81091 10.0794C5.72046 10.0143 5.61181 9.97921 5.50033 9.97921C5.38884 9.97921 5.28019 10.0143 5.18974 10.0794L1.60449 12.661V3.0729C1.60449 2.38225 2.15343 1.83331 2.84408 1.83331Z" fill="white"/>
</svg>
