<svg width="40" height="42" viewBox="0 0 40 42" fill="none" xmlns="http://www.w3.org/2000/svg">
<path d="M31.291 0.0162931C31.1059 -0.00713209 30.9139 -0.00540042 30.7246 0.0221525C30.3461 0.0772585 29.9755 0.236364 29.6777 0.506527L25.8477 3.98504C25.8464 3.98634 25.845 3.98764 25.8438 3.98895H23.5C21.585 3.98895 20 5.57399 20 7.48895V10.5163C20 12.4312 21.585 14.0163 23.5 14.0163H25.8438C25.845 14.0176 25.8464 14.0189 25.8477 14.0202L29.6777 17.4987C30.2732 18.039 31.1629 18.1345 31.8184 17.8444C32.4738 17.5543 33 16.8326 33 16.028V1.97723C33 1.17263 32.4738 0.450921 31.8184 0.160824C31.6545 0.0883002 31.4762 0.0397182 31.291 0.0162931ZM37.0898 2.93036C36.8168 2.93259 36.5495 3.00932 36.3168 3.15226C36.0842 3.29521 35.8949 3.49895 35.7695 3.74152C35.6441 3.98409 35.5873 4.2563 35.6052 4.52878C35.6231 4.80126 35.715 5.06369 35.8711 5.28778C36.5878 6.34968 37 7.59518 37 8.94793C37 10.3007 36.5878 11.5481 35.8711 12.61C35.7553 12.7731 35.6732 12.9577 35.6298 13.153C35.5863 13.3482 35.5824 13.5502 35.6182 13.747C35.6539 13.9438 35.7287 14.1315 35.8381 14.299C35.9474 14.4665 36.0892 14.6104 36.255 14.7223C36.4208 14.8342 36.6073 14.9118 36.8036 14.9505C36.9998 14.9892 37.2018 14.9883 37.3977 14.9479C37.5936 14.9074 37.7794 14.8281 37.9443 14.7148C38.1091 14.6014 38.2495 14.4562 38.3574 14.2878C39.3887 12.7597 40 10.9172 40 8.94793C40 6.97869 39.3887 5.13814 38.3574 3.61004C38.22 3.39964 38.0319 3.22714 37.8104 3.10838C37.5889 2.98962 37.3411 2.9284 37.0898 2.93036V2.93036ZM30 4.26629V13.7389L27.8789 11.8132C27.3321 11.3027 26.6085 11.0163 25.8574 11.0163H23.5C23.205 11.0163 23 10.8113 23 10.5163V7.48895C23 7.1939 23.205 6.98895 23.5 6.98895H25.8574C26.6085 6.98895 27.3321 6.70058 27.8789 6.19012L27.8652 6.20575L30 4.26629ZM5 7.00262C2.243 7.00262 0 9.24562 0 12.0026V29.0026C0 31.7596 2.243 34.0026 5 34.0026H16V31.0026H5C3.897 31.0026 3 30.1056 3 29.0026V12.0026C3 10.8996 3.897 10.0026 5 10.0026H18V7.00262H5ZM10.4941 15.0026C10.2358 15.0036 9.97709 15.0698 9.74609 15.2038C9.28409 15.4728 9 15.9676 9 16.5026V24.5026C9 25.0376 9.28409 25.5324 9.74609 25.8014C9.97909 25.9364 10.24 26.0026 10.5 26.0026C10.757 26.0026 11.0141 25.9374 11.2441 25.8054L18.2441 21.8054C18.7111 21.5374 19 21.0406 19 20.5026C19 19.9646 18.7111 19.4679 18.2441 19.1999L11.2441 15.1999C11.0116 15.0669 10.7525 15.0016 10.4941 15.0026ZM24 16.0163V23.0026H27V17.7682L25.0703 16.0163H24ZM21.5 25.0026C19.585 25.0026 18 26.5877 18 28.5026V37.5026C18 39.4176 19.585 41.0026 21.5 41.0026H35.5C37.415 41.0026 39 39.4176 39 37.5026V28.5026C39 26.5877 37.415 25.0026 35.5 25.0026H21.5ZM21.5 28.0026H35.5C35.795 28.0026 36 28.2076 36 28.5026V28.6198L28.5 32.7858L21 28.6198V28.5026C21 28.2076 21.205 28.0026 21.5 28.0026ZM21 32.0514L27.7715 35.8132C27.9943 35.937 28.2451 36.0019 28.5 36.0019C28.7549 36.0019 29.0057 35.937 29.2285 35.8132L36 32.0514V37.5026C36 37.7977 35.795 38.0026 35.5 38.0026H21.5C21.205 38.0026 21 37.7977 21 37.5026V32.0514Z" fill="white"/>
</svg>
