<svg width="15" height="14" viewBox="0 0 15 14" fill="none" xmlns="http://www.w3.org/2000/svg">
<path d="M4.125 0.625C1.85342 0.625 0 2.47842 0 4.75C0 6.28606 1.15787 7.73234 2.56934 9.21558C3.98081 10.6988 5.71814 12.2011 7.10229 13.5852C7.20779 13.6907 7.35084 13.7499 7.5 13.7499C7.64916 13.7499 7.79221 13.6907 7.89771 13.5852C9.28186 12.2011 11.0192 10.6988 12.4307 9.21558C13.8421 7.73234 15 6.28606 15 4.75C15 2.47842 13.1466 0.625 10.875 0.625C9.57134 0.625 8.43631 1.32493 7.5 2.51392C6.56369 1.32493 5.42866 0.625 4.125 0.625ZM4.125 1.75C5.22321 1.75 6.13736 2.3344 7.02466 3.73779C7.0754 3.81796 7.14558 3.88398 7.22869 3.92974C7.3118 3.97549 7.40513 3.99948 7.5 3.99948C7.59487 3.99948 7.6882 3.97549 7.77131 3.92974C7.85442 3.88398 7.9246 3.81796 7.97534 3.73779C8.86264 2.3344 9.77679 1.75 10.875 1.75C12.5387 1.75 13.875 3.08633 13.875 4.75C13.875 5.65144 12.9704 7.01766 11.6162 8.44067C10.3813 9.73833 8.84637 11.094 7.5 12.4067C6.15363 11.094 4.61865 9.73833 3.38379 8.44067C2.02963 7.01766 1.125 5.65144 1.125 4.75C1.125 3.08633 2.46133 1.75 4.125 1.75Z" fill="white"/>
</svg>
