<svg width="43" height="40" viewBox="0 0 43 40" fill="none" xmlns="http://www.w3.org/2000/svg">
<path d="M33.368 0.00244798C32.7609 -0.0241737 32.1448 0.166236 31.6532 0.57862L7.03016 21.2095C6.10137 21.9876 6.07456 23.271 6.63563 24.2876L4.68055 26.2427C3.71717 27.2061 3.71693 28.8167 4.6825 29.7798L5.03406 30.1314L0.438362 34.729C0.2579 34.9098 0.126601 35.1337 0.0569072 35.3795C-0.0127862 35.6253 -0.0185646 35.8847 0.0401197 36.1334C0.0988039 36.382 0.220007 36.6115 0.392241 36.8002C0.564475 36.9888 0.782034 37.1304 1.0243 37.2114L7.86219 39.4907C8.75904 39.7905 9.75286 39.5562 10.4208 38.8872L10.4227 38.8853L12.1044 37.2017L12.4598 37.5571C13.4232 38.5205 15.0319 38.5208 15.995 37.5552L17.9501 35.6021C18.9666 36.1622 20.2504 36.1359 21.0282 35.2075L41.6591 10.5845C42.483 9.60215 42.4139 8.11519 41.5106 7.20948C41.51 7.20948 41.5093 7.20948 41.5087 7.20948L35.0263 0.725104C34.5728 0.271626 33.9752 0.0290697 33.368 0.00244798ZM33.2294 3.17237L39.0653 9.00831L19.077 32.8618L9.37391 23.1567L33.2294 3.17237ZM8.57117 26.5962L15.6415 33.6665L14.2274 35.0806L7.15516 28.0103L8.57117 26.5962ZM7.15516 32.2524L9.98328 35.0806L8.51649 36.5474L4.27625 35.1333L7.15516 32.2524Z" fill="white"/>
</svg>
