<svg width="42" height="36" viewBox="0 0 42 36" fill="none" xmlns="http://www.w3.org/2000/svg">
<path d="M29.0003 0C23.5689 0 19.161 4.38873 19.0433 9.79297C14.241 9.217 11.1139 7.42151 9.19563 5.65234C7.0683 3.69038 6.39485 1.94727 6.39485 1.94727C6.29653 1.69954 6.13399 1.48248 5.92395 1.31842C5.71391 1.15435 5.46395 1.04921 5.19979 1.0138C4.93563 0.978397 4.66681 1.014 4.42098 1.11696C4.17515 1.21992 3.96118 1.38652 3.8011 1.59961C3.8011 1.59961 2.00032 4 2.00032 7.5C2.00032 9.50098 2.63212 10.9816 3.38509 12.2363C3.35735 12.2233 3.17024 12.1582 3.17024 12.1582C2.93117 12.0388 2.66456 11.9855 2.39797 12.0037C2.13138 12.0219 1.87448 12.111 1.65385 12.2617C1.43322 12.4124 1.25685 12.6194 1.14299 12.8611C1.02912 13.1028 0.981891 13.3706 1.00618 13.6367C1.00618 13.6367 1.58352 17.8568 5.5511 20.9414L5.13704 21.0449C4.91228 21.101 4.70356 21.2084 4.52726 21.3587C4.35095 21.509 4.21184 21.6981 4.12084 21.9111C4.02984 22.1241 3.98941 22.3553 4.00272 22.5866C4.01604 22.8179 4.08273 23.043 4.19759 23.2441C4.19759 23.2441 4.87037 24.3822 6.27962 25.5801C7.11517 26.2903 8.34259 27.0232 9.78938 27.7012C8.01259 28.3504 5.36314 29 1.50032 29C1.21207 29 0.929919 29.083 0.687615 29.2391C0.44531 29.3952 0.253116 29.6179 0.134024 29.8804C0.0149331 30.1428 -0.0260121 30.4341 0.0160875 30.7193C0.0581872 31.0044 0.181549 31.2714 0.371414 31.4883C0.371414 31.4883 1.51765 32.751 3.78352 33.8496C6.0494 34.9482 9.53979 36 14.5003 36C23.22 36 29.485 31.8172 33.3949 26.5156C37.3047 21.2141 39.0003 14.8611 39.0003 10C39.0003 9.69155 38.9811 9.38744 38.9534 9.08594C41.0647 7.0516 41.8569 5.52223 41.8949 5.44727C42.0849 5.06627 42.0141 4.60869 41.7191 4.30469C41.4251 3.99969 40.9694 3.9138 40.5824 4.0918L40.4202 4.16602C40.2812 4.23002 40.1423 4.29442 40.0023 4.35742C40.4093 3.70842 40.7304 3.01487 40.9534 2.29688C41.0774 1.90088 40.9436 1.46694 40.6156 1.21094C40.2876 0.954937 39.8358 0.927531 39.4808 1.14453C38.2585 1.88736 37.087 2.40739 35.8675 2.75586C34.0729 1.05347 31.6572 0 29.0003 0ZM29.0003 3C32.8835 3 36.0003 6.11682 36.0003 10C36.0003 14.1389 34.4459 20.0359 30.9808 24.7344C27.5157 29.4328 22.2806 33 14.5003 33C10.7351 33 8.23051 32.3189 6.35384 31.582C8.31966 31.2768 10.0123 30.8694 11.2288 30.3984C13.3385 29.5818 14.4769 28.6387 14.4769 28.6387C14.6857 28.4595 14.8412 28.2263 14.9263 27.9646C15.0115 27.7029 15.0231 27.4229 14.9598 27.1551C14.8964 26.8873 14.7607 26.6421 14.5674 26.4463C14.374 26.2505 14.1306 26.1116 13.8636 26.0449C11.1409 25.3642 9.39465 24.2633 8.29915 23.3457L9.8636 22.9551C10.173 22.8779 10.4497 22.7041 10.6536 22.4589C10.8576 22.2138 10.9781 21.91 10.9977 21.5917C11.0173 21.2735 10.9349 20.9572 10.7626 20.6889C10.5903 20.4206 10.337 20.2142 10.0394 20.0996C6.79426 18.8515 5.43155 17.0864 4.73469 15.6074C5.58267 15.783 6.37222 16 7.50032 16C7.83813 15.9997 8.16596 15.8854 8.43073 15.6757C8.6955 15.4659 8.88172 15.1729 8.95923 14.8441C9.03674 14.5153 9.001 14.1699 8.85781 13.864C8.71462 13.558 8.47236 13.3093 8.17024 13.1582C8.17024 13.1582 5.00032 11.7 5.00032 7.5C5.00032 6.74595 5.20916 6.26835 5.36165 5.69727C5.88483 6.40035 6.316 7.07859 7.16048 7.85742C9.73514 10.232 13.9907 12.6532 20.4202 12.998C20.6237 13.0089 20.8272 12.9782 21.0184 12.9078C21.2096 12.8374 21.3845 12.7289 21.5323 12.5887C21.6802 12.4485 21.7979 12.2797 21.8784 12.0925C21.9588 11.9053 22.0003 11.7037 22.0003 11.5V10C22.0003 6.11682 25.1171 3 29.0003 3Z" fill="white"/>
</svg>
