<svg width="14" height="11" viewBox="0 0 14 11" fill="none" xmlns="http://www.w3.org/2000/svg">
<path d="M1.83333 0C0.826742 0 0 0.802426 0 1.77941V9.22059C0 10.1976 0.826742 11 1.83333 11H12.1667C13.1733 11 14 10.1976 14 9.22059V1.77941C14 0.802426 13.1733 0 12.1667 0H1.83333ZM1.83333 0.970588H12.1667C12.6327 0.970588 13 1.32704 13 1.77941V9.22059C13 9.67296 12.6327 10.0294 12.1667 10.0294H1.83333C1.36726 10.0294 1 9.67296 1 9.22059V1.77941C1 1.32704 1.36726 0.970588 1.83333 0.970588ZM1.83333 1.61765C1.64933 1.61765 1.5 1.76259 1.5 1.94118V2.26471C1.5 2.44329 1.64933 2.58824 1.83333 2.58824H2.16667C2.35067 2.58824 2.5 2.44329 2.5 2.26471V1.94118C2.5 1.76259 2.35067 1.61765 2.16667 1.61765H1.83333ZM3.83333 1.61765C3.64933 1.61765 3.5 1.76259 3.5 1.94118V2.26471C3.5 2.44329 3.64933 2.58824 3.83333 2.58824H4.16667C4.35067 2.58824 4.5 2.44329 4.5 2.26471V1.94118C4.5 1.76259 4.35067 1.61765 4.16667 1.61765H3.83333ZM5.83333 1.61765C5.64933 1.61765 5.5 1.76259 5.5 1.94118V2.26471C5.5 2.44329 5.64933 2.58824 5.83333 2.58824H6.16667C6.35067 2.58824 6.5 2.44329 6.5 2.26471V1.94118C6.5 1.76259 6.35067 1.61765 6.16667 1.61765H5.83333ZM7.83333 1.61765C7.64933 1.61765 7.5 1.76259 7.5 1.94118V2.26471C7.5 2.44329 7.64933 2.58824 7.83333 2.58824H8.16667C8.35067 2.58824 8.5 2.44329 8.5 2.26471V1.94118C8.5 1.76259 8.35067 1.61765 8.16667 1.61765H7.83333ZM9.83333 1.61765C9.64933 1.61765 9.5 1.76259 9.5 1.94118V2.26471C9.5 2.44329 9.64933 2.58824 9.83333 2.58824H10.1667C10.3507 2.58824 10.5 2.44329 10.5 2.26471V1.94118C10.5 1.76259 10.3507 1.61765 10.1667 1.61765H9.83333ZM11.8333 1.61765C11.6493 1.61765 11.5 1.76259 11.5 1.94118V2.26471C11.5 2.44329 11.6493 2.58824 11.8333 2.58824H12.1667C12.3507 2.58824 12.5 2.44329 12.5 2.26471V1.94118C12.5 1.76259 12.3507 1.61765 12.1667 1.61765H11.8333ZM5.91276 3.55882C5.81243 3.55943 5.71238 3.58528 5.62305 3.63591C5.44371 3.73718 5.33333 3.92344 5.33333 4.125V6.875C5.33333 7.07656 5.44371 7.26282 5.62305 7.36409C5.71371 7.4152 5.815 7.44118 5.91667 7.44118C6.016 7.44118 6.11478 7.41675 6.20378 7.36725L8.70378 5.99225C8.88678 5.89195 9 5.70382 9 5.5C9 5.29618 8.88678 5.10805 8.70378 5.00776L6.20378 3.63276C6.11344 3.58293 6.01309 3.55822 5.91276 3.55882ZM1.83333 8.41176C1.64933 8.41176 1.5 8.55671 1.5 8.73529V9.05882C1.5 9.23741 1.64933 9.38235 1.83333 9.38235H2.16667C2.35067 9.38235 2.5 9.23741 2.5 9.05882V8.73529C2.5 8.55671 2.35067 8.41176 2.16667 8.41176H1.83333ZM3.83333 8.41176C3.64933 8.41176 3.5 8.55671 3.5 8.73529V9.05882C3.5 9.23741 3.64933 9.38235 3.83333 9.38235H4.16667C4.35067 9.38235 4.5 9.23741 4.5 9.05882V8.73529C4.5 8.55671 4.35067 8.41176 4.16667 8.41176H3.83333ZM5.83333 8.41176C5.64933 8.41176 5.5 8.55671 5.5 8.73529V9.05882C5.5 9.23741 5.64933 9.38235 5.83333 9.38235H6.16667C6.35067 9.38235 6.5 9.23741 6.5 9.05882V8.73529C6.5 8.55671 6.35067 8.41176 6.16667 8.41176H5.83333ZM7.83333 8.41176C7.64933 8.41176 7.5 8.55671 7.5 8.73529V9.05882C7.5 9.23741 7.64933 9.38235 7.83333 9.38235H8.16667C8.35067 9.38235 8.5 9.23741 8.5 9.05882V8.73529C8.5 8.55671 8.35067 8.41176 8.16667 8.41176H7.83333ZM9.83333 8.41176C9.64933 8.41176 9.5 8.55671 9.5 8.73529V9.05882C9.5 9.23741 9.64933 9.38235 9.83333 9.38235H10.1667C10.3507 9.38235 10.5 9.23741 10.5 9.05882V8.73529C10.5 8.55671 10.3507 8.41176 10.1667 8.41176H9.83333ZM11.8333 8.41176C11.6493 8.41176 11.5 8.55671 11.5 8.73529V9.05882C11.5 9.23741 11.6493 9.38235 11.8333 9.38235H12.1667C12.3507 9.38235 12.5 9.23741 12.5 9.05882V8.73529C12.5 8.55671 12.3507 8.41176 12.1667 8.41176H11.8333Z" fill="white"/>
</svg>
