<svg width="28" height="28" viewBox="0 0 28 28" fill="none" xmlns="http://www.w3.org/2000/svg">
<rect x="0.25" y="0.25" width="27.5" height="27.5" rx="2.75" stroke="#C0C0C0" stroke-width="0.5"/>
<path d="M10.7578 9.34375C10.7109 9.29688 10.6406 9.25 10.5703 9.25C10.4766 9.25 10.4062 9.29688 10.3594 9.34375L8.85938 10.8203L8.34375 10.3047C8.29688 10.2578 8.22656 10.2344 8.13281 10.2344C8.0625 10.2344 7.99219 10.2578 7.94531 10.3047L7.57031 10.6797C7.52344 10.7266 7.47656 10.7969 7.47656 10.8672C7.47656 10.9609 7.52344 11.0312 7.57031 11.0781L8.69531 12.1797C8.74219 12.2266 8.8125 12.2734 8.88281 12.2734C8.97656 12.2734 9.04688 12.2266 9.09375 12.1797L9.46875 11.8281L11.1562 10.1172C11.2031 10.0703 11.25 10 11.25 9.92969C11.25 9.85938 11.2031 9.78906 11.1562 9.71875L10.7578 9.34375ZM10.7578 13.0703C10.7109 13.0234 10.6406 13 10.5703 13C10.4766 13 10.4062 13.0234 10.3594 13.0703L8.85938 14.5703L8.34375 14.0547C8.29688 14.0078 8.22656 13.9609 8.13281 13.9609C8.0625 13.9609 7.99219 14.0078 7.94531 14.0547L7.57031 14.4062C7.52344 14.4766 7.47656 14.5469 7.47656 14.6172C7.47656 14.6875 7.52344 14.7578 7.57031 14.8047L8.69531 15.9297C8.74219 15.9766 8.8125 16.0234 8.88281 16.0234C8.97656 16.0234 9.04688 15.9766 9.09375 15.9297L9.46875 15.5547L11.1562 13.8672C11.2031 13.8203 11.25 13.75 11.25 13.6797C11.25 13.5859 11.2031 13.5156 11.1562 13.4688L10.7578 13.0703ZM9 17.125C8.36719 17.125 7.85156 17.6406 7.85156 18.25C7.85156 18.8828 8.36719 19.375 9 19.375C9.60938 19.375 10.125 18.8828 10.125 18.25C10.125 17.6406 9.60938 17.125 9 17.125ZM19.125 17.5H12.375C12.1641 17.5 12 17.6875 12 17.875V18.625C12 18.8359 12.1641 19 12.375 19H19.125C19.3125 19 19.5 18.8359 19.5 18.625V17.875C19.5 17.6875 19.3125 17.5 19.125 17.5ZM19.125 10H12.375C12.1641 10 12 10.1875 12 10.375V11.125C12 11.3359 12.1641 11.5 12.375 11.5H19.125C19.3125 11.5 19.5 11.3359 19.5 11.125V10.375C19.5 10.1875 19.3125 10 19.125 10ZM19.125 13.75H12.375C12.1641 13.75 12 13.9375 12 14.125V14.875C12 15.0859 12.1641 15.25 12.375 15.25H19.125C19.3125 15.25 19.5 15.0859 19.5 14.875V14.125C19.5 13.9375 19.3125 13.75 19.125 13.75Z" fill="black"/>
</svg>
