<svg width="29" height="29" viewBox="0 0 29 29" fill="none" xmlns="http://www.w3.org/2000/svg">
<rect x="1.14648" y="0.892273" width="27.1379" height="27.3793" rx="2.75" stroke="#C0C0C0" stroke-width="0.5"/>
<path d="M8.84 9C8.37734 9 8 9.36754 8 9.81818V10.6364H22V9.81818C22 9.36754 21.6227 9 21.16 9H8.84ZM8 11.1818V21H22V11.1818H8ZM16.12 12.2727C16.1561 12.2727 16.1889 12.2759 16.225 12.2898C16.3683 12.3473 16.4416 12.5082 16.3825 12.6477L13.8625 18.6477C13.8177 18.7532 13.7105 18.8182 13.6 18.8182C13.565 18.8182 13.53 18.815 13.495 18.8011C13.3517 18.7436 13.2784 18.5827 13.3375 18.4432L15.8575 12.4432C15.9012 12.3388 16.0106 12.2738 16.12 12.2727ZM12.445 13.9091C12.5533 13.8963 12.667 13.9474 12.725 14.0455C12.8016 14.1765 12.7545 14.3459 12.62 14.4205L11.0888 15.2727L12.62 16.125C12.7545 16.1996 12.8016 16.369 12.725 16.5C12.6736 16.5884 12.5773 16.6364 12.48 16.6364C12.433 16.6364 12.3837 16.6268 12.34 16.6023L10.38 15.5114C10.2925 15.4624 10.24 15.3707 10.24 15.2727C10.24 15.1747 10.2925 15.0831 10.38 15.0341L12.34 13.9432C12.3739 13.9251 12.4089 13.9134 12.445 13.9091ZM17.555 13.9091C17.5911 13.9134 17.6261 13.924 17.66 13.9432L19.62 15.0341C19.7075 15.0831 19.76 15.1747 19.76 15.2727C19.76 15.3707 19.7075 15.4624 19.62 15.5114L17.66 16.6023C17.6163 16.6268 17.567 16.6364 17.52 16.6364C17.4227 16.6364 17.3264 16.5884 17.275 16.5C17.1984 16.369 17.2455 16.1996 17.38 16.125L18.9113 15.2727L17.38 14.4205C17.2455 14.3459 17.1984 14.1765 17.275 14.0455C17.3319 13.9474 17.4467 13.8963 17.555 13.9091Z" fill="black"/>
</svg>
