<svg width="29" height="29" viewBox="0 0 29 29" fill="none" xmlns="http://www.w3.org/2000/svg">
<rect x="1.14648" y="0.892273" width="27.1379" height="27.3793" rx="2.75" stroke="#C0C0C0" stroke-width="0.5"/>
<path d="M18.1428 15.2858C16.5428 15.2858 15.2856 16.5429 15.2856 18.143C15.2856 19.743 16.5428 21.0001 18.1428 21.0001C19.7428 21.0001 21 19.743 21 18.143C21 16.5429 19.7428 15.2858 18.1428 15.2858ZM19.8571 18.7144H18.7143V19.8573H17.5714V18.7144H16.4285V17.5715H17.5714V16.4287H18.7143V17.5715H19.8571V18.7144ZM10.7142 11.8572H9.57129C9.57129 10.8857 10.1427 9 12.4285 9H19.2857V10.1429H12.4285C10.8284 10.1429 10.7142 11.5715 10.7142 11.8572Z" fill="black"/>
<path d="M17.2858 14.2572L17.5715 9.62857L16.4287 9.57143L16.0858 14.7143C16.4287 14.4858 16.8287 14.3143 17.2858 14.2572ZM11.0572 19.2858C9.9143 19.2858 9 18.3715 9 17.2287V17.0001H10.1429V17.2287C10.1429 17.7429 10.5429 18.143 11.0572 18.143C11.5143 18.143 11.9143 17.8001 11.9715 17.2858L12.4286 9.51428L13.5715 9.57143L13.1143 17.3429C13 18.4287 12.1429 19.2858 11.0572 19.2858Z" fill="black"/>
</svg>
