<svg width="28" height="28" viewBox="0 0 28 28" fill="none" xmlns="http://www.w3.org/2000/svg">
<rect x="0.25" y="0.25" width="27.5" height="27.5" rx="2.75" stroke="#C0C0C0" stroke-width="0.5"/>
<path d="M10.6662 19V18.3613H11.1818C11.2677 18.3613 11.3478 18.3535 11.422 18.3379C11.4963 18.3184 11.5607 18.2812 11.6154 18.2266C11.674 18.1719 11.7189 18.0938 11.7502 17.9922C11.7814 17.8906 11.797 17.7539 11.797 17.582V14.8984H8.66227V17.582C8.66227 17.7539 8.67789 17.8906 8.70914 17.9922C8.7443 18.0938 8.78922 18.1719 8.84391 18.2266C8.89859 18.2812 8.96305 18.3184 9.03727 18.3379C9.11148 18.3535 9.19156 18.3613 9.2775 18.3613H9.79313V19H5.65055V18.3613H6.15445C6.24039 18.3613 6.32047 18.3535 6.39469 18.3379C6.46891 18.3184 6.53336 18.2812 6.58805 18.2266C6.64664 18.1719 6.69156 18.0938 6.72281 17.9922C6.75406 17.8906 6.76969 17.7539 6.76969 17.582V11.8047C6.76969 11.6445 6.75211 11.5176 6.71695 11.4238C6.6857 11.3262 6.64078 11.252 6.58219 11.2012C6.5275 11.1504 6.46305 11.1172 6.38883 11.1016C6.31461 11.082 6.23648 11.0723 6.15445 11.0723H5.65055V10.4336H9.79313V11.0723H9.2775C9.19156 11.0723 9.11148 11.082 9.03727 11.1016C8.96305 11.1172 8.89859 11.1523 8.84391 11.207C8.78922 11.2617 8.7443 11.3398 8.70914 11.4414C8.67789 11.543 8.66227 11.6797 8.66227 11.8516V14.166H11.797V11.8516C11.797 11.6797 11.7814 11.543 11.7502 11.4414C11.7189 11.3398 11.674 11.2617 11.6154 11.207C11.5607 11.1523 11.4963 11.1172 11.422 11.1016C11.3478 11.082 11.2677 11.0723 11.1818 11.0723H10.6662V10.4336H14.8088V11.0723H14.3048C14.2228 11.0723 14.1447 11.082 14.0705 11.1016C13.9963 11.1172 13.9298 11.1523 13.8713 11.207C13.8166 11.2617 13.7736 11.3398 13.7423 11.4414C13.7111 11.543 13.6955 11.6797 13.6955 11.8516V17.6465C13.6955 17.8027 13.7111 17.9297 13.7423 18.0273C13.7775 18.1211 13.8224 18.1934 13.8771 18.2441C13.9357 18.291 14.0002 18.3223 14.0705 18.3379C14.1447 18.3535 14.2228 18.3613 14.3048 18.3613H14.8088V19H10.6662ZM20.8221 12.3027C20.8221 12.4902 20.8006 12.6719 20.7577 12.8477C20.7186 13.0234 20.6502 13.2051 20.5526 13.3926C20.4588 13.5801 20.3338 13.7793 20.1776 13.9902C20.0213 14.1973 19.828 14.4277 19.5975 14.6816C19.367 14.9316 19.0975 15.209 18.7889 15.5137C18.4842 15.8184 18.1307 16.1602 17.7284 16.5391L16.5272 17.6816H19.3221C19.5682 17.6816 19.7772 17.6113 19.9491 17.4707C20.1248 17.3262 20.2479 17.1191 20.3182 16.8496L20.4178 16.4805H21.1268L21.0623 19H15.3905V17.7637L17.1659 15.9531C17.537 15.5742 17.8416 15.2324 18.0799 14.9277C18.3182 14.623 18.5057 14.332 18.6424 14.0547C18.7791 13.7773 18.8748 13.5039 18.9295 13.2344C18.9842 12.9609 19.0116 12.6699 19.0116 12.3613C19.0116 11.9043 18.9276 11.5703 18.7596 11.3594C18.5955 11.1484 18.367 11.043 18.0741 11.043C17.6678 11.043 17.3827 11.2188 17.2186 11.5703C17.0545 11.918 16.9725 12.4336 16.9725 13.1172C16.7459 13.1172 16.537 13.0957 16.3455 13.0527C16.158 13.0098 15.9959 12.9414 15.8592 12.8477C15.7264 12.7539 15.6229 12.6328 15.5487 12.4844C15.4745 12.332 15.4373 12.1484 15.4373 11.9336C15.4373 11.7148 15.492 11.5078 15.6014 11.3125C15.7147 11.1172 15.8807 10.9453 16.0995 10.7969C16.3182 10.6484 16.5916 10.5312 16.9198 10.4453C17.2518 10.3555 17.6366 10.3105 18.0741 10.3105C18.5233 10.3105 18.9178 10.3574 19.2577 10.4512C19.6014 10.541 19.8885 10.6719 20.119 10.8438C20.3534 11.0156 20.5291 11.2246 20.6463 11.4707C20.7635 11.7168 20.8221 11.9941 20.8221 12.3027Z" fill="black"/>
</svg>
