<svg width="28" height="28" viewBox="0 0 28 28" fill="none" xmlns="http://www.w3.org/2000/svg">
<rect x="0.25" y="0.25" width="27.5" height="27.5" rx="2.75" stroke="#C0C0C0" stroke-width="0.5"/>
<path d="M10.6662 19V18.3613H11.1818C11.2677 18.3613 11.3478 18.3535 11.422 18.3379C11.4963 18.3184 11.5607 18.2812 11.6154 18.2266C11.674 18.1719 11.7189 18.0938 11.7502 17.9922C11.7814 17.8906 11.797 17.7539 11.797 17.582V14.8984H8.66227V17.582C8.66227 17.7539 8.67789 17.8906 8.70914 17.9922C8.7443 18.0938 8.78922 18.1719 8.84391 18.2266C8.89859 18.2812 8.96305 18.3184 9.03727 18.3379C9.11148 18.3535 9.19156 18.3613 9.2775 18.3613H9.79313V19H5.65055V18.3613H6.15445C6.24039 18.3613 6.32047 18.3535 6.39469 18.3379C6.46891 18.3184 6.53336 18.2812 6.58805 18.2266C6.64664 18.1719 6.69156 18.0938 6.72281 17.9922C6.75406 17.8906 6.76969 17.7539 6.76969 17.582V11.8047C6.76969 11.6445 6.75211 11.5176 6.71695 11.4238C6.6857 11.3262 6.64078 11.252 6.58219 11.2012C6.5275 11.1504 6.46305 11.1172 6.38883 11.1016C6.31461 11.082 6.23648 11.0723 6.15445 11.0723H5.65055V10.4336H9.79313V11.0723H9.2775C9.19156 11.0723 9.11148 11.082 9.03727 11.1016C8.96305 11.1172 8.89859 11.1523 8.84391 11.207C8.78922 11.2617 8.7443 11.3398 8.70914 11.4414C8.67789 11.543 8.66227 11.6797 8.66227 11.8516V14.166H11.797V11.8516C11.797 11.6797 11.7814 11.543 11.7502 11.4414C11.7189 11.3398 11.674 11.2617 11.6154 11.207C11.5607 11.1523 11.4963 11.1172 11.422 11.1016C11.3478 11.082 11.2677 11.0723 11.1818 11.0723H10.6662V10.4336H14.8088V11.0723H14.3048C14.2228 11.0723 14.1447 11.082 14.0705 11.1016C13.9963 11.1172 13.9298 11.1523 13.8713 11.207C13.8166 11.2617 13.7736 11.3398 13.7423 11.4414C13.7111 11.543 13.6955 11.6797 13.6955 11.8516V17.6465C13.6955 17.8027 13.7111 17.9297 13.7423 18.0273C13.7775 18.1211 13.8224 18.1934 13.8771 18.2441C13.9357 18.291 14.0002 18.3223 14.0705 18.3379C14.1447 18.3535 14.2228 18.3613 14.3048 18.3613H14.8088V19H10.6662ZM16.1346 19V18.3613H17.119C17.2205 18.3613 17.3084 18.3496 17.3827 18.3262C17.4569 18.2988 17.5194 18.2559 17.5702 18.1973C17.6209 18.1387 17.658 18.0605 17.6815 17.9629C17.7049 17.8613 17.7166 17.7344 17.7166 17.582V11.5703C17.5643 11.7578 17.4198 11.9277 17.283 12.0801C17.1502 12.2324 17.0213 12.3633 16.8963 12.4727C16.7713 12.582 16.6483 12.668 16.5272 12.7305C16.41 12.7891 16.2909 12.8184 16.1698 12.8184C16.0721 12.8184 15.9803 12.7988 15.8944 12.7598C15.8123 12.7168 15.7401 12.6562 15.6776 12.5781C15.6151 12.5 15.5643 12.4062 15.5252 12.2969C15.4901 12.1875 15.4725 12.0664 15.4725 11.9336C15.5936 11.9023 15.7205 11.8652 15.8534 11.8223C15.9862 11.7754 16.1268 11.7168 16.2752 11.6465C16.4276 11.5723 16.5897 11.4844 16.7616 11.3828C16.9334 11.2773 17.119 11.1523 17.3182 11.0078L18.162 10.3867H19.5037V17.582C19.5037 17.707 19.5116 17.8184 19.5272 17.916C19.5467 18.0137 19.578 18.0957 19.6209 18.1621C19.6678 18.2285 19.7303 18.2793 19.8084 18.3145C19.8905 18.3457 19.994 18.3613 20.119 18.3613H21.0858V19H16.1346Z" fill="black"/>
</svg>
