<svg width="28" height="28" viewBox="0 0 28 28" fill="none" xmlns="http://www.w3.org/2000/svg">
<rect x="0.25" y="0.25" width="27.5" height="27.5" rx="2.75" stroke="#C0C0C0" stroke-width="0.5"/>
<path d="M10.6662 19V18.3613H11.1818C11.2677 18.3613 11.3478 18.3535 11.422 18.3379C11.4963 18.3184 11.5607 18.2812 11.6154 18.2266C11.674 18.1719 11.7189 18.0938 11.7502 17.9922C11.7814 17.8906 11.797 17.7539 11.797 17.582V14.8984H8.66227V17.582C8.66227 17.7539 8.67789 17.8906 8.70914 17.9922C8.7443 18.0938 8.78922 18.1719 8.84391 18.2266C8.89859 18.2812 8.96305 18.3184 9.03727 18.3379C9.11148 18.3535 9.19156 18.3613 9.2775 18.3613H9.79313V19H5.65055V18.3613H6.15445C6.24039 18.3613 6.32047 18.3535 6.39469 18.3379C6.46891 18.3184 6.53336 18.2812 6.58805 18.2266C6.64664 18.1719 6.69156 18.0938 6.72281 17.9922C6.75406 17.8906 6.76969 17.7539 6.76969 17.582V11.8047C6.76969 11.6445 6.75211 11.5176 6.71695 11.4238C6.6857 11.3262 6.64078 11.252 6.58219 11.2012C6.5275 11.1504 6.46305 11.1172 6.38883 11.1016C6.31461 11.082 6.23648 11.0723 6.15445 11.0723H5.65055V10.4336H9.79313V11.0723H9.2775C9.19156 11.0723 9.11148 11.082 9.03727 11.1016C8.96305 11.1172 8.89859 11.1523 8.84391 11.207C8.78922 11.2617 8.7443 11.3398 8.70914 11.4414C8.67789 11.543 8.66227 11.6797 8.66227 11.8516V14.166H11.797V11.8516C11.797 11.6797 11.7814 11.543 11.7502 11.4414C11.7189 11.3398 11.674 11.2617 11.6154 11.207C11.5607 11.1523 11.4963 11.1172 11.422 11.1016C11.3478 11.082 11.2677 11.0723 11.1818 11.0723H10.6662V10.4336H14.8088V11.0723H14.3048C14.2228 11.0723 14.1447 11.082 14.0705 11.1016C13.9963 11.1172 13.9298 11.1523 13.8713 11.207C13.8166 11.2617 13.7736 11.3398 13.7423 11.4414C13.7111 11.543 13.6955 11.6797 13.6955 11.8516V17.6465C13.6955 17.8027 13.7111 17.9297 13.7423 18.0273C13.7775 18.1211 13.8224 18.1934 13.8771 18.2441C13.9357 18.291 14.0002 18.3223 14.0705 18.3379C14.1447 18.3535 14.2228 18.3613 14.3048 18.3613H14.8088V19H10.6662ZM17.8866 19.1172C17.4334 19.1172 17.0428 19.0781 16.7147 19C16.3905 18.9219 16.1229 18.8164 15.912 18.6836C15.7049 18.5508 15.5506 18.3984 15.4491 18.2266C15.3514 18.0508 15.3026 17.8691 15.3026 17.6816C15.3026 17.5293 15.3299 17.3945 15.3846 17.2773C15.4393 17.1602 15.5135 17.0625 15.6073 16.9844C15.701 16.9023 15.8084 16.8418 15.9295 16.8027C16.0545 16.7637 16.1854 16.7441 16.3221 16.7441C16.3221 16.998 16.3573 17.2207 16.4276 17.4121C16.5018 17.6035 16.6034 17.7637 16.7323 17.8926C16.8612 18.0215 17.0155 18.1191 17.1952 18.1855C17.3787 18.248 17.5799 18.2793 17.7987 18.2793C17.994 18.2793 18.1795 18.252 18.3553 18.1973C18.535 18.1426 18.6932 18.0488 18.8299 17.916C18.9666 17.7832 19.0741 17.6035 19.1522 17.377C19.2342 17.1465 19.2752 16.8594 19.2752 16.5156C19.2752 16.2852 19.2342 16.0742 19.1522 15.8828C19.0741 15.6914 18.9549 15.5273 18.7948 15.3906C18.6385 15.25 18.4452 15.1406 18.2147 15.0625C17.9842 14.9844 17.7186 14.9453 17.4178 14.9453H16.6737V14.2012H17.4647C17.7225 14.2012 17.9471 14.1602 18.1385 14.0781C18.3299 13.9922 18.4881 13.8711 18.6131 13.7148C18.7381 13.5586 18.8319 13.373 18.8944 13.1582C18.9569 12.9395 18.9881 12.6992 18.9881 12.4375C18.9881 12 18.9041 11.6582 18.7362 11.4121C18.5682 11.166 18.3202 11.043 17.992 11.043C17.7772 11.043 17.6014 11.0957 17.4647 11.2012C17.3319 11.3066 17.2284 11.4473 17.1541 11.623C17.0799 11.7988 17.0291 11.998 17.0018 12.2207C16.9745 12.4434 16.9608 12.6719 16.9608 12.9062C16.4608 12.9062 16.076 12.8203 15.8065 12.6484C15.537 12.4727 15.4022 12.2012 15.4022 11.834C15.4022 11.623 15.4569 11.4258 15.5662 11.2422C15.6795 11.0547 15.8475 10.8926 16.0702 10.7559C16.2928 10.6152 16.5682 10.5059 16.8963 10.4277C17.2284 10.3496 17.6131 10.3105 18.0506 10.3105C18.4764 10.3105 18.8592 10.3535 19.1991 10.4395C19.5428 10.5254 19.8338 10.6523 20.0721 10.8203C20.3143 10.9883 20.4998 11.1934 20.6287 11.4355C20.7577 11.6777 20.8221 11.9551 20.8221 12.2676C20.8221 12.5371 20.7752 12.7852 20.6815 13.0117C20.5877 13.2383 20.4588 13.4414 20.2948 13.6211C20.1307 13.8008 19.9373 13.959 19.7147 14.0957C19.492 14.2285 19.2498 14.3398 18.9881 14.4297C19.2303 14.4727 19.4764 14.543 19.7264 14.6406C19.9803 14.7344 20.2108 14.8633 20.4178 15.0273C20.6248 15.1914 20.7948 15.3965 20.9276 15.6426C21.0604 15.8887 21.1268 16.1836 21.1268 16.5273C21.1268 17.0156 21.035 17.4258 20.8514 17.7578C20.6717 18.0898 20.4295 18.3574 20.1248 18.5605C19.8241 18.7598 19.4784 18.9023 19.0877 18.9883C18.701 19.0742 18.3006 19.1172 17.8866 19.1172Z" fill="black"/>
</svg>
