<svg width="29" height="29" viewBox="0 0 29 29" fill="none" xmlns="http://www.w3.org/2000/svg">
<rect x="1.14648" y="0.892273" width="27.1379" height="27.3793" rx="2.75" stroke="#C0C0C0" stroke-width="0.5"/>
<path d="M8 9V9.2037V20H22V9H8ZM8.4 9.40741H21.6V19.5926H8.4V9.40741ZM9.2 10.2222V10.4259V18.7778H20.8V10.2222H9.2ZM9.6 10.6296H20.4V16.0449L20.2867 15.9295C20.0503 15.6887 19.6849 15.6738 19.4176 15.8595L18.6867 15.1147C18.4197 14.8427 17.9807 14.8427 17.7137 15.1147L17.6 15.2305L17.4867 15.1147C17.2197 14.8427 16.7807 14.8427 16.5137 15.1147L16.2 15.4342L15.0867 14.2999C14.8197 14.0279 14.3807 14.0279 14.1137 14.2999L13.7934 14.6261L12.0789 13.0383C11.9438 12.9132 11.7709 12.8535 11.5996 12.8576C11.4283 12.8618 11.2588 12.9298 11.1297 13.0613L9.6 14.6194V10.6296ZM18 11.2407C17.947 11.2407 17.8961 11.2622 17.8586 11.3004C17.8211 11.3386 17.8 11.3904 17.8 11.4444C17.8 11.4985 17.8211 11.5503 17.8586 11.5885C17.8961 11.6267 17.947 11.6481 18 11.6481C18.053 11.6481 18.1039 11.6267 18.1414 11.5885C18.1789 11.5503 18.2 11.4985 18.2 11.4444C18.2 11.3904 18.1789 11.3386 18.1414 11.3004C18.1039 11.2622 18.053 11.2407 18 11.2407ZM17.0129 11.6585C16.9862 11.6581 16.9596 11.6632 16.9349 11.6735C16.9101 11.6837 16.8876 11.6989 16.8687 11.7182C16.8313 11.7564 16.8102 11.8082 16.8102 11.8622C16.8102 11.9162 16.8313 11.968 16.8687 12.0062C16.9063 12.0444 16.9571 12.0659 17.0102 12.0659C17.0632 12.0659 17.1141 12.0444 17.1516 12.0062C17.1891 11.968 17.2101 11.9162 17.2101 11.8622C17.2101 11.8082 17.1891 11.7564 17.1516 11.7182C17.1147 11.6806 17.065 11.6592 17.0129 11.6585ZM18.993 11.6589C18.9662 11.6584 18.9396 11.6634 18.9148 11.6736C18.89 11.6838 18.8674 11.6989 18.8484 11.7182C18.8298 11.7371 18.815 11.7596 18.805 11.7843C18.7949 11.8091 18.7897 11.8356 18.7897 11.8624C18.7897 11.8892 18.7949 11.9157 18.805 11.9405C18.815 11.9652 18.8298 11.9877 18.8484 12.0066C18.8859 12.0448 18.9368 12.0663 18.9898 12.0663C19.0429 12.0663 19.0937 12.0448 19.1312 12.0066C19.1499 11.9877 19.1647 11.9652 19.1747 11.9405C19.1848 11.9157 19.19 11.8892 19.19 11.8624C19.19 11.8356 19.1848 11.8091 19.1747 11.7843C19.1647 11.7596 19.1499 11.7371 19.1312 11.7182C19.0945 11.6809 19.0449 11.6596 18.993 11.6589ZM18 12.0556C17.5605 12.0556 17.2 12.4228 17.2 12.8704C17.2 13.318 17.5605 13.6852 18 13.6852C18.4395 13.6852 18.8 13.318 18.8 12.8704C18.8 12.4228 18.4395 12.0556 18 12.0556ZM18 12.463C18.2233 12.463 18.4 12.643 18.4 12.8704C18.4 13.0978 18.2233 13.2778 18 13.2778C17.7767 13.2778 17.6 13.0978 17.6 12.8704C17.6 12.643 17.7767 12.463 18 12.463ZM16.6 12.6667C16.547 12.6667 16.4961 12.6881 16.4586 12.7263C16.4211 12.7645 16.4 12.8163 16.4 12.8704C16.4 12.9244 16.4211 12.9762 16.4586 13.0144C16.4961 13.0526 16.547 13.0741 16.6 13.0741C16.653 13.0741 16.7039 13.0526 16.7414 13.0144C16.7789 12.9762 16.8 12.9244 16.8 12.8704C16.8 12.8163 16.7789 12.7645 16.7414 12.7263C16.7039 12.6881 16.653 12.6667 16.6 12.6667ZM19.4 12.6667C19.347 12.6667 19.2961 12.6881 19.2586 12.7263C19.2211 12.7645 19.2 12.8163 19.2 12.8704C19.2 12.9244 19.2211 12.9762 19.2586 13.0144C19.2961 13.0526 19.347 13.0741 19.4 13.0741C19.453 13.0741 19.5039 13.0526 19.5414 13.0144C19.5789 12.9762 19.6 12.9244 19.6 12.8704C19.6 12.8163 19.5789 12.7645 19.5414 12.7263C19.5039 12.6881 19.453 12.6667 19.4 12.6667ZM17.0129 13.6748C16.9862 13.6745 16.9596 13.6796 16.9349 13.6898C16.9101 13.7001 16.8876 13.7153 16.8687 13.7345C16.8313 13.7727 16.8102 13.8245 16.8102 13.8785C16.8102 13.9326 16.8313 13.9844 16.8687 14.0226C16.9063 14.0608 16.9571 14.0822 17.0102 14.0822C17.0632 14.0822 17.1141 14.0608 17.1516 14.0226C17.1891 13.9844 17.2101 13.9326 17.2101 13.8785C17.2101 13.8245 17.1891 13.7727 17.1516 13.7345C17.1147 13.697 17.065 13.6756 17.0129 13.6748ZM18.993 13.6752C18.9662 13.6748 18.9396 13.6799 18.9148 13.6901C18.8899 13.7004 18.8674 13.7156 18.8484 13.7349C18.8109 13.7731 18.7899 13.8249 18.7899 13.8789C18.7899 13.933 18.8109 13.9848 18.8484 14.023C18.8859 14.0612 18.9368 14.0826 18.9898 14.0826C19.0429 14.0826 19.0937 14.0612 19.1312 14.023C19.1687 13.9848 19.1898 13.933 19.1898 13.8789C19.1898 13.8249 19.1687 13.7731 19.1312 13.7349C19.0945 13.6975 19.0449 13.6761 18.993 13.6752ZM18 14.0926C17.947 14.0926 17.8961 14.1141 17.8586 14.1523C17.8211 14.1905 17.8 14.2423 17.8 14.2963C17.8 14.3503 17.8211 14.4021 17.8586 14.4403C17.8961 14.4785 17.947 14.5 18 14.5C18.053 14.5 18.1039 14.4785 18.1414 14.4403C18.1789 14.4021 18.2 14.3503 18.2 14.2963C18.2 14.2423 18.1789 14.1905 18.1414 14.1523C18.1039 14.1141 18.053 14.0926 18 14.0926ZM10.4 15.1111C10.347 15.1111 10.2961 15.1326 10.2586 15.1708C10.2211 15.209 10.2 15.2608 10.2 15.3148C10.2 15.3688 10.2211 15.4207 10.2586 15.4589C10.2961 15.4971 10.347 15.5185 10.4 15.5185C10.453 15.5185 10.5039 15.4971 10.5414 15.4589C10.5789 15.4207 10.6 15.3688 10.6 15.3148C10.6 15.2608 10.5789 15.209 10.5414 15.1708C10.5039 15.1326 10.453 15.1111 10.4 15.1111ZM15.2 15.1111C15.147 15.1111 15.0961 15.1326 15.0586 15.1708C15.0211 15.209 15 15.2608 15 15.3148C15 15.3688 15.0211 15.4207 15.0586 15.4589C15.0961 15.4971 15.147 15.5185 15.2 15.5185C15.253 15.5185 15.3039 15.4971 15.3414 15.4589C15.3789 15.4207 15.4 15.3688 15.4 15.3148C15.4 15.2608 15.3789 15.209 15.3414 15.1708C15.3039 15.1326 15.253 15.1111 15.2 15.1111ZM14.8 15.7222C14.747 15.7222 14.6961 15.7437 14.6586 15.7819C14.6211 15.8201 14.6 15.8719 14.6 15.9259C14.6 15.98 14.6211 16.0318 14.6586 16.07C14.6961 16.1082 14.747 16.1296 14.8 16.1296C14.853 16.1296 14.9039 16.1082 14.9414 16.07C14.9789 16.0318 15 15.98 15 15.9259C15 15.8719 14.9789 15.8201 14.9414 15.7819C14.9039 15.7437 14.853 15.7222 14.8 15.7222ZM15.6 15.7222C15.547 15.7222 15.4961 15.7437 15.4586 15.7819C15.4211 15.8201 15.4 15.8719 15.4 15.9259C15.4 15.98 15.4211 16.0318 15.4586 16.07C15.4961 16.1082 15.547 16.1296 15.6 16.1296C15.653 16.1296 15.7039 16.1082 15.7414 16.07C15.7789 16.0318 15.8 15.98 15.8 15.9259C15.8 15.8719 15.7789 15.8201 15.7414 15.7819C15.7039 15.7437 15.653 15.7222 15.6 15.7222ZM17.2 15.7222C17.147 15.7222 17.0961 15.7437 17.0586 15.7819C17.0211 15.8201 17 15.8719 17 15.9259C17 15.98 17.0211 16.0318 17.0586 16.07C17.0961 16.1082 17.147 16.1296 17.2 16.1296C17.253 16.1296 17.3039 16.1082 17.3414 16.07C17.3789 16.0318 17.4 15.98 17.4 15.9259C17.4 15.8719 17.3789 15.8201 17.3414 15.7819C17.3039 15.7437 17.253 15.7222 17.2 15.7222ZM19.2 16.3333C19.147 16.3333 19.0961 16.3548 19.0586 16.393C19.0211 16.4312 19 16.483 19 16.537C19 16.5911 19.0211 16.6429 19.0586 16.6811C19.0961 16.7193 19.147 16.7407 19.2 16.7407C19.253 16.7407 19.3039 16.7193 19.3414 16.6811C19.3789 16.6429 19.4 16.5911 19.4 16.537C19.4 16.483 19.3789 16.4312 19.3414 16.393C19.3039 16.3548 19.253 16.3333 19.2 16.3333ZM19.6 16.9444C19.547 16.9444 19.4961 16.9659 19.4586 17.0041C19.4211 17.0423 19.4 17.0941 19.4 17.1481C19.4 17.2022 19.4211 17.254 19.4586 17.2922C19.4961 17.3304 19.547 17.3519 19.6 17.3519C19.653 17.3519 19.7039 17.3304 19.7414 17.2922C19.7789 17.254 19.8 17.2022 19.8 17.1481C19.8 17.0941 19.7789 17.0423 19.7414 17.0041C19.7039 16.9659 19.653 16.9444 19.6 16.9444ZM19.2 17.5556C19.147 17.5556 19.0961 17.577 19.0586 17.6152C19.0211 17.6534 19 17.7052 19 17.7593C19 17.8133 19.0211 17.8651 19.0586 17.9033C19.0961 17.9415 19.147 17.963 19.2 17.963C19.253 17.963 19.3039 17.9415 19.3414 17.9033C19.3789 17.8651 19.4 17.8133 19.4 17.7593C19.4 17.7052 19.3789 17.6534 19.3414 17.6152C19.3039 17.577 19.253 17.5556 19.2 17.5556ZM20 17.5556C19.947 17.5556 19.8961 17.577 19.8586 17.6152C19.8211 17.6534 19.8 17.7052 19.8 17.7593C19.8 17.8133 19.8211 17.8651 19.8586 17.9033C19.8961 17.9415 19.947 17.963 20 17.963C20.053 17.963 20.1039 17.9415 20.1414 17.9033C20.1789 17.8651 20.2 17.8133 20.2 17.7593C20.2 17.7052 20.1789 17.6534 20.1414 17.6152C20.1039 17.577 20.053 17.5556 20 17.5556Z" fill="black"/>
</svg>
