<svg width="28" height="28" viewBox="0 0 28 28" fill="none" xmlns="http://www.w3.org/2000/svg">
<rect x="0.25" y="0.25" width="27.5" height="27.5" rx="2.75" stroke="#C0C0C0" stroke-width="0.5"/>
<path d="M8.92969 17.8984L9.35156 17.4297C9.42188 17.3594 9.46875 17.2422 9.46875 17.125V17.1016V17.0312C9.46875 16.8438 9.375 16.75 9.21094 16.75H7.875C7.75781 16.75 7.6875 16.8438 7.6875 16.9375V17.3125C7.6875 17.4297 7.75781 17.5 7.875 17.5H8.39062C8.29688 17.5938 8.22656 17.6875 8.13281 17.8047L8.01562 17.9688C7.92188 18.0859 7.875 18.2031 7.94531 18.3203L7.96875 18.3672C8.03906 18.4844 8.10938 18.5312 8.25 18.5312H8.36719C8.60156 18.5312 8.74219 18.6016 8.74219 18.7656C8.74219 18.8594 8.64844 18.9531 8.41406 18.9531C8.27344 18.9531 8.15625 18.9297 8.03906 18.8828C7.89844 18.7891 7.75781 18.7891 7.66406 18.9531L7.54688 19.1641C7.45312 19.3047 7.47656 19.4453 7.61719 19.5391C7.78125 19.6562 8.08594 19.75 8.48438 19.75C9.28125 19.75 9.60938 19.2344 9.60938 18.7188C9.60938 18.3906 9.39844 18.0391 8.92969 17.8984ZM19.125 13.75H11.625C11.4141 13.75 11.25 13.9375 11.25 14.125V14.875C11.25 15.0859 11.4141 15.25 11.625 15.25H19.125C19.3125 15.25 19.5 15.0859 19.5 14.875V14.125C19.5 13.9375 19.3125 13.75 19.125 13.75ZM19.125 10H11.625C11.4141 10 11.25 10.1875 11.25 10.375V11.125C11.25 11.3359 11.4141 11.5 11.625 11.5H19.125C19.3125 11.5 19.5 11.3359 19.5 11.125V10.375C19.5 10.1875 19.3125 10 19.125 10ZM19.125 17.5H11.625C11.4141 17.5 11.25 17.6875 11.25 17.875V18.625C11.25 18.8359 11.4141 19 11.625 19H19.125C19.3125 19 19.5 18.8359 19.5 18.625V17.875C19.5 17.6875 19.3125 17.5 19.125 17.5ZM7.875 12.25H9.375C9.46875 12.25 9.5625 12.1797 9.5625 12.0625V11.6875C9.5625 11.5938 9.46875 11.5 9.375 11.5H9V9.4375C9 9.34375 8.90625 9.25 8.8125 9.25H8.25C8.15625 9.27344 8.10938 9.29688 8.0625 9.36719L7.875 9.74219C7.875 9.76562 7.875 9.78906 7.875 9.8125C7.875 9.92969 7.94531 10 8.0625 10H8.25V11.5H7.875C7.75781 11.5 7.6875 11.5938 7.6875 11.6875V12.0625C7.6875 12.1797 7.75781 12.25 7.875 12.25ZM7.78125 16H9.375C9.46875 16 9.5625 15.9297 9.5625 15.8125V15.4375C9.5625 15.3438 9.46875 15.25 9.375 15.25H8.46094C8.53125 15.0156 9.58594 14.8281 9.58594 13.9375C9.58594 13.2578 9 13 8.55469 13C8.03906 13 7.75781 13.2344 7.59375 13.4453C7.5 13.5859 7.52344 13.7031 7.66406 13.8203L7.875 13.9609C7.99219 14.0781 8.13281 14.0312 8.25 13.9141C8.29688 13.8672 8.36719 13.8203 8.46094 13.8203C8.55469 13.8203 8.67188 13.8672 8.67188 14.0312C8.69531 14.3359 7.5 14.5469 7.5 15.6484V15.7422C7.5 15.9062 7.61719 16 7.78125 16Z" fill="black"/>
</svg>
