<svg width="28" height="28" viewBox="0 0 28 28" fill="none" xmlns="http://www.w3.org/2000/svg">
<rect x="0.25" y="0.25" width="27.5" height="27.5" rx="2.75" stroke="#C0C0C0" stroke-width="0.5"/>
<path d="M18.75 9.625C18.75 9.4375 18.5625 9.25 18.375 9.25H12.75C10.6641 9.25 9 10.9375 9 13C9 15.0859 10.6641 16.75 12.75 16.75H13.5V19.375C13.5 19.5859 13.6641 19.75 13.875 19.75H14.625C14.8125 19.75 15 19.5859 15 19.375V10.75H15.75V19.375C15.75 19.5859 15.9141 19.75 16.125 19.75H16.875C17.0625 19.75 17.25 19.5859 17.25 19.375V10.75H18.375C18.5625 10.75 18.75 10.5859 18.75 10.375V9.625Z" fill="black"/>
</svg>
