<svg width="29" height="29" viewBox="0 0 29 29" fill="none" xmlns="http://www.w3.org/2000/svg">
<rect x="1.14648" y="0.892273" width="27.1379" height="27.3793" rx="2.75" stroke="#C0C0C0" stroke-width="0.5"/>
<path d="M22 10.4159C21.4385 10.6611 20.8745 10.8462 20.2495 10.9087C20.8745 10.5385 21.375 9.92308 21.624 9.24519C20.999 9.61538 20.374 9.86058 19.688 9.98558C19.063 9.37019 18.25 9 17.376 9C15.6865 9 14.312 10.3534 14.312 12.0144C14.312 12.262 14.312 12.5072 14.3755 12.6923C11.812 12.5697 9.56348 11.399 8.06201 9.55288C7.74951 9.98558 7.625 10.5385 7.625 11.0913C7.625 12.1394 8.18652 13.0625 8.99951 13.6154C8.49902 13.5529 8.00098 13.4303 7.625 13.2452C7.625 13.2452 7.625 13.2452 7.625 13.3077C7.625 14.7837 8.68701 16.0144 10.0615 16.262C9.8125 16.3221 9.56348 16.3846 9.25098 16.3846C9.06299 16.3846 8.875 16.3846 8.68701 16.3221C9.06299 17.5529 10.1885 18.4159 11.563 18.4159C10.501 19.2163 9.1875 19.7067 7.74951 19.7067C7.50049 19.7067 7.24902 19.7067 7 19.6466C8.37451 20.5072 10.0005 21 11.6875 21C17.376 21 20.4375 16.3846 20.4375 12.3846C20.4375 12.262 20.4375 12.1394 20.4375 12.0144C21.0625 11.5841 21.563 11.0312 22 10.4159Z" fill="black"/>
</svg>
