<svg width="28" height="28" viewBox="0 0 28 28" fill="none" xmlns="http://www.w3.org/2000/svg">
<rect x="0.25" y="0.25" width="27.5" height="27.5" rx="2.75" stroke="#C0C0C0" stroke-width="0.5"/>
<path d="M8.625 9.625C7.99219 9.625 7.5 10.1406 7.5 10.75C7.5 11.3828 7.99219 11.875 8.625 11.875C9.23438 11.875 9.75 11.3828 9.75 10.75C9.75 10.1406 9.23438 9.625 8.625 9.625ZM8.625 13.375C7.99219 13.375 7.5 13.8906 7.5 14.5C7.5 15.1328 7.99219 15.625 8.625 15.625C9.23438 15.625 9.75 15.1328 9.75 14.5C9.75 13.8906 9.23438 13.375 8.625 13.375ZM8.625 17.125C7.99219 17.125 7.5 17.6406 7.5 18.25C7.5 18.8828 7.99219 19.375 8.625 19.375C9.23438 19.375 9.75 18.8828 9.75 18.25C9.75 17.6406 9.23438 17.125 8.625 17.125ZM19.125 17.5H11.625C11.4141 17.5 11.25 17.6875 11.25 17.875V18.625C11.25 18.8359 11.4141 19 11.625 19H19.125C19.3125 19 19.5 18.8359 19.5 18.625V17.875C19.5 17.6875 19.3125 17.5 19.125 17.5ZM19.125 10H11.625C11.4141 10 11.25 10.1875 11.25 10.375V11.125C11.25 11.3359 11.4141 11.5 11.625 11.5H19.125C19.3125 11.5 19.5 11.3359 19.5 11.125V10.375C19.5 10.1875 19.3125 10 19.125 10ZM19.125 13.75H11.625C11.4141 13.75 11.25 13.9375 11.25 14.125V14.875C11.25 15.0859 11.4141 15.25 11.625 15.25H19.125C19.3125 15.25 19.5 15.0859 19.5 14.875V14.125C19.5 13.9375 19.3125 13.75 19.125 13.75Z" fill="black"/>
</svg>
