<svg width="29" height="29" viewBox="0 0 29 29" fill="none" xmlns="http://www.w3.org/2000/svg">
<rect x="1.14648" y="0.892273" width="27.1379" height="27.3793" rx="2.75" stroke="#C0C0C0" stroke-width="0.5"/>
<path d="M20 9.84615V9.42308C20 9.18996 19.8129 9 19.5833 9H10.4167C10.1871 9 10 9.18996 10 9.42308V9.84615H10.8333V11.1154H10V17.8846H10.8333V19.1538H10V19.5769C10 19.81 10.1871 20 10.4167 20H19.5833C19.8129 20 20 19.81 20 19.5769V19.1538H19.5833V17.8846H20V11.1154H19.5833V9.84615H20ZM14.5833 9.84615H15.8333V11.1154H14.5833V9.84615ZM13.3333 19.1538H12.0833V17.8846H13.3333V19.1538ZM13.3333 11.1154H12.0833V9.84615H13.3333V11.1154ZM15.8333 19.1538H14.5833V17.8846H15.8333V19.1538ZM16.9275 14.7526L14.1804 16.3628C13.9892 16.4749 13.75 16.3349 13.75 16.1102V12.8898C13.75 12.6651 13.9892 12.5251 14.1808 12.6372L16.9279 14.2474C17.1192 14.3595 17.1192 14.6405 16.9275 14.7526ZM18.3333 19.1538H17.0833V17.8846H18.3333V19.1538ZM18.3333 11.1154H17.0833V9.84615H18.3333V11.1154Z" fill="black"/>
</svg>
